<?xml version="1.0" encoding="UTF-8" standalone="no"?>
<svg width="244px" height="228px" viewBox="0 0 244 228" version="1.1" xmlns="http://www.w3.org/2000/svg" xmlns:xlink="http://www.w3.org/1999/xlink">
    <!-- Generator: Sketch 3.8.3 (29802) - http://www.bohemiancoding.com/sketch -->
    <title>Group</title>
    <desc>Created with Sketch.</desc>
    <defs>
        <rect id="path-1" x="0" y="0" width="277" height="277"></rect>
    </defs>
    <g id="Page-1" stroke="none" stroke-width="1" fill="none" fill-rule="evenodd">
        <g id="Desktop-HD-Copy-4" transform="translate(-1036.000000, -571.000000)">
            <g id="Group-6" transform="translate(1004.000000, 522.000000)">
                <g id="Group">
                    <mask id="mask-2" fill="white">
                        <use xlink:href="#path-1"></use>
                    </mask>
                    <g id="Mask"></g>
                    <g mask="url(#mask-2)" id="Fill-1" fill-opacity="0.03" fill="#000000">
                        <g transform="translate(32.000000, 49.000000)">
                            <path d="M314.321368,139.697282 C326.423586,118.258567 324.945657,90.7133354 308.476142,70.4562638 C297.087809,56.4526852 280.825928,48.7457594 264.120784,47.7939127 C267.299439,36.4265763 265.106459,23.7457848 257.093916,13.890205 C243.982693,-2.23286564 220.282176,-4.67663883 204.157939,8.43458342 C193.461328,17.1318497 188.794246,30.489199 190.686275,43.2038184 C164.527987,28.450194 130.92873,30.2582362 106.218042,50.3520008 C84.1307651,68.3111092 74.8864202,96.307768 79.6736494,122.463723 C1.55806038,145.224058 -25.387601,243.85801 27.222928,283.518291 L377.083762,283.518291 C386.302445,270.687024 391.030183,253.647101 390.999855,237.331561 C390.915869,192.51661 355.948332,153.545719 314.321368,139.697282 Z"></path>
                        </g>
                    </g>
                </g>
            </g>
        </g>
    </g>
</svg>