<?xml version="1.0" encoding="UTF-8" standalone="no"?>
<svg width="955px" height="378px" viewBox="0 0 955 378" version="1.1" xmlns="http://www.w3.org/2000/svg" xmlns:xlink="http://www.w3.org/1999/xlink">
    <!-- Generator: Sketch 3.8.2 (29753) - http://www.bohemiancoding.com/sketch -->
    <title>Page 1</title>
    <desc>Created with Sketch.</desc>
    <defs>
        <polygon id="path-1" points="8.71779512 6.74110503 8.71779512 0.115740623 0.422271252 0.115740623 0.422271252 6.74110503 8.71779512 6.74110503"></polygon>
    </defs>
    <g id="NEW-version" stroke="none" stroke-width="1" fill="none" fill-rule="evenodd">
        <g id="Desktop-HD-Copy-10" transform="translate(-243.000000, -266.000000)">
            <g id="Group-8" transform="translate(243.000000, 122.000000)">
                <g id="Page-1" transform="translate(0.000000, 144.000000)">
                    <g id="Group-6" transform="translate(177.000000, 0.548063)" fill="#B1D6FF">
                        <path d="M358.07784,125.508369 C365.465513,122.392914 372.992091,119.627686 380.63185,117.228368 C401.562734,110.655071 417.15093,108.637344 438.189851,113.347117 C459.678925,118.156209 479.68635,129.645756 489.219329,150.784849 C497.903446,170.044738 494.659764,194.978832 479.436836,209.455766 C464.823545,223.349859 443.036082,225.678609 423.028658,225.163723 C408.392216,224.789973 391.538443,219.962586 377.640254,226.658723 C353.964716,238.064633 359.911896,261.516796 349.638092,281.487594 C339.7347,300.737028 320.995424,315.736689 299.555223,318.687485 C289.291708,320.101462 278.565177,319.118735 268.852135,322.769985 C253.914733,328.384077 244.137385,342.962943 236.973502,356.428399 C233.848146,362.303854 229.812192,368.108741 223.834145,370.887037 C193.213371,385.120903 203.165637,330.673623 205.449848,317.924303 C213.812426,271.236911 234.866781,226.873041 266.056035,191.502696 C291.328977,162.841555 323.115007,140.254507 358.07784,125.508369" id="Fill-10"></path>
                        <path d="M145.689693,93.8446828 C139.38239,88.850023 132.846151,84.1533179 126.1067,79.7807037 C107.642661,67.799793 93.1399798,61.6525195 71.625182,60.5208148 C49.6499409,59.3629737 27.3608779,65.0450199 12.6498391,82.8569541 C-0.75446633,99.0850244 -4.1396258,124.000823 6.7592501,142.061053 C17.218261,159.397305 37.6166764,167.517874 57.0401864,172.415829 C71.2521971,176.001739 88.7593365,175.889353 100.411899,186.09299 C120.25984,203.476288 108.39892,224.482086 113.090813,246.507203 C117.612934,267.737774 131.763209,287.251185 151.662596,295.8788 C161.190431,300.005732 171.788347,301.952892 180.199799,308.092324 C193.133372,317.53278 198.756441,334.223464 202.144173,349.139489 C203.623251,355.647444 206.000065,362.330513 211.039219,366.622105 C236.844629,388.60279 241.46707,333.421078 242.593742,320.51494 C246.724871,273.244706 238.012458,224.793109 217.17675,182.284922 C200.294682,147.83719 175.549063,117.490254 145.689693,93.8446828" id="Fill-86"></path>
                        <path d="M253.025705,41.5999096 C257.311173,36.5399089 261.828149,31.6863856 266.561198,27.057635 C279.525639,14.3762697 290.226447,7.04501871 307.376035,2.59922267 C324.888319,-1.94066429 343.743349,-1.0232778 358.426092,10.9053601 C371.802102,21.7728615 378.490107,41.2836596 372.586657,57.6215026 C366.919858,73.3007092 351.781816,83.1880969 336.919011,90.3233251 C326.043286,95.5427576 311.923879,98.3288943 304.16322,108.461964 C290.941549,125.719807 303.836537,140.690718 303.5613,159.19788 C303.296352,177.038564 295.003226,195.077884 280.346206,205.29459 C273.331517,210.182091 265.105271,213.490955 259.307285,219.815956 C250.39166,229.541298 248.519019,243.908459 248.161468,256.477438 C248.007129,261.960848 247.155694,267.734371 243.780824,272.018122 C226.492331,293.956988 213.993479,250.275278 211.03275,240.066413 C200.187893,202.675726 199.498514,162.221857 209.51766,124.56458 C217.635869,94.050371 232.737899,65.5460491 253.025705,41.5999096" id="Fill-88"></path>
                    </g>
                    <polygon id="Fill-78" fill="#4986EC" points="595.716592 269.153415 595.952684 268.891661 595.662011 269.059387"></polygon>
                    <path d="M954.999908,346.447415 C954.945878,317.468034 932.358675,292.278883 905.469873,283.324066 C913.286176,269.461226 912.33165,251.654217 901.693332,238.555526 C894.336975,229.499469 883.833039,224.519331 873.040944,223.903575 C875.095459,216.55333 873.678218,208.35434 868.502445,201.981816 C860.033629,191.555563 844.723817,189.975953 834.308545,198.455085 C827.399664,204.078716 824.383696,212.715947 825.6056,220.938514 C808.709529,211.398451 787.006197,212.566169 771.043871,225.559461 C756.775863,237.172848 750.804884,255.255837 753.897047,272.169722 C703.437423,286.886854 686.031534,351.330474 720.016242,376.293571 L946.01019,376.293571 C951.96593,367.972539 955.019303,356.998484 954.999908,346.447415" id="Fill-80" fill="#B1D6FF"></path>
                    <path d="M380.990872,329.455322 C381.709937,328.385435 382.478506,327.34922 383.294039,326.35176 C385.528662,323.618591 387.445323,321.964205 390.682068,320.713249 C393.988626,319.436246 397.680419,319.174492 400.810542,321.121764 C403.662686,322.896226 405.409894,326.483272 404.633075,329.753925 C403.887354,332.893066 401.16595,335.140847 398.435025,336.854318 C396.437128,338.107815 393.751899,338.969951 392.471798,341.093207 C390.291755,344.710113 393.143264,347.282544 393.511999,350.839094 C393.867406,354.267308 392.664733,357.919792 390.044239,360.219669 C388.790159,361.320052 387.263811,362.145339 386.27946,363.492863 C384.765806,365.565929 384.728996,368.364536 384.946048,370.783854 C385.040612,371.839129 385.006975,372.966195 384.447208,373.866451 C381.582371,378.475734 378.152691,370.387411 377.34287,368.497319 C374.378392,361.577358 373.32169,353.834016 374.413298,346.378476 C375.297374,340.33717 377.587212,334.519499 380.990872,329.455322" id="Fill-90" fill="#77B4F8"></path>
                    <g transform="translate(562.486486, 195.000000)">
                        <path d="M83.3596936,84.1639346 C83.3133224,84.1639346 83.2669511,84.1629528 83.2196036,84.1604982 C81.9338997,84.0834233 80.9537579,82.9724652 81.0294162,81.6793749 C81.1182538,80.1702785 81.3379071,78.6837646 81.6307781,77.2149238 C79.4801283,74.7799473 77.0209877,72.4799744 74.4359125,70.2173117 L73.3435035,71.4348 L74.8278716,70.5727397 L79.2433909,78.2645166 L77.3485152,79.3651653 L73.0091423,71.8069194 L71.3100021,73.7004082 C77.6916624,79.2797447 83.2274135,85.0117581 84.3974334,92.2509042 C84.8923855,95.3191711 84.5633936,98.489059 84.214389,101.845007 C84.1714345,102.258363 84.1289682,102.674175 84.0869901,103.090968 L88.6992211,103.856317 C88.7490092,103.352139 88.8002616,102.845507 88.8534665,102.332002 C89.2185791,98.8184681 89.5968709,95.1836764 89.0018545,91.4993016 C88.4698054,88.2086467 87.2539024,85.2503466 85.5811206,82.5046159 C85.2858089,83.4717336 84.3969453,84.1639346 83.3596936,84.1639346" id="Fill-1" fill="#4986EC"></path>
                        <polygon id="Fill-3" fill="#4986EC" points="68.88132 65.4504523 65.7544334 68.9345307 67.982694 70.8383289 71.1090926 67.3542505"></polygon>
                        <path d="M83.8798326,111.271753 C84.0262681,112.782322 84.3406164,114.261473 84.7769943,115.700858 C84.3943094,114.535898 84.9624793,113.257045 86.1100457,112.79165 C87.3030071,112.307109 88.6629051,112.889344 89.1451661,114.091122 C89.7592191,115.622801 89.5761747,117.353304 88.6580239,118.721996 C88.1708817,119.44758 87.5089931,120.012141 86.7528977,120.387697 C90.3561879,126.93906 96.868664,131.902289 104.285135,133.096213 C104.410094,133.116831 104.534076,133.12665 104.656593,133.12665 C105.782195,133.12665 106.773563,132.304845 106.956608,131.151177 C107.160641,129.871342 106.294231,128.669072 105.022194,128.464357 C96.5982464,127.107938 89.3506639,119.356268 88.5228151,110.816177 C88.4408112,109.974736 88.4159172,109.126912 88.423727,108.272216 L83.7724465,107.500485 C83.7358377,108.74792 83.7568268,110.005664 83.8798326,111.271753" id="Fill-5" fill="#4986EC"></path>
                        <path d="M48.8626559,48.3453309 C47.4153848,47.1082057 45.9315047,45.8828627 44.3924673,44.7817231 C44.3846574,44.9177086 44.382705,45.0536942 44.3724545,45.1896798 C44.2777595,46.420423 43.2561276,47.3556308 42.0490108,47.3556308 C41.9894603,47.3556308 41.9289336,47.3536671 41.8679188,47.3492488 C40.5831911,47.2495915 39.6225741,46.121942 39.7206859,44.8308153 C39.791463,43.9029714 39.7885343,42.9697274 39.7255671,42.0399198 C37.51195,41.0497287 35.1670291,40.4733855 32.6380875,40.6000435 C27.7505577,40.8288135 23.6420649,43.6668376 20.0182737,46.1705434 L19.8557302,46.2824737 C19.4588899,46.5564086 19.0586328,46.8288707 18.6559351,47.0969145 L21.8321217,50.6040663 C22.0561681,50.4523711 22.2777739,50.301167 22.496939,50.1499628 L22.6589943,50.0375415 C25.9215779,47.7837154 29.2959406,45.4523235 32.8557883,45.2854097 C37.4260411,45.0900225 41.6087279,48.3021297 45.841691,51.92023 L64.0856053,67.5089894 L67.212492,64.0244201 L48.8626559,48.3453309 Z" id="Fill-7" fill="#4986EC"></path>
                        <g id="Group-11" transform="translate(0.000000, 41.608644)" fill="#4986EC">
                            <path d="M9.54349625,8.93410581 C7.81262831,8.84328511 5.48772024,4.74849889 4.54223484,1.9522032 C4.12879853,0.726860147 2.80697383,0.0670600406 1.58716588,0.482380643 C0.36686981,0.897210323 -0.289161357,2.22761083 0.123298715,3.4554085 C0.675360657,5.10098139 3.71340975,13.3244275 9.29894892,13.619472 C13.2092656,13.8207504 16.7905905,12.1771412 19.9687296,10.2065774 L16.7710658,6.67537048 C14.4227281,8.0578088 11.9933626,9.06763679 9.54349625,8.93410581" id="Fill-9"></path>
                        </g>
                        <path d="M84.0261217,68.552151 C83.1294481,71.3705382 82.2205716,74.2542181 81.6304365,77.2149729 C83.1196858,78.9008015 84.4537134,80.6543774 85.581267,82.504665 C85.6344719,82.3294056 85.6749857,82.1482551 85.6862125,81.9577771 C85.9200212,77.9940673 87.1574014,74.102523 88.4679994,69.9817179 C88.7403695,69.1260396 89.0127396,68.2654522 89.2777879,67.4014282 L85.2800979,64.4843655 C84.8935081,65.8240936 84.4629877,67.1785493 84.0261217,68.552151" id="Fill-12" fill="#4986EC"></path>
                        <path d="M92.7220003,10.9115915 C93.2642999,9.73681352 92.7576329,8.34161121 91.5890774,7.79619609 C90.42101,7.24881728 89.0337775,7.76134058 88.4914779,8.93562767 C85.4968713,15.4187528 82.7819566,21.8198939 81.7808257,28.214653 L86.6561526,27.5469981 C87.7319656,22.1286843 90.1110548,16.5645664 92.7220003,10.9115915" id="Fill-14" fill="#4986EC"></path>
                        <path d="M88.5556166,49.1968363 C87.7463163,49.1968363 86.9594694,48.7716973 86.5284608,48.0142036 C85.8900019,46.8890087 86.2780561,45.4560054 87.3968235,44.8133876 L88.6112621,44.1152955 C87.8790845,42.3170457 87.188885,40.613053 86.735423,38.8638954 C85.968589,35.907068 85.8929306,32.8883843 86.2844016,29.8196265 L81.5003529,30.4750083 C81.2133393,33.6620785 81.3915025,36.8501305 82.2213038,40.0480009 C82.7611628,42.1280404 83.5577721,44.0838764 84.3275348,45.9754016 C85.2437331,48.2253003 86.1081908,50.3500138 86.5099123,52.5473838 C86.9506833,54.9661599 86.8232843,57.3932817 86.3878827,59.8537863 L90.5241983,62.871979 C91.3740124,59.2440603 91.7952586,55.5287573 91.0972493,51.701033 C90.9000495,50.6185485 90.605714,49.580247 90.2776985,48.5615824 L89.710993,48.8870641 C89.3458804,49.097179 88.9480639,49.1968363 88.5556166,49.1968363" id="Fill-16" fill="#4986EC"></path>
                        <path d="M81.0293674,81.6793749 C80.9537091,82.9724652 81.9338509,84.0834233 83.2195548,84.1604982 C83.2669023,84.1629528 83.3132735,84.1639346 83.3596448,84.1639346 C84.3968965,84.1639346 85.2857601,83.4717336 85.5810718,82.5046159 C84.4540063,80.6543283 83.1194905,78.9007524 81.6307293,77.2149238 C81.3378583,78.6842555 81.118205,80.1702785 81.0293674,81.6793749" id="Fill-18" fill="#4986EC"></path>
                        <path d="M88.6114086,44.115541 C88.6226353,44.1435236 88.6333739,44.1700334 88.6450888,44.198016 C89.2200923,45.6113824 89.7941195,47.0605862 90.2773568,48.5613369 L106.639086,39.1591854 L103.420922,35.605396 L88.6114086,44.115541 Z" id="Fill-20" fill="#4986EC"></path>
                        <g id="Group-24" transform="translate(104.945462, 31.299268)">
                            <mask id="mask-2" fill="white">
                                <use xlink:href="#path-1"></use>
                            </mask>
                            <g id="Clip-23"></g>
                            <path d="M8.41032932,1.298736 C7.7713823,0.172559328 6.34412402,-0.217724217 5.22779717,0.425875441 L0.422271252,3.18682469 L3.64092416,6.74110503 L7.54245476,4.49955199 C8.66122219,3.85595233 9.04927634,2.42393082 8.41032932,1.298736" id="Fill-22" fill="#4986EC" mask="url(#mask-2)"></path>
                        </g>
                        <path d="M88.6114086,44.115541 L87.3969699,44.813633 C86.2782025,45.4562508 85.8896602,46.8892542 86.5286072,48.014449 C86.9596158,48.7714518 87.7464627,49.1970818 88.5557631,49.1970818 C88.9482103,49.1970818 89.3460268,49.0974245 89.7111394,48.8873096 L90.2773568,48.5613369 C89.7941195,47.0605862 89.2200923,45.6113824 88.6450888,44.198016 C88.6333739,44.1700334 88.6226353,44.1435236 88.6114086,44.115541" id="Fill-25" fill="#4986EC"></path>
                        <path d="M32.0365791,19.2688632 C31.483541,17.1412042 32.3372601,14.6811906 33.2407673,12.0773366 C34.3517248,8.87848427 35.6105823,5.25252922 34.3116991,1.56373607 C33.8816668,0.342320397 32.5486154,-0.298333724 31.3346648,0.136132864 C30.1202262,0.567653916 29.4851841,1.9083638 29.9152165,3.1302704 C30.6654545,5.26332952 29.7775671,7.82201863 28.837451,10.5304392 C27.7933657,13.5368498 26.6106547,16.9448351 27.5239243,20.4568961 C28.1604307,22.9041458 29.6584662,24.7937072 31.240458,26.4358436 L34.9691947,23.5575639 C33.610273,22.191326 32.444158,20.8353975 32.0365791,19.2688632" id="Fill-27" fill="#4986EC"></path>
                        <path d="M38.0822676,26.7039856 L34.3711031,29.5690105 C34.3906279,29.5896292 34.4125932,29.6107389 34.432118,29.6313577 C37.5321581,32.9794505 39.4162952,37.4689385 39.7257623,42.0399198 C41.3463155,42.7655035 42.8965796,43.7110207 44.3926626,44.7817231 C44.7768118,38.2558876 42.4392126,31.5567565 38.0822676,26.7039856" id="Fill-29" fill="#4986EC"></path>
                        <path d="M39.7207347,44.8306681 C39.6226229,46.1217947 40.5832399,47.2499351 41.8679676,47.3491015 C41.9289824,47.3540107 41.9895091,47.3554835 42.0490596,47.3554835 C43.2561765,47.3554835 44.2778083,46.4207667 44.3725033,45.1895325 C44.3827538,45.053547 44.3847063,44.9175614 44.3925162,44.7815758 C42.8969213,43.7108734 41.346169,42.7653563 39.7256159,42.0402634 C39.7885831,42.970071 39.7915119,43.9028242 39.7207347,44.8306681" id="Fill-31" fill="#4986EC"></path>
                        <path d="M63.570738,128.709328 L64.3585611,129.414783 C65.2274119,130.192896 65.3933722,131.495805 64.7485678,132.469304 C64.3034038,133.140396 63.5653687,133.513497 62.8068327,133.513497 C62.4651498,133.513497 62.12005,133.438386 61.794475,133.280309 L60.4311603,132.618054 C60.1221813,132.467832 59.8649429,132.25428 59.6589569,132.005383 L56.5862514,134.595 C54.1886137,136.613674 50.9465311,137.370186 47.9109226,136.612692 L40.8839697,134.864025 C39.8652665,134.6112 38.8143476,134.688275 37.8478731,135.082977 L28.5536101,138.872409 L30.9082934,142.974559 L39.6036351,139.429606 C39.652935,139.408988 39.7124855,139.404078 39.7661785,139.418806 L46.7902027,141.167473 C51.2652724,142.278922 56.0473687,141.169437 59.5818342,138.191008 L73.1036909,126.797675 L69.9597201,123.325869 L63.570738,128.709328 Z" id="Fill-33" fill="#4986EC"></path>
                        <path d="M84.8183867,115.844305 C84.8315659,115.877688 84.8720797,115.977836 84.7915402,116.09664 C84.7119769,116.215934 84.605079,116.215934 84.5694463,116.215934 L80.1924884,116.215934 C79.0356477,116.215934 77.9105347,116.626836 77.0236235,117.374021 L71.6391892,121.911128 L74.78316,125.382443 L80.0196945,120.97052 C80.0675301,120.929283 80.129033,120.9067 80.1924884,120.9067 L84.5694463,120.9067 C85.3401853,120.9067 86.0835897,120.720641 86.7528,120.387795 C85.9347136,118.898826 85.2703844,117.328856 84.7768966,115.700956 C84.7925164,115.748576 84.7993501,115.797177 84.8183867,115.844305" id="Fill-35" fill="#4986EC"></path>
                        <path d="M21.7294704,141.654665 C20.5355327,142.14166 19.9605292,143.50937 20.4437665,144.709676 C20.8113197,145.622302 21.6850516,146.175081 22.6066192,146.175081 C22.8980259,146.175081 23.1943138,146.119606 23.4818156,146.002767 L28.8603925,143.809815 L26.5057092,139.707174 L21.7294704,141.654665 Z" id="Fill-37" fill="#4986EC"></path>
                        <path d="M88.6582191,118.721898 C89.5763699,117.353696 89.7589262,115.622703 89.1453613,114.091024 C88.6626122,112.889736 87.3032024,112.307011 86.1102409,112.791552 C84.9626745,113.257437 84.3940166,114.5358 84.7767014,115.70076 C85.2701891,117.328659 85.9345183,118.899121 86.7530929,120.387599 C87.5091884,120.012043 88.1705888,119.447482 88.6582191,118.721898" id="Fill-39" fill="#4986EC"></path>
                        <path d="M53.1485798,119.37782 C52.1879627,118.517232 50.713845,118.604126 49.8557328,119.570752 C48.999085,120.53787 49.0849938,122.021438 50.0475634,122.882517 L59.179771,131.059325 C59.2632393,131.405917 59.4291996,131.728453 59.6591033,132.005333 L63.5708844,128.709278 L53.1485798,119.37782 Z" id="Fill-41" fill="#4986EC"></path>
                        <path d="M60.4312579,132.618152 L61.7945727,133.280407 C62.1201476,133.438484 62.4652474,133.513595 62.8069303,133.513595 C63.5654663,133.513595 64.3030133,133.140494 64.7481773,132.469403 C65.3934698,131.495412 65.2275096,130.192994 64.3586588,129.414882 L63.5708356,128.709426 L59.6590545,132.005481 C59.8650405,132.254378 60.1222789,132.467439 60.4312579,132.618152" id="Fill-43" fill="#4986EC"></path>
                        <path d="M72.9326054,71.6730939 L73.3436011,71.4345054 L74.4360101,70.2170172 C73.8068255,69.6671837 73.1737359,69.1183322 72.5333245,68.5709533 L71.1089949,67.353956 L67.9825964,70.8380344 L69.5123596,72.1458524 C70.1176264,72.663285 70.7165477,73.1812084 71.3100997,73.7006046 L73.00924,71.8066248 L72.9326054,71.6730939 Z" id="Fill-45" fill="#225CBD"></path>
                        <path d="M83.7723489,107.500731 L88.4236294,108.272461 C88.4363205,106.829148 88.5515164,105.362271 88.6994163,103.85612 L84.0866972,103.091263 C83.941726,104.541449 83.8157915,106.013726 83.7723489,107.500731" id="Fill-47" fill="#225CBD"></path>
                        <polygon id="Fill-49" fill="#225CBD" points="67.2125408 64.0244691 64.0856541 67.5090385 65.754531 68.934678 68.8814177 65.4505996"></polygon>
                        <path d="M85.2800491,64.4845128 L89.277739,67.4015755 C89.7365704,65.905734 90.1670908,64.3966376 90.5243935,62.8723227 L86.3875898,59.853639 C86.1171722,61.3818814 85.7305824,62.9228877 85.2800491,64.4845128" id="Fill-51" fill="#225CBD"></path>
                        <path d="M37.8453837,26.4336836 C37.2332832,25.7733926 36.5884787,25.1450115 35.9636871,24.538722 C35.624933,24.2088219 35.2935005,23.8828492 34.9689018,23.5573675 L31.2401651,26.4361382 C31.7336528,26.9481706 32.2344624,27.4376205 32.7206283,27.9103791 C33.3068585,28.4803403 33.8584324,29.0198644 34.3714448,29.5687159 L38.0821211,26.704182 C38.0025578,26.6148341 37.9264113,26.5215587 37.8453837,26.4336836" id="Fill-53" fill="#225CBD"></path>
                        <polygon id="Fill-55" fill="#4986EC" points="104.82187 33.8834846 103.203758 35.3655802 103.42097 35.6051505 105.368075 34.4863377"></polygon>
                        <polygon id="Fill-57" fill="#225CBD" points="103.420775 35.6052487 106.639428 39.159529 108.586533 38.0407162 105.36788 34.4864359"></polygon>
                        <path d="M16.7708706,48.284211 L19.9690225,51.815418 C20.6060171,51.4202252 21.2278799,51.0137412 21.8321705,50.6043117 L18.6559839,47.096669 C18.0341211,47.510026 17.4054245,47.9106189 16.7708706,48.284211" id="Fill-59" fill="#225CBD"></path>
                        <polygon id="Fill-61" fill="#225CBD" points="69.9599642 123.326115 73.1039349 126.797429 74.7830623 125.38259 71.6390915 121.911275"></polygon>
                        <path d="M86.6562014,27.5471944 L81.7808746,28.2148493 C81.663238,28.9684157 81.5680549,29.7214911 81.5002065,30.4745665 L86.2847433,29.8196756 C86.3809026,29.0651274 86.5048847,28.3076337 86.6562014,27.5471944" id="Fill-63" fill="#225CBD"></path>
                        <polygon id="Fill-65" fill="#225CBD" points="26.5056604 139.707321 28.8603437 143.809472 30.9084886 142.974412 28.5538054 138.872262"></polygon>
                        <polygon id="Fill-67" fill="#4986EC" points="77.3483199 79.3650671 79.2431957 78.2644184 74.8281645 70.5726416 73.3433082 71.4347018 73.0094352 71.8068212"></polygon>
                        <polygon id="Fill-69" fill="#4986EC" points="73.0260443 71.9347018 73.432703 71.4347018 72.932703 71.7552823"></polygon>
                    </g>
                    <path d="M356.156087,339.261946 C354.921047,338.895364 353.669505,338.586596 352.405906,338.337548 C348.943857,337.655209 346.414119,337.601842 343.122793,338.701589 C339.761021,339.824844 336.748309,341.97669 335.574196,345.473519 C334.504166,348.66031 335.439648,352.539605 338.119166,354.565657 C340.690792,356.510387 344.218844,356.508481 347.414971,356.087895 C349.753044,355.780398 352.371634,354.733382 354.709072,355.554222 C358.691538,356.952573 358.129233,360.754358 360.10809,363.730856 C362.014596,366.600619 365.265939,368.649543 368.74893,368.75183 C370.416172,368.80075 372.118319,368.464028 373.734787,368.875083 C376.2201,369.507867 378.029504,371.642559 379.400996,373.645739 C379.999476,374.519946 380.742658,375.36747 381.746684,375.704192 C386.888032,377.431641 384.386218,369.008501 383.808046,367.035817 C381.6902,359.8109 377.578898,353.167306 371.993926,348.115201 C367.468829,344.021166 362.001903,340.996384 356.156087,339.261946" id="Fill-92" fill="#77B4F8"></path>
                    <path d="M125.123626,375.409049 C120.335806,351.327945 106.948319,322.744975 86.6479269,308.964797 C65.7634101,294.787797 37.7937587,289.63551 23.1724099,269.048255 C18.5440627,262.531269 15.6188817,254.655969 15.7555724,246.661167 C15.8913518,238.665452 19.2876601,230.610442 25.4824828,225.562149 C35.2759159,217.580118 50.0549147,218.52884 61.2070534,224.46291 C72.3582809,230.396068 80.7082602,240.377712 88.7629877,250.114877 L111.02079,277.01934 C113.584197,280.118192 118.606213,278.224398 118.494127,274.201455 C117.756908,247.567925 125.021563,220.718197 139.278404,198.203396 C146.786368,186.347115 157.08738,175.100205 170.73549,171.879113 C180.41137,169.595796 191.054108,171.826203 199.002216,177.803148 C206.951236,183.780093 212.056178,193.390459 212.561023,203.329228 C213.339249,218.651991 203.772722,232.696717 192.466578,243.054201 C181.160435,253.412597 167.778415,261.406487 157.101049,272.412567 C150.511645,279.206872 144.963825,287.698841 142.495191,296.719905 C141.251306,301.265558 147.323107,304.104424 150.031405,300.249331 C154.668865,293.648419 160.06268,287.579339 166.084362,282.213589 C174.753286,274.487896 185.273914,268.032029 196.862551,267.388905 C208.450278,266.746694 220.978436,273.394129 224.122322,284.578095 C227.856712,297.864756 217.456372,311.347547 205.361068,317.973089 C193.264852,324.598631 179.224894,326.964961 167.038463,333.422653 C150.975483,341.935603 138.912984,357.673432 134.857826,375.409049" id="Fill-198" fill="#B1D6FF" transform="translate(120.322392, 273.204524) scale(-1, 1) translate(-120.322392, -273.204524) "></path>
                    <path d="M321.970829,285.199757 C324.76395,288.953893 327.125505,292.871307 327.950557,297.457719 C329.463577,305.870058 325.298965,314.222677 320.579029,321.345942 C315.858458,328.468571 310.314738,335.419027 308.524374,343.776729 C305.98575,355.631895 312.47955,368.816161 323.419749,374.017567" id="Stroke-94" stroke="#77B4F8" stroke-width="5.23584" stroke-linecap="round" stroke-linejoin="round"></path>
                    <path d="M325.739924,231.794331 C318.713013,234.747322 312.990321,240.675541 310.282879,247.807065 C307.574802,254.938588 307.91942,263.174943 311.21265,270.054878" id="Stroke-96" stroke="#77B4F8" stroke-width="5.23584" stroke-linecap="round" stroke-linejoin="round"></path>
                    <path d="M291.179672,324.86793 C283.735792,337.529959 282.74319,354.273951 290.364139,366.82988" id="Stroke-98" stroke="#77B4F8" stroke-width="5.23584" stroke-linecap="round" stroke-linejoin="round"></path>
                    <path d="M297.766575,289.22937 C301.375863,293.698246 302.874921,299.804356 301.745868,305.439054 C301.168966,308.315806 299.984698,310.955581 298.530066,313.491164" id="Stroke-100" stroke="#77B4F8" stroke-width="5.23584" stroke-linecap="round" stroke-linejoin="round"></path>
                    <path d="M228.345561,271.608248 C229.006873,269.552336 229.882063,267.565674 230.952728,265.690195 C232.234733,263.445591 233.907686,261.270873 236.279395,260.248 C236.652573,260.087263 237.091754,259.959563 237.451604,260.146983 C237.686427,260.268331 237.841283,260.504671 237.940924,260.749907 C238.359162,261.78104 237.933943,262.946861 237.470009,263.958934 C235.882735,267.42082 233.798525,270.653989 231.301154,273.5282" id="Fill-102" fill="#4986EC"></path>
                    <path d="M245.362781,350.759333 C242.904759,349.104946 237.093214,344.150681 235.029313,342.024248 C232.558598,339.479136 230.328417,336.442917 229.881619,332.921946 C229.811807,332.368578 229.810537,331.740241 230.19387,331.335539 C230.443289,331.072514 230.813294,330.956885 231.174413,330.918766 C232.69251,330.758664 234.067175,331.762478 235.224152,332.759938 C239.182501,336.171634 242.651531,340.15258 245.489712,344.542677" id="Fill-104" fill="#4986EC"></path>
                    <path d="M213.749998,254.091065 C227.606441,266.481174 237.738723,282.992002 242.515143,300.965984 C248.856625,324.826252 245.796949,350.053105 242.694751,374.548063" id="Stroke-106" stroke="#77B4F8" stroke-width="2.11752" stroke-linecap="round" stroke-linejoin="round"></path>
                    <path d="M201.300333,262.028753 L227.570646,246.962019" id="Stroke-108" stroke="#77B4F8" stroke-width="2.11752" stroke-linecap="round" stroke-linejoin="round"></path>
                    <path d="M199.826218,250.524477 L214.276699,254.452057" id="Stroke-110" stroke="#77B4F8" stroke-width="2.11752" stroke-linecap="round" stroke-linejoin="round"></path>
                    <path d="M206.910057,241.34619 L214.319665,254.292844" id="Stroke-112" stroke="#77B4F8" stroke-width="2.11752" stroke-linecap="round" stroke-linejoin="round"></path>
                    <path d="M218.40228,239.87052 L214.478837,254.336237" id="Stroke-114" stroke="#77B4F8" stroke-width="2.11752" stroke-linecap="round" stroke-linejoin="round"></path>
                    <path d="M203.063471,241.581895 C204.044014,243.294732 206.225961,243.888125 207.936994,242.906548 C209.648661,241.924971 210.240795,239.740723 209.260886,238.027887 C208.280343,236.314415 206.098395,235.721657 204.386728,236.703234 C202.675696,237.684176 202.082927,239.869059 203.063471,241.581895" id="Fill-116" fill="#FF9C8F"></path>
                    <path d="M215.314678,239.929415 C216.295222,241.642251 218.477169,242.235645 220.188201,241.254068 C221.899868,240.27249 222.492002,238.088243 221.512094,236.375406 C220.53155,234.661935 218.349603,234.069176 216.637936,235.050754 C214.926904,236.031695 214.334135,238.216578 215.314678,239.929415" id="Fill-118" fill="#FF9C8F"></path>
                    <path d="M225.36693,247.957192 C226.347474,249.670028 228.529421,250.263422 230.240453,249.281845 C231.95212,248.300267 232.544254,246.11602 231.564346,244.403183 C230.583802,242.689712 228.40122,242.096953 226.690188,243.078531 C224.979156,244.059473 224.386387,246.244355 225.36693,247.957192" id="Fill-120" fill="#FF9C8F"></path>
                    <path d="M197.27763,264.067193 C198.258173,265.78003 200.44012,266.373423 202.151153,265.391846 C203.86282,264.410269 204.454954,262.226021 203.475045,260.513185 C202.494502,258.799713 200.312555,258.206955 198.600888,259.188532 C196.889855,260.169474 196.297087,262.354357 197.27763,264.067193" id="Fill-122" fill="#FF9C8F"></path>
                    <path d="M195.704445,252.251227 C196.684988,253.964063 198.866935,254.557457 200.577968,253.57588 C202.289635,252.594302 202.881769,250.410055 201.90186,248.697218 C200.921317,246.983747 198.738735,246.390988 197.027702,247.372566 C195.31667,248.353508 194.723901,250.538391 195.704445,252.251227" id="Fill-124" fill="#FF9C8F"></path>
                    <path d="M206.902314,304.582763 L214.005383,278.373697" id="Stroke-126" stroke="#77B4F8" stroke-width="2.11752" stroke-linecap="round" stroke-linejoin="round"></path>
                    <path d="M198.686058,298.230592 L210.325648,291.551419" id="Stroke-128" stroke="#77B4F8" stroke-width="2.11752" stroke-linecap="round" stroke-linejoin="round"></path>
                    <path d="M197.363118,287.923078 C204.268809,289.798558 211.308413,290.915459 218.094789,293.147991 C227.377901,296.202634 236.158366,300.791587 243.951306,306.695028" id="Stroke-130" stroke="#77B4F8" stroke-width="2.11752" stroke-linecap="round" stroke-linejoin="round"></path>
                    <path d="M203.708599,279.698096 L210.380736,291.349958" id="Stroke-132" stroke="#77B4F8" stroke-width="2.11752" stroke-linecap="round" stroke-linejoin="round"></path>
                    <path d="M195.075755,290.512472 C196.781075,290.975624 198.539072,289.967363 199.001736,288.25961 C199.4644,286.552491 198.456567,284.793276 196.751246,284.330124 C195.045926,283.866972 193.287929,284.875233 192.825265,286.582351 C192.362601,288.28947 193.370434,290.04932 195.075755,290.512472" id="Fill-134" fill="#FF9C8F"></path>
                    <path d="M201.790034,281.694033 C203.495354,282.157185 205.253351,281.148924 205.716015,279.441171 C206.178679,277.734052 205.170846,275.974837 203.465525,275.511685 C201.760205,275.048533 200.002208,276.056794 199.539544,277.763912 C199.07688,279.471031 200.084713,281.230881 201.790034,281.694033" id="Fill-136" fill="#FF9C8F"></path>
                    <path d="M213.23929,280.402417 C214.944611,280.865569 216.702608,279.857308 217.165272,278.149555 C217.627936,276.442436 216.620102,274.683221 214.914782,274.220069 C213.209461,273.756917 211.451464,274.765178 210.9888,276.472296 C210.526136,278.179415 211.53397,279.939265 213.23929,280.402417" id="Fill-138" fill="#FF9C8F"></path>
                    <path d="M205.644553,308.42578 C207.349873,308.888932 209.10787,307.880672 209.570535,306.172918 C210.033199,304.465799 209.025365,302.706584 207.320045,302.243432 C205.614724,301.78028 203.856727,302.788541 203.394063,304.49566 C202.931399,306.202778 203.939232,307.962628 205.644553,308.42578" id="Fill-140" fill="#FF9C8F"></path>
                    <path d="M197.168215,301.939111 C198.873536,302.402263 200.631533,301.394003 201.094197,299.686249 C201.556861,297.97913 200.549027,296.219915 198.843707,295.756763 C197.138386,295.293611 195.38039,296.301872 194.917725,298.008991 C194.455061,299.716109 195.462895,301.475959 197.168215,301.939111" id="Fill-142" fill="#FF9C8F"></path>
                    <path d="M260.293887,278.163722 L243.021091,257.223408" id="Stroke-144" stroke="#77B4F8" stroke-width="2.11752" stroke-linecap="round" stroke-linejoin="round"></path>
                    <path d="M265.159921,268.983783 L251.804221,267.708051" id="Stroke-146" stroke="#77B4F8" stroke-width="2.11752" stroke-linecap="round" stroke-linejoin="round"></path>
                    <path d="M262.116365,259.048125 C256.598666,263.609124 250.646863,267.534162 245.385565,272.370892 C238.188567,278.987803 236.27381,283.530377 236.27381,283.530377" id="Stroke-148" stroke="#77B4F8" stroke-width="2.11752" stroke-linecap="round" stroke-linejoin="round"></path>
                    <path d="M252.946094,254.176961 L251.671705,267.546742" id="Stroke-150" stroke="#77B4F8" stroke-width="2.11752" stroke-linecap="round" stroke-linejoin="round"></path>
                    <path d="M265.267241,260.462041 C263.904635,261.588472 261.887698,261.395969 260.762453,260.031926 C259.637208,258.667883 259.830144,256.64882 261.19275,255.522389 C262.555356,254.395957 264.572293,254.588461 265.696903,255.952504 C266.822148,257.316547 266.629847,259.33561 265.267241,260.462041" id="Fill-152" fill="#FF9C8F"></path>
                    <path d="M255.516387,255.20263 C254.153781,256.329061 252.136845,256.136557 251.0116,254.772514 C249.886355,253.408472 250.07929,251.389408 251.441896,250.262977 C252.804503,249.136546 254.821439,249.329049 255.946049,250.693092 C257.071294,252.057135 256.878994,254.076198 255.516387,255.20263" id="Fill-154" fill="#FF9C8F"></path>
                    <path d="M244.554864,258.755177 C243.192258,259.881608 241.175321,259.689105 240.050076,258.325062 C238.924831,256.961019 239.117767,254.941956 240.480373,253.815524 C241.842979,252.689093 243.859916,252.881596 244.984526,254.245639 C246.109771,255.609682 245.91747,257.628745 244.554864,258.755177" id="Fill-156" fill="#FF9C8F"></path>
                    <path d="M263.023542,281.144858 C261.660936,282.27129 259.643999,282.078786 258.518754,280.714743 C257.393509,279.3507 257.586445,277.331637 258.949051,276.205206 C260.311657,275.078774 262.328594,275.271278 263.453204,276.635321 C264.578449,277.999364 264.386148,280.018427 263.023542,281.144858" id="Fill-158" fill="#FF9C8F"></path>
                    <path d="M268.071024,271.734932 C266.708418,272.861363 264.691481,272.668859 263.566236,271.304816 C262.440991,269.940774 262.633927,267.92171 263.996533,266.795279 C265.359139,265.668848 267.376076,265.861351 268.500686,267.225394 C269.625931,268.589437 269.43363,270.6085 268.071024,271.734932" id="Fill-160" fill="#FF9C8F"></path>
                    <path d="M251.608557,311.730932 L264.229959,304.49585" id="Stroke-162" stroke="#77B4F8" stroke-width="2.11752" stroke-linecap="round" stroke-linejoin="round"></path>
                    <path d="M250.901614,306.204366 L257.842846,308.092552" id="Stroke-164" stroke="#77B4F8" stroke-width="2.11752" stroke-linecap="round" stroke-linejoin="round"></path>
                    <path d="M254.305464,301.7961 C256.21197,305.12838 258.456114,308.224954 260.181743,311.64745 C262.542663,316.329161 262.644843,318.970842 262.644843,318.970842" id="Stroke-166" stroke="#77B4F8" stroke-width="2.11752" stroke-linecap="round" stroke-linejoin="round"></path>
                    <path d="M259.826209,301.088411 L257.940011,308.036962" id="Stroke-168" stroke="#77B4F8" stroke-width="2.11752" stroke-linecap="round" stroke-linejoin="round"></path>
                    <path d="M252.457663,301.908934 C252.928578,302.731679 253.976395,303.01694 254.798909,302.545529 C255.620788,302.074753 255.905749,301.025196 255.434834,300.20245 C254.963919,299.379069 253.916102,299.093808 253.093588,299.565219 C252.271709,300.036631 251.986748,301.086188 252.457663,301.908934" id="Fill-170" fill="#FF9C8F"></path>
                    <path d="M258.342954,301.116365 C258.813869,301.939111 259.861686,302.224372 260.6842,301.752961 C261.50608,301.282185 261.79104,300.232628 261.320125,299.409882 C260.849211,298.586501 259.801394,298.30124 258.97888,298.772651 C258.157,299.244063 257.87204,300.29362 258.342954,301.116365" id="Fill-172" fill="#FF9C8F"></path>
                    <path d="M263.171036,304.973742 C263.641951,305.796488 264.689768,306.081749 265.512282,305.610337 C266.334161,305.139562 266.619122,304.090004 266.148207,303.267259 C265.677292,302.443877 264.629475,302.158616 263.806961,302.630027 C262.985082,303.101439 262.700121,304.150996 263.171036,304.973742" id="Fill-174" fill="#FF9C8F"></path>
                    <path d="M249.675966,312.709777 C250.146881,313.532523 251.194698,313.817784 252.017212,313.346373 C252.839091,312.875597 253.124052,311.82604 252.653137,311.003294 C252.182222,310.179913 251.134405,309.894652 250.311891,310.366063 C249.490012,310.837474 249.205051,311.887031 249.675966,312.709777" id="Fill-176" fill="#FF9C8F"></path>
                    <path d="M248.921424,307.033466 C249.392338,307.856212 250.440155,308.141472 251.262669,307.670061 C252.084549,307.199285 252.369509,306.149728 251.898595,305.326982 C251.42768,304.503601 250.379863,304.21834 249.557349,304.689751 C248.73547,305.161163 248.450509,306.21072 248.921424,307.033466" id="Fill-178" fill="#FF9C8F"></path>
                    <path d="M287.775695,317.33164 L270.502899,296.391961" id="Stroke-180" stroke="#77B4F8" stroke-width="2.11752" stroke-linecap="round" stroke-linejoin="round"></path>
                    <path d="M292.641792,308.151701 L279.286093,306.875968" id="Stroke-182" stroke="#77B4F8" stroke-width="2.11752" stroke-linecap="round" stroke-linejoin="round"></path>
                    <path d="M289.598236,298.216107 C284.080537,302.777105 259.0624,318.964553 246.22458,334.791771" id="Stroke-184" stroke="#77B4F8" stroke-width="2.11752" stroke-linecap="round" stroke-linejoin="round"></path>
                    <path d="M280.427965,293.344942 L279.153576,306.714723" id="Stroke-186" stroke="#77B4F8" stroke-width="2.11752" stroke-linecap="round" stroke-linejoin="round"></path>
                    <path d="M292.749112,299.630022 C291.386506,300.756454 289.369569,300.56395 288.244324,299.199907 C287.11908,297.835864 287.312015,295.816801 288.674621,294.69037 C290.037227,293.563939 292.053529,293.756442 293.178774,295.120485 C294.304019,296.484528 294.111719,298.503591 292.749112,299.630022" id="Fill-188" fill="#FF9C8F"></path>
                    <path d="M282.998259,294.370547 C281.635652,295.496979 279.618716,295.304475 278.493471,293.940432 C277.368226,292.576389 277.561161,290.557326 278.923767,289.430895 C280.286374,288.304464 282.30331,288.496967 283.427921,289.86101 C284.553166,291.225053 284.360865,293.244116 282.998259,294.370547" id="Fill-190" fill="#FF9C8F"></path>
                    <path d="M272.036672,297.923095 C270.674065,299.049526 268.657129,298.857022 267.531884,297.49298 C266.406639,296.128937 266.599574,294.109874 267.962181,292.983442 C269.324787,291.857011 271.341723,292.049514 272.466334,293.413557 C273.591579,294.7776 273.399278,296.796663 272.036672,297.923095" id="Fill-192" fill="#FF9C8F"></path>
                    <path d="M290.50535,320.312776 C289.142743,321.439207 287.125807,321.246704 286.000562,319.882661 C284.875952,318.518618 285.068252,316.499555 286.430859,315.373124 C287.793465,314.246692 289.810401,314.439196 290.935012,315.803239 C292.060257,317.167282 291.867956,319.186345 290.50535,320.312776" id="Fill-194" fill="#FF9C8F"></path>
                    <path d="M295.552895,310.902913 C294.190289,312.029344 292.173352,311.836841 291.048107,310.472798 C289.922862,309.108755 290.115798,307.089692 291.478404,305.96326 C292.84101,304.836829 294.857947,305.029333 295.982557,306.393376 C297.107802,307.757418 296.915502,309.776482 295.552895,310.902913" id="Fill-196" fill="#FF9C8F"></path>
                    <g id="Group-2" transform="translate(161.139163, 320.989604) scale(-1, 1) rotate(27.000000) translate(-161.139163, -320.989604) translate(131.139163, 261.989604)">
                        <g id="Group-5" transform="translate(-0.000000, -0.000000)">
                            <path d="M28.1752441,15.9226662 C16.5140759,48.732759 17.9160309,85.9964805 32.0104699,117.835161" id="Stroke-200" stroke="#4986EC" stroke-width="2.96568" stroke-linecap="round" stroke-linejoin="round"></path>
                            <path d="M29.1783178,5.67385625 C29.1783178,8.32379713 31.3240895,10.4711959 33.9706047,10.4711959 C36.6177546,10.4711959 38.7635263,8.32379713 38.7635263,5.67385625 C38.7635263,3.02391537 36.6177546,0.87651662 33.9706047,0.87651662 C31.3240895,0.87651662 29.1783178,3.02391537 29.1783178,5.67385625" id="Fill-202" fill="#FF6A4D"></path>
                            <path d="M0.422882503,19.4125068 C0.422882503,22.0624477 2.56865421,24.2098465 5.21516945,24.2098465 C7.86231934,24.2098465 10.0080911,22.0624477 10.0080911,19.4125068 C10.0080911,16.7625659 7.86231934,14.6151672 5.21516945,14.6151672 C2.56865421,14.6151672 0.422882503,16.7625659 0.422882503,19.4125068" id="Fill-204" fill="#FF6A4D"></path>
                            <path d="M49.4378679,46.2356138 C49.4378679,48.8855546 51.5836396,51.0329534 54.2301548,51.0329534 C56.8773047,51.0329534 59.0230764,48.8855546 59.0230764,46.2356138 C59.0230764,43.5856729 56.8773047,41.4382741 54.2301548,41.4382741 C51.5836396,41.4382741 49.4378679,43.5856729 49.4378679,46.2356138" id="Fill-206" fill="#FF6A4D"></path>
                            <path d="M23.0365619,89.3881634 C21.5597175,80.4783646 22.9807122,75.7731471 26.7188356,67.801088 C30.4569591,59.8296644 37.1671762,53.2972519 45.2317492,49.779457" id="Stroke-208" stroke="#4986EC" stroke-width="2.96568" stroke-linecap="round" stroke-linejoin="round"></path>
                            <path d="M10.9020674,25.9661391 C15.023523,33.6002052 18.6404272,42.8823045 20.6649796,52.3372122" id="Stroke-210" stroke="#4986EC" stroke-width="2.96568" stroke-linecap="round" stroke-linejoin="round"></path>
                        </g>
                    </g>
                    <g id="Group-3" transform="translate(430.240447, 212.503597)">
                        <path d="M23.5432981,160.689076 C24.8933588,150.163482 26.6841561,140.323672 29.1893228,130.092783 C39.9884156,85.9952086 65.2886498,46.4313495 102.714364,20.422545" id="Stroke-212" stroke="#77B4F8" stroke-width="8.00712" stroke-linecap="round"></path>
                        <g id="Group-217" transform="translate(0.603660, 44.707842)">
                            <path d="M30.2801408,79.7072124 C27.3446815,55.2522459 5.9323991,36.5531145 1.00840271,12.4221844 C0.177756827,8.3514779 0.280804262,3.2311451 3.85473999,1.12979738 C6.84033056,-0.626563365 10.8661432,0.85813761 13.1157801,3.49651968 C15.3654171,6.13490175 16.2907552,9.62108579 17.2397664,12.9599171 C21.7272037,28.7427214 28.1655796,43.9675408 36.3606358,58.1734614 C37.7100002,55.8688927 39.0593646,53.5643239 40.4080327,51.2597551" id="Fill-214" fill="#77B4F8"></path>
                            <path d="M30.2801408,79.7072124 C27.3446815,55.2522459 5.9323991,36.5531145 1.00840271,12.4221844 C0.177756827,8.3514779 0.280804262,3.2311451 3.85473999,1.12979738 C6.84033056,-0.626563365 10.8661432,0.85813761 13.1157801,3.49651968 C15.3654171,6.13490175 16.2907552,9.62108579 17.2397664,12.9599171 C21.7272037,28.7427214 28.1655796,43.9675408 36.3606358,58.1734614 C37.7100002,55.8688927 39.0593646,53.5643239 40.4080327,51.2597551" id="Stroke-216" stroke="#77B4F8" stroke-width="5.14728" stroke-linecap="round"></path>
                        </g>
                        <g id="Group-221" transform="translate(47.949779, 21.662154)">
                            <path d="M10.643895,41.5542383 C10.6919373,33.4337759 8.64769903,25.3098218 4.76322846,18.1845142 C3.01629592,14.9811636 0.853692304,11.823206 0.518091871,8.18757418 C0.181795172,4.55124399 2.62360164,0.323407818 6.26368268,0.382767923 C8.35317832,0.416987278 10.2156911,1.86327877 11.3220585,3.64268521 C12.4284259,5.42139329 12.9123311,7.50807557 13.3788296,9.55145988 C14.2623917,13.4189453 15.1459539,17.2864307 16.029516,21.1539161 C16.4096775,22.8194908 16.8058531,24.5227767 17.7270136,25.9599896 C18.41771,27.0382484 19.4711611,27.9509973 20.672917,28.3127448" id="Fill-218" fill="#77B4F8"></path>
                            <path d="M10.643895,41.5542383 C10.6919373,33.4337759 8.64769903,25.3098218 4.76322846,18.1845142 C3.01629592,14.9811636 0.853692304,11.823206 0.518091871,8.18757418 C0.181795172,4.55124399 2.62360164,0.323407818 6.26368268,0.382767923 C8.35317832,0.416987278 10.2156911,1.86327877 11.3220585,3.64268521 C12.4284259,5.42139329 12.9123311,7.50807557 13.3788296,9.55145988 C14.2623917,13.4189453 15.1459539,17.2864307 16.029516,21.1539161 C16.4096775,22.8194908 16.8058531,24.5227767 17.7270136,25.9599896 C18.41771,27.0382484 19.4711611,27.9509973 20.672917,28.3127448" id="Stroke-220" stroke="#77B4F8" stroke-width="5.14728" stroke-linecap="round"></path>
                        </g>
                        <g id="Group-225" transform="translate(92.510832, 0.013175)">
                            <path d="M0.206651885,26.0699804 C1.94801429,21.8896323 5.29775222,12.4213464 6.25581487,7.98470229 C6.6909814,5.96925214 7.17349406,3.85812747 8.53678378,2.31406639 C9.90007351,0.770703667 12.4484087,0.0723494925 14.0352,1.38316028 C15.8580256,2.89020859 15.3379145,5.77441133 14.6005684,8.02520683 C13.8625259,10.2760023 13.1878437,13.0764026 14.8623645,14.7475641 C16.8773597,14.0959997 18.9591964,13.436055 21.0674912,13.6246106 C23.1757861,13.8131662 25.3383897,15.0722988 25.9232535,17.1128897 C26.5610336,19.3427346 25.0926076,21.7429779 23.1047669,22.9287833 C22.519903,23.0454084 21.8633238,23.5566037 21.2721936,23.7535396 C20.6316284,23.9672359 19.9715678,24.1166837 19.3073296,24.2361023 C18.1243729,24.4497987 16.9469863,24.4435135 15.7730811,24.5580436 C12.8668649,24.8429721 9.86595645,25.8437136 7.01126397,26.4687406 C6.66173821,26.5448612 0.861838621,28.7230279 0.508831527,28.7879748" id="Fill-222" fill="#77B4F8"></path>
                            <path d="M0.206651885,26.0699804 C1.94801429,21.8896323 5.29775222,12.4213464 6.25581487,7.98470229 C6.6909814,5.96925214 7.17349406,3.85812747 8.53678378,2.31406639 C9.90007351,0.770703667 12.4484087,0.0723494925 14.0352,1.38316028 C15.8580256,2.89020859 15.3379145,5.77441133 14.6005684,8.02520683 C13.8625259,10.2760023 13.1878437,13.0764026 14.8623645,14.7475641 C16.8773597,14.0959997 18.9591964,13.436055 21.0674912,13.6246106 C23.1757861,13.8131662 25.3383897,15.0722988 25.9232535,17.1128897 C26.5610336,19.3427346 25.0926076,21.7429779 23.1047669,22.9287833 C22.519903,23.0454084 21.8633238,23.5566037 21.2721936,23.7535396 C20.6316284,23.9672359 19.9715678,24.1166837 19.3073296,24.2361023 C18.1243729,24.4497987 16.9469863,24.4435135 15.7730811,24.5580436 C12.8668649,24.8429721 9.86595645,25.8437136 7.01126397,26.4687406 C6.66173821,26.5448612 0.861838621,28.7230279 0.508831527,28.7879748" id="Stroke-224" stroke="#77B4F8" stroke-width="5.14728" stroke-linecap="round"></path>
                        </g>
                        <g id="Group-229" transform="translate(30.543117, 84.514030)">
                            <path d="M0.214798202,42.2153702 C6.56405203,32.4495854 14.0092293,32.626269 24.0396438,30.0172178 C37.1788882,26.5994725 50.3522495,23.3025424 63.5116856,19.9602193 C67.6781441,18.9022128 72.0332908,17.7443416 75.1845927,14.8126507 C78.3358947,11.8816583 79.7409604,6.57835665 77.0512831,3.21508295 C74.876843,0.496390147 70.8196983,-0.0148051085 67.4831895,0.961494028 C64.1466806,1.93779316 61.3093948,4.10059604 58.4157114,6.03154534 C43.9821077,15.6618494 26.25586,20.2228005 8.9828817,18.7506699" id="Fill-226" fill="#77B4F8"></path>
                            <path d="M0.214798202,42.2153702 C6.56405203,32.4495854 14.0092293,32.626269 24.0396438,30.0172178 C37.1788882,26.5994725 50.3522495,23.3025424 63.5116856,19.9602193 C67.6781441,18.9022128 72.0332908,17.7443416 75.1845927,14.8126507 C78.3358947,11.8816583 79.7409604,6.57835665 77.0512831,3.21508295 C74.876843,0.496390147 70.8196983,-0.0148051085 67.4831895,0.961494028 C64.1466806,1.93779316 61.3093948,4.10059604 58.4157114,6.03154534 C43.9821077,15.6618494 26.25586,20.2228005 8.9828817,18.7506699" id="Stroke-228" stroke="#77B4F8" stroke-width="5.14728" stroke-linecap="round"></path>
                        </g>
                        <g id="Group-233" transform="translate(57.697509, 44.009488)">
                            <path d="M0.63395061,19.8570724 C5.759168,16.8757985 11.5395721,15.0335402 17.4404304,14.4999976 C22.4319646,14.0488608 27.3963444,14.5691346 32.3544579,15.1292147 C35.8608558,15.5251815 40.4659621,14.4168934 43.0574659,11.8741859 C44.5662753,10.3929767 45.4950947,8.27696351 45.3565377,6.16374378 C45.2186769,4.05052405 43.9403317,2.00085455 42.0165475,1.12721347 C40.1143475,0.262651005 37.8612293,0.595067592 35.9339637,1.40236502 C34.0073944,2.20966244 32.2980603,3.45273287 30.4717534,4.46953655 C24.6816015,7.69244107 17.6221559,8.5423381 11.2353037,6.785279" id="Fill-230" fill="#77B4F8"></path>
                            <path d="M0.63395061,19.8570724 C5.759168,16.8757985 11.5395721,15.0335402 17.4404304,14.4999976 C22.4319646,14.0488608 27.3963444,14.5691346 32.3544579,15.1292147 C35.8608558,15.5251815 40.4659621,14.4168934 43.0574659,11.8741859 C44.5662753,10.3929767 45.4950947,8.27696351 45.3565377,6.16374378 C45.2186769,4.05052405 43.9403317,2.00085455 42.0165475,1.12721347 C40.1143475,0.262651005 37.8612293,0.595067592 35.9339637,1.40236502 C34.0073944,2.20966244 32.2980603,3.45273287 30.4717534,4.46953655 C24.6816015,7.69244107 17.6221559,8.5423381 11.2353037,6.785279" id="Stroke-232" stroke="#77B4F8" stroke-width="5.14728" stroke-linecap="round"></path>
                        </g>
                    </g>
                    <path d="M685.012745,258.991708 C697.996536,271.75666 707.89463,287.59849 713.887051,304.787846 C720.026713,322.398421 722.482831,343.038862 718.118937,361.33686" id="Stroke-234" stroke="#FF6A4D" stroke-width="2.28456" stroke-linecap="round" stroke-linejoin="round"></path>
                    <path d="M685.115877,253.25288 C685.411626,254.19062 686.100228,255.20587 687.080771,255.151867 C687.704003,255.118195 688.209824,254.653137 688.633774,254.195068 C689.925299,252.796717 690.999137,251.197604 691.80515,249.472696 C692.21958,248.586418 692.568641,247.640419 692.562295,246.661383 C692.54262,243.415507 689.225274,243.326562 687.352404,245.03368 C685.159668,247.033048 684.22355,250.422507 685.115877,253.25288 L685.115877,253.25288 Z" id="Stroke-236" stroke="#FF9C8F" stroke-width="1.61496" stroke-linecap="round" stroke-linejoin="round"></path>
                    <path d="M725.539778,321.893401 C724.557966,322.878155 723.736086,324.406112 724.444362,325.603064 C724.894333,326.363549 725.808238,326.695188 726.659946,326.927082 C729.256324,327.634834 731.962497,327.937884 734.650899,327.822255 C736.03318,327.76317 737.446558,327.582737 738.66954,326.935341 C742.724357,324.787942 740.666803,320.563031 737.302492,319.327959 C733.363182,317.881324 728.503622,318.921986 725.539778,321.893401 L725.539778,321.893401 Z" id="Stroke-238" stroke="#FF9C8F" stroke-width="2.28456" stroke-linecap="round" stroke-linejoin="round"></path>
                    <path d="M712.815244,323.45503 C713.917007,324.302554 714.931187,325.710434 714.384748,326.989979 C714.038226,327.80256 713.175729,328.250464 712.361465,328.592269 C709.879326,329.632931 707.235984,330.287316 704.555197,330.524292 C703.177359,330.646275 701.752557,330.651993 700.455955,330.170416 C696.155526,328.571303 697.644429,324.113862 700.818343,322.449311 C704.534888,320.500133 709.489647,320.896576 712.815244,323.45503 L712.815244,323.45503 Z" id="Stroke-240" stroke="#FF9C8F" stroke-width="2.28456" stroke-linecap="round" stroke-linejoin="round"></path>
                    <path d="M708.763474,308.86568 C709.979475,309.540395 711.191033,310.78182 710.840703,312.128074 C710.617939,312.983221 709.8316,313.554379 709.077629,314.013083 C706.777636,315.412069 704.26059,316.452096 701.645173,317.085515 C700.300337,317.410802 698.892036,317.628718 697.538314,317.344728 C693.048124,316.403176 693.858579,311.774198 696.750706,309.655389 C700.136596,307.17508 705.094528,306.830733 708.763474,308.86568 L708.763474,308.86568 Z" id="Stroke-242" stroke="#FF9C8F" stroke-width="2.28456" stroke-linecap="round" stroke-linejoin="round"></path>
                    <path d="M703.576368,296.324744 C704.681938,296.937832 705.784336,298.066805 705.465104,299.291712 C705.263283,300.06935 704.548026,300.589046 703.861963,301.005819 C701.770137,302.278375 699.481567,303.224374 697.102242,303.799979 C695.879895,304.09604 694.599159,304.294262 693.367927,304.03632 C689.284551,303.179901 690.021386,298.969602 692.6514,297.043296 C695.730751,294.787257 700.239981,294.474042 703.576368,296.324744 L703.576368,296.324744 Z" id="Stroke-244" stroke="#FF9C8F" stroke-width="2.0772" stroke-linecap="round" stroke-linejoin="round"></path>
                    <path d="M698.684884,284.289082 C699.827899,284.829744 701.000109,285.885654 700.760209,287.12835 C700.608526,287.917424 699.928175,288.481592 699.270671,288.942203 C697.264524,290.346271 695.041324,291.43776 692.704521,292.165207 C691.503117,292.539413 690.237613,292.819592 688.992419,292.641065 C684.862712,292.049578 685.327915,287.800524 687.82846,285.709034 C690.756762,283.259855 695.236798,282.656932 698.684884,284.289082 L698.684884,284.289082 Z" id="Stroke-246" stroke="#FF9C8F" stroke-width="2.0772" stroke-linecap="round" stroke-linejoin="round"></path>
                    <path d="M691.894065,274.114287 C692.981866,274.628901 694.097591,275.633985 693.869749,276.81696 C693.725048,277.567915 693.077699,278.1054 692.451293,278.543774 C690.542248,279.879863 688.425671,280.918619 686.201836,281.611123 C685.058186,281.967541 683.853609,282.233742 682.668707,282.06411 C678.737648,281.501212 679.180003,277.456733 681.560598,275.465624 C684.348006,273.134616 688.611625,272.560282 691.894065,274.114287 L691.894065,274.114287 Z" id="Stroke-248" stroke="#FF9C8F" stroke-width="1.97712" stroke-linecap="round" stroke-linejoin="round"></path>
                    <path d="M684.39605,265.560652 C685.315032,265.99585 686.257496,266.844644 686.065195,267.84401 C685.942706,268.478065 685.395633,268.932322 684.866965,269.302717 C683.254304,270.431689 681.465843,271.309073 679.586627,271.894208 C678.620681,272.195352 677.603327,272.420257 676.60184,272.277309 C673.280686,271.80145 673.655133,268.384672 675.665723,266.702331 C678.020931,264.732823 681.623238,264.24807 684.39605,265.560652 L684.39605,265.560652 Z" id="Stroke-250" stroke="#FF9C8F" stroke-width="1.6704" stroke-linecap="round" stroke-linejoin="round"></path>
                    <path d="M681.815221,255.910318 C682.283598,256.813115 682.520959,258.060258 681.763814,258.738785 C681.28338,259.170171 680.5732,259.200031 679.928389,259.174618 C677.961591,259.096473 676.007485,258.712102 674.158098,258.039928 C673.206748,257.694311 672.260476,257.257207 671.550296,256.536749 C669.193819,254.14602 671.556643,251.65237 674.174599,251.531022 C677.239987,251.389345 680.400573,253.185409 681.815221,255.910318 L681.815221,255.910318 Z" id="Stroke-252" stroke="#FF9C8F" stroke-width="1.6704" stroke-linecap="round" stroke-linejoin="round"></path>
                    <path d="M723.854894,307.736072 C723.035553,308.859962 722.458016,310.496559 723.341457,311.570258 C723.902493,312.252598 724.856381,312.439383 725.732841,312.538494 C728.407281,312.838367 731.128051,312.722738 733.76695,312.195418 C735.123845,311.924134 736.492798,311.528962 737.601541,310.701134 C741.279373,307.956529 738.599221,304.0982 735.085131,303.39426 C730.970656,302.569608 726.328148,304.344706 723.854894,307.736072 L723.854894,307.736072 Z" id="Stroke-254" stroke="#FF9C8F" stroke-width="2.28456" stroke-linecap="round" stroke-linejoin="round"></path>
                    <path d="M718.503475,293.940369 C717.910706,295.198948 717.651767,296.914961 718.721797,297.80251 C719.401513,298.366679 720.373171,298.370491 721.253439,298.30124 C723.93613,298.090947 726.585818,297.463246 729.078112,296.446726 C730.359483,295.924489 731.629429,295.277093 732.562373,294.254855 C735.656321,290.86476 732.296452,287.582035 728.713185,287.554716 C724.517475,287.522315 720.29257,290.142396 718.503475,293.940369 L718.503475,293.940369 Z" id="Stroke-256" stroke="#FF9C8F" stroke-width="2.28456" stroke-linecap="round" stroke-linejoin="round"></path>
                    <path d="M712.579216,280.165822 C712.145111,281.40153 712.067683,283.034315 713.156118,283.762398 C713.846624,284.224914 714.757355,284.134698 715.574792,283.985397 C718.06772,283.529869 720.489567,282.685522 722.726095,281.493016 C723.876091,280.879928 725.00324,280.151845 725.77879,279.104194 C728.350416,275.629601 724.887098,272.878644 721.527864,273.198848 C717.594267,273.573689 713.88978,276.435829 712.579216,280.165822 L712.579216,280.165822 Z" id="Stroke-258" stroke="#FF9C8F" stroke-width="2.15136" stroke-linecap="round" stroke-linejoin="round"></path>
                    <path d="M704.155237,269.928448 C703.879797,271.209264 704.008632,272.838872 705.179572,273.424007 C705.923389,273.795672 706.81508,273.591733 707.607131,273.340144 C710.023266,272.573942 712.319451,271.431627 714.38843,269.967203 C715.452113,269.214343 716.478986,268.349665 717.116181,267.212434 C719.231489,263.441779 715.449574,261.148891 712.156979,261.88968 C708.302079,262.756899 704.986002,266.06313 704.155237,269.928448 L704.155237,269.928448 Z" id="Stroke-260" stroke="#FF9C8F" stroke-width="2.15136" stroke-linecap="round" stroke-linejoin="round"></path>
                    <path d="M694.41733,258.175633 C694.253589,259.396093 694.468738,260.978052 695.541306,261.617189 C696.222292,262.022527 696.999111,261.881484 697.684539,261.68771 C699.774461,261.098764 701.734913,260.138152 703.474505,258.852254 C704.368101,258.191516 705.222982,257.419596 705.71611,256.361145 C707.352253,252.850338 703.863549,250.398619 700.996174,250.908785 C697.639479,251.505355 694.911727,254.492654 694.41733,258.175633 L694.41733,258.175633 Z" id="Stroke-262" stroke="#FF9C8F" stroke-width="1.98432" stroke-linecap="round" stroke-linejoin="round"></path>
                    <path d="M683.388597,255.969594 C682.851678,258.055366 684.105124,260.182435 686.188699,260.71992 C688.272274,261.257405 690.396468,260.002638 690.934021,257.916865 C691.47094,255.831093 690.217495,253.70466 688.133919,253.16654 C686.050344,252.629055 683.925516,253.883822 683.388597,255.969594" id="Fill-264" fill="#FFF4E6"></path>
                    <path d="M679.100354,259.814899 C678.563435,261.900671 679.81688,264.02774 681.900456,264.565225 C683.984031,265.10271 686.108225,263.847943 686.645778,261.76217 C687.182697,259.676398 685.929252,257.549965 683.845676,257.011845 C681.762101,256.47436 679.637273,257.729127 679.100354,259.814899" id="Fill-266" fill="#FFF4E6"></path>
                    <polygon id="Fill-268" fill="#77B4F8" points="684.523743 355.201907 695.544543 374.631418 675.012154 374.631418 674.795102 361.916657"></polygon>
                    <polygon id="Fill-270" fill="#4986EC" points="684.621353 355.201907 709.421803 349.834045 726.107542 364.71717 726.107542 374.631418 695.544416 374.631418"></polygon>
                    <g id="Group-4" transform="translate(763.500466, 252.161871)">
                        <path d="M52.3869865,26.0320299 C52.3869865,40.1209987 63.7961962,51.5422375 77.8703261,51.5422375 C91.9444561,51.5422375 103.353666,40.1209987 103.353666,26.0320299 C103.353666,11.9430611 91.9444561,0.521822209 77.8703261,0.521822209 C63.7961962,0.521822209 52.3869865,11.9430611 52.3869865,26.0320299 L52.3869865,26.0320299 Z" id="Stroke-272" stroke="#C1DBF8" stroke-width="2.4156" stroke-linecap="round" stroke-linejoin="round"></path>
                        <path d="M27.5692105,55.9371623 C22.1200546,47.9854337 21.4720709,28.1245365 21.4720709,28.1245365 C21.4720709,28.1245365 40.4127426,34.0724499 46.6044459,41.4587392 C52.2700194,48.2173273 54.0343629,53.3964973 46.9046381,61.6334869 C37.9902609,65.6849549 32.5550675,63.2122697 27.5692105,55.9371623" id="Fill-274" fill="#77B4F8"></path>
                        <path d="M28.0545319,36.0108902 C30.0346584,37.2262671 31.6416072,38.2141976 32.2768978,40.0807826 C32.7141757,41.3641393 32.6621339,42.7777376 33.030869,44.0826953 C33.5113036,45.7821898 34.6917636,47.2758391 36.2434974,48.1170095 C37.725419,48.9206957 39.6439839,49.1633899 40.6854542,50.4899486 C41.9598433,52.1119335 41.64315,54.2879219 43.0298733,56.1144815 L48.8382443,63.7676073" id="Stroke-276" stroke="#225CBD" stroke-width="2.4156" stroke-linecap="round" stroke-linejoin="round"></path>
                        <path d="M71.961489,56.2090179 C81.5244846,57.3684861 96.8444441,70.0051018 96.8444441,70.0051018 C96.8444441,70.0051018 79.8693019,80.3068979 70.2390328,80.0788162 C61.4281045,79.8697942 56.3794165,77.7732215 54.9146306,66.9733306 C57.7667744,57.5984738 63.2121223,55.148025 71.961489,56.2090179" id="Fill-278" fill="#77B4F8"></path>
                        <path d="M86.5816134,69.7401713 C84.361587,70.4250517 82.5597988,70.9796905 80.7396056,70.2236537 C79.4886987,69.7039578 78.4630948,68.7312751 77.2413821,68.1461407 C75.649665,67.3837506 73.7495051,67.2840045 72.0936878,67.8939166 C70.5114906,68.4765097 69.0619364,69.7579604 67.3794636,69.6639323 C65.3206397,69.5489384 63.8990104,67.8735862 61.6123451,67.7084017 L52.0360217,67.0158974" id="Stroke-280" stroke="#225CBD" stroke-width="2.4156" stroke-linecap="round" stroke-linejoin="round"></path>
                        <path d="M59.7198646,91.9069807 C69.2828602,93.066449 84.6028197,105.703065 84.6028197,105.703065 C84.6028197,105.703065 67.6276775,116.004861 57.9974084,115.776779 C49.1864801,115.567757 44.1377921,113.471184 42.6730062,102.671293 C45.52515,93.2964367 50.9704979,90.8459879 59.7198646,91.9069807" id="Fill-282" fill="#77B4F8"></path>
                        <path d="M74.339989,105.438134 C72.1199626,106.123015 70.3181744,106.677653 68.4979812,105.921617 C67.2470743,105.401921 66.2214703,104.429238 64.9997577,103.844104 C63.4080406,103.081713 61.5078807,102.981967 59.8520634,103.591879 C58.2698662,104.174473 56.820312,105.455923 55.1378391,105.361895 C53.0790153,105.246901 51.657386,103.571549 49.3707207,103.406365 L39.7943973,102.71386" id="Stroke-284" stroke="#C1DBF8" stroke-width="2.4156" stroke-linecap="round" stroke-linejoin="round"></path>
                        <path d="M13.1380231,98.7519096 C5.99687454,92.2804884 0.770482932,73.1095543 0.770482932,73.1095543 C0.770482932,73.1095543 20.5723827,74.5034575 28.3050306,80.2531494 C35.3808096,85.5142763 38.2951496,90.1432548 33.2655013,99.8090905 C25.5309495,105.81736 19.6718059,104.673139 13.1380231,98.7519096" id="Fill-286" fill="#77B4F8"></path>
                        <path d="M8.99892403,79.2551808 C11.206892,79.9781807 12.9978911,80.5664917 14.0482466,82.2354907 C14.7704851,83.3822524 15.0471951,84.7691671 15.7078719,85.953413 C16.5684653,87.495347 18.0624454,88.6745103 19.7664966,89.133215 C21.3937544,89.570954 23.3167619,89.361932 24.6368462,90.4108537 C26.2520456,91.6935751 26.4475196,93.8835406 28.2188443,95.3397057 L35.6405108,101.437556" id="Stroke-288" stroke="#C1DBF8" stroke-width="2.4156" stroke-linecap="round" stroke-linejoin="round"></path>
                        <path d="M75.1451532,31.7035692 C50.7921358,54.8662507 36.5460141,88.3275517 36.7211791,121.954673" id="Stroke-290" stroke="#FF9C8F" stroke-width="4.2264" stroke-linecap="round" stroke-linejoin="round"></path>
                        <path d="M98.0956048,26.0320299 C98.0956048,37.2137512 89.040334,46.2785693 77.8703896,46.2785693 C66.7004452,46.2785693 57.6451743,37.2137512 57.6451743,26.0320299 C57.6451743,14.8503086 66.7004452,5.78549044 77.8703896,5.78549044 C89.040334,5.78549044 98.0956048,14.8503086 98.0956048,26.0320299" id="Fill-292" fill="#77B4F8"></path>
                    </g>
                    <path id="Stroke-318" stroke="#FFF4E6" stroke-width="2.4156" stroke-linecap="round" stroke-linejoin="round"></path>
                    <path id="Stroke-322" stroke="#FFF4E6" stroke-width="2.4156" stroke-linecap="round" stroke-linejoin="round"></path>
                    <path id="Stroke-330" stroke="#FFFFFF" stroke-width="1.71432" stroke-linecap="round" stroke-linejoin="round"></path>
                    <path id="Stroke-358" stroke="#FFFFFF" stroke-width="5.25168" stroke-linecap="round" stroke-linejoin="round"></path>
                    <path id="Stroke-392" stroke="#FFFFFF" stroke-width="5.25168" stroke-linecap="round" stroke-linejoin="round"></path>
                    <path d="M0.952611478,375.547874 L945.060437,375.547874" id="Stroke-450" stroke="#FFFFFF" stroke-width="1.71432" stroke-linecap="round" stroke-linejoin="round"></path>
                    <path d="M792.468499,237.597835 C792.468499,239.688055 794.161126,241.381831 796.24851,241.381831 C798.336528,241.381831 800.02852,239.688055 800.02852,237.597835 C800.02852,235.507616 798.336528,233.813839 796.24851,233.813839 C794.161126,233.813839 792.468499,235.507616 792.468499,237.597835" id="Fill-456" fill="#FFFFFF"></path>
                    <path d="M793.782237,237.597835 C793.782237,238.961243 794.886538,240.066709 796.24851,240.066709 C797.610481,240.066709 798.714782,238.961243 798.714782,237.597835 C798.714782,236.234428 797.610481,235.128962 796.24851,235.128962 C794.886538,235.128962 793.782237,236.234428 793.782237,237.597835" id="Fill-458" fill="#FFFFFF"></path>
                    <path d="M896.628145,287.238657 C896.628145,288.602065 897.732447,289.707531 899.094418,289.707531 C900.45639,289.707531 901.560691,288.602065 901.560691,287.238657 C901.560691,285.87525 900.45639,284.769784 899.094418,284.769784 C897.732447,284.769784 896.628145,285.87525 896.628145,287.238657" id="Fill-462" fill="#FFFFFF"></path>
                    <path d="M539.864331,287.554145 C539.864331,289.644364 541.556959,291.338141 543.644342,291.338141 C545.73236,291.338141 547.424353,289.644364 547.424353,287.554145 C547.424353,285.463925 545.73236,283.770149 543.644342,283.770149 C541.556959,283.770149 539.864331,285.463925 539.864331,287.554145" id="Fill-464" fill="#FFFFFF"></path>
                    <path d="M592.462255,186.771032 C592.462255,188.134439 593.566557,189.239905 594.928528,189.239905 C596.2905,189.239905 597.394801,188.134439 597.394801,186.771032 C597.394801,185.407624 596.2905,184.302158 594.928528,184.302158 C593.566557,184.302158 592.462255,185.407624 592.462255,186.771032" id="Fill-466" fill="#FFFFFF"></path>
                    <path d="M562.486486,225.981838 C562.486486,228.072057 564.179114,229.765834 566.266497,229.765834 C568.354515,229.765834 570.046508,228.072057 570.046508,225.981838 C570.046508,223.891618 568.354515,222.197842 566.266497,222.197842 C564.179114,222.197842 562.486486,223.891618 562.486486,225.981838" id="Fill-468" fill="#FFFFFF"></path>
                    <path d="M513.114632,204.396931 C513.114632,205.760338 514.218933,206.865804 515.580905,206.865804 C516.942876,206.865804 518.047178,205.760338 518.047178,204.396931 C518.047178,203.033523 516.942876,201.928058 515.580905,201.928058 C514.218933,201.928058 513.114632,203.033523 513.114632,204.396931" id="Fill-470" fill="#FFFFFF"></path>
                    <path d="M320.938625,264.825644 C320.938625,266.915864 322.631252,268.60964 324.718636,268.60964 C326.806654,268.60964 328.498646,266.915864 328.498646,264.825644 C328.498646,262.735425 326.806654,261.041648 324.718636,261.041648 C322.631252,261.041648 320.938625,262.735425 320.938625,264.825644" id="Fill-472" fill="#FFFFFF"></path>
                    <path d="M322.252363,264.825644 C322.252363,266.189052 323.356664,267.294518 324.718636,267.294518 C326.080607,267.294518 327.184909,266.189052 327.184909,264.825644 C327.184909,263.462237 326.080607,262.356771 324.718636,262.356771 C323.356664,262.356771 322.252363,263.462237 322.252363,264.825644" id="Fill-474" fill="#FFFFFF"></path>
                    <path d="M176.715159,282.116652 C176.715159,284.206871 178.407786,285.900648 180.495169,285.900648 C182.583187,285.900648 184.27518,284.206871 184.27518,282.116652 C184.27518,280.026432 182.583187,278.332655 180.495169,278.332655 C178.407786,278.332655 176.715159,280.026432 176.715159,282.116652" id="Fill-476" fill="#FFFFFF"></path>
                    <path d="M178.02896,282.116652 C178.02896,283.480059 179.133261,284.585525 180.495233,284.585525 C181.857204,284.585525 182.961506,283.480059 182.961506,282.116652 C182.961506,280.753244 181.857204,279.647778 180.495233,279.647778 C179.133261,279.647778 178.02896,280.753244 178.02896,282.116652" id="Fill-478" fill="#FFFFFF"></path>
                    <path d="M96.1963195,259.037219 C96.1963195,260.400626 97.3006208,261.506092 98.6625925,261.506092 C100.024564,261.506092 101.128865,260.400626 101.128865,259.037219 C101.128865,257.673811 100.024564,256.568345 98.6625925,256.568345 C97.3006208,256.568345 96.1963195,257.673811 96.1963195,259.037219" id="Fill-482" fill="#FFFFFF"></path>
                    <path d="M806.975845,215.622513 C806.975845,220.218454 810.697467,223.944001 815.288568,223.944001 C819.879035,223.944001 823.600657,220.218454 823.600657,215.622513 C823.600657,211.026571 819.879035,207.301025 815.288568,207.301025 C810.697467,207.301025 806.975845,211.026571 806.975845,215.622513" id="Fill-484" fill="#FFFFFF"></path>
                    <path d="M886.048462,343.958265 C886.048462,346.956999 888.476656,349.387753 891.471597,349.387753 C894.467173,349.387753 896.895367,346.956999 896.895367,343.958265 C896.895367,340.959531 894.467173,338.528777 891.471597,338.528777 C888.476656,338.528777 886.048462,340.959531 886.048462,343.958265" id="Fill-486" fill="#FFFFFF"></path>
                    <path d="M111.086673,227.62733 C111.086673,230.626064 113.514866,233.056818 116.510442,233.056818 C119.505384,233.056818 121.933577,230.626064 121.933577,227.62733 C121.933577,224.628595 119.505384,222.197842 116.510442,222.197842 C113.514866,222.197842 111.086673,224.628595 111.086673,227.62733" id="Fill-490" fill="#FFFFFF"></path>
                    <path d="M233.634669,209.36825 C233.634669,213.964192 237.356292,217.689738 241.947393,217.689738 C246.537859,217.689738 250.259481,213.964192 250.259481,209.36825 C250.259481,204.772309 246.537859,201.046763 241.947393,201.046763 C237.356292,201.046763 233.634669,204.772309 233.634669,209.36825" id="Fill-496" fill="#FFFFFF"></path>
                    <path d="M632.456115,358.940279 C632.456115,361.939014 634.884309,364.369768 637.879885,364.369768 C640.874826,364.369768 643.30302,361.939014 643.30302,358.940279 C643.30302,355.941545 640.874826,353.510791 637.879885,353.510791 C634.884309,353.510791 632.456115,355.941545 632.456115,358.940279" id="Fill-498" fill="#FFFFFF"></path>
                </g>
            </g>
        </g>
    </g>
</svg>