<?xml version="1.0" encoding="UTF-8" standalone="no"?>
<svg width="54px" height="54px" viewBox="0 0 54 54" version="1.1" xmlns="http://www.w3.org/2000/svg" xmlns:xlink="http://www.w3.org/1999/xlink">
    <!-- Generator: Sketch 3.8.2 (29753) - http://www.bohemiancoding.com/sketch -->
    <title>icon notif</title>
    <desc>Created with Sketch.</desc>
    <defs></defs>
    <g id="Page-1" stroke="none" stroke-width="1" fill="none" fill-rule="evenodd">
        <g id="Desktop-HD-Copy-2" transform="translate(-547.000000, -634.000000)">
            <g id="pop-up-copy" transform="translate(549.000000, 636.000000)">
                <g id="icon-notif" transform="translate(25.000000, 25.000000) scale(-1, 1) translate(-25.000000, -25.000000) ">
                    <circle id="Oval-36-Copy" stroke="#FFFFFF" stroke-width="4" cx="25" cy="25" r="25"></circle>
                    <path d="M18.088517,12.536702 L17.1742562,11 C12.7490408,13.6328136 10,18.4617843 10,23.6026015 L11.7881103,23.6026015 C11.7881103,19.0890534 14.202238,14.8489075 18.088517,12.536702 M20.1734536,15.490839 L19.3069354,13.9266001 C15.787219,15.8765344 13.6005389,19.5841812 13.6005389,23.6026015 L15.3886493,23.6026015 C15.3886493,20.2341593 17.2221776,17.1258871 20.1734536,15.490839 M30.0066299,13.9266001 L29.1402904,15.490839 C32.0915665,17.1258871 33.924916,20.2341593 33.924916,23.6026015 L35.7130263,23.6026015 C35.7130263,19.5841812 33.526525,15.8765344 30.0066299,13.9266001 M32.1394879,11 L31.2252271,12.536702 C35.111506,14.8489075 37.5256337,19.0890534 37.5256337,23.6026015 L39.3137441,23.6026015 C39.3137441,18.4617843 36.5647033,13.6328136 32.1394879,11 M24.6567826,38.5331438 C26.2533863,38.5331438 27.5476206,37.2389096 27.5476206,35.6423059 L21.7661235,35.6423059 C21.7661235,37.2389096 23.0603578,38.5331438 24.6567826,38.5331438 M34.6702004,31.9151687 L34.6702004,34.0609011 L14.6433649,34.0609011 L14.6433649,31.9151687 C16.4207465,31.9151687 17.8616058,30.4743094 17.8616058,28.6969278 L17.8616058,23.454546 C17.8616058,20.129376 20.2505212,17.3640634 23.4051054,16.7763116 L23.4051054,15.2276292 L25.9084599,15.2276292 L25.9084599,16.7763116 C29.0632229,17.3640634 31.4519595,20.129376 31.4519595,23.454546 L31.4519595,28.6969278 C31.4519595,30.4743094 32.8928187,31.9151687 34.6702004,31.9151687" id="Shape" fill="#FFFFFF"></path>
                </g>
            </g>
        </g>
    </g>
</svg>