<?xml version="1.0" encoding="UTF-8" standalone="no"?>
<svg width="1169px" height="333px" viewBox="0 0 1169 333" version="1.1" xmlns="http://www.w3.org/2000/svg" xmlns:xlink="http://www.w3.org/1999/xlink">
    <!-- Generator: Sketch 3.8.3 (29802) - http://www.bohemiancoding.com/sketch -->
    <title>Group 2</title>
    <desc>Created with Sketch.</desc>
    <defs>
        <rect id="path-1" x="0" y="0" width="1187" height="368"></rect>
        <polygon id="path-3" points="9.59829967 0.502 0.1068 0.502 0.1068 32.6024 9.59829967 32.6024 9.59829967 0.502"></polygon>
        <polygon id="path-5" points="205.644524 140.373243 205.644524 0.148057864 0 0.148057864 3.40465926e-20 140.373243 205.644524 140.373243"></polygon>
    </defs>
    <g id="Page-1" stroke="none" stroke-width="1" fill="none" fill-rule="evenodd">
        <g id="Desktop-HD-Copy-9" transform="translate(-35.000000, -467.000000)">
            <g id="Group-2" transform="translate(31.000000, 432.000000)">
                <mask id="mask-2" fill="white">
                    <use xlink:href="#path-1"></use>
                </mask>
                <g id="Rectangle-15"></g>
                <g id="Page-1" mask="url(#mask-2)">
                    <g transform="translate(473.230738, 286.333680) rotate(4.000000) translate(-473.230738, -286.333680) translate(401.230738, 208.833680)">
                        <path d="M98.0732107,65.59979 C106.303683,60.6068432 118.0599,53.0281576 136.367214,62.1562765 C137.172087,62.5576749 137.19451,63.7240358 136.41029,64.161495 C122.022895,72.1888719 114.195449,72.1693636 98.3517298,67.66176 C97.4093678,67.393964 97.2341132,66.1087798 98.0732107,65.59979" id="Fill-1" stroke="none" fill="#77B4F7" fill-rule="evenodd"></path>
                        <path d="M87.922137,62.149419 C79.7483122,57.0264167 67.6840726,49.9135661 67.1382461,29.1963246 C67.1140527,28.2859365 68.1201436,27.7284715 68.865418,28.2339143 C82.5429436,37.5127793 86.1607403,44.581884 89.5903007,60.9487708 C89.7938792,61.921822 88.7553337,62.6714143 87.922137,62.149419" id="Fill-3" stroke="none" fill="#77B4F7" fill-rule="evenodd"></path>
                        <g id="Group-7" stroke="none" stroke-width="1" fill="none" fill-rule="evenodd" transform="translate(104.444628, 29.118823)">
                            <path d="M0.532490579,13.1688825 C7.57866744,6.56324812 17.5534245,-3.30855145 37.3034906,1.81267735 C38.1715021,2.03731857 38.4281881,3.17471257 37.749003,3.76705602 C25.2911782,14.627277 17.628955,16.2399645 1.21993686,15.1303551 C0.244530248,15.0641451 -0.18564,13.842215 0.532490579,13.1688825" id="Fill-5" fill="#7EB0DF"></path>
                        </g>
                        <path d="M104.258516,30.3946082 C104.944192,21.0566271 103.595263,9.56031678 122.188767,0.0999653457 C122.84789,-0.23522301 123.612637,0.321059605 123.519404,1.06533146 C121.42166,17.8395283 118.939772,20.9833231 105.741984,31.2086371 C105.109415,31.6987096 104.199508,31.2021343 104.258516,30.3946082" id="Fill-8" stroke="none" fill="#77B4F7" fill-rule="evenodd"></path>
                        <path d="M96.9092137,40.1365297 C90.2076451,33.1413201 80.2086947,23.2517857 84.6496567,3.03584883 C84.844974,2.14792482 85.9549195,1.85707355 86.5568038,2.53277071 C97.6013807,14.9223255 99.4152947,22.6718567 98.8157707,39.3869374 C98.7803658,40.3806792 97.5925294,40.84947 96.9092137,40.1365297" id="Fill-10" stroke="none" fill="#77B4F7" fill-rule="evenodd"></path>
                        <path d="M101.355781,42.0745923 C86.9465534,91.5299494 48.0359137,132.850338 0.0869781818,149.614485" id="Stroke-12" stroke="#F2998F" stroke-width="3.29399991" stroke-linecap="round" stroke-linejoin="round" fill="none"></path>
                        <path d="M86.0492147,85.8763801 C96.0676379,84.4972012 112.889714,81.8458435 126.477547,97.5045193 C127.07353,98.1914485 126.64277,99.2809585 125.747615,99.3731796 C109.159801,101.07395 98.7076676,98.2866255 85.5234511,87.8946041 C84.7421817,87.2792054 85.0708577,86.0111648 86.0492147,85.8763801" id="Fill-14" stroke="none" fill="#77B4F7" fill-rule="evenodd"></path>
                        <path d="M77.1649304,81.9774951 C68.2765155,77.0519406 53.157418,69.0505749 51.3069188,48.2665321 C51.2254874,47.3543705 52.207385,46.7371983 52.9833436,47.2030333 C67.3607073,55.8274829 74.1738015,64.3668053 78.7646445,80.6704379 C79.0366726,81.6363951 78.032942,82.4587003 77.1649304,81.9774951" id="Fill-16" stroke="none" fill="#77B4F7" fill-rule="evenodd"></path>
                        <path d="M62.503737,100.74958 C53.8124098,95.4711024 39.0143172,86.8697081 37.9716412,66.0295051 C37.9256147,65.1149788 38.9311155,64.5380055 39.6881916,65.0339897 C53.7209469,74.2283187 60.197694,83.0342547 64.153018,99.5075506 C64.3872808,100.484149 63.3522759,101.265073 62.503737,100.74958" id="Fill-18" stroke="none" fill="#77B4F7" fill-rule="evenodd"></path>
                        <path d="M47.4426446,115.317327 C38.5925851,110.320242 23.5360364,102.197688 21.8472198,81.3994578 C21.7728694,80.4872962 22.7594876,79.877809 23.5319058,80.3495556 C37.842,89.0898728 44.5884149,97.683582 49.0523901,114.023275 C49.3167471,114.991597 48.3071157,115.805035 47.4426446,115.317327" id="Fill-20" stroke="none" fill="#77B4F7" fill-rule="evenodd"></path>
                        <path d="M71.7553478,105.275687 C81.7802618,106.650137 98.7002916,108.635847 107.725016,127.392207 C108.120961,128.215103 107.421123,129.148547 106.533639,128.995436 C90.0874453,126.157862 80.7305048,120.650605 70.721523,107.078728 C70.1284899,106.274158 70.7764007,105.141493 71.7553478,105.275687" id="Fill-24" stroke="none" fill="#77B4F7" fill-rule="evenodd"></path>
                        <path d="M57.0458266,122.197497 C66.3974564,126.133447 82.2647787,132.452369 86.2808812,152.922505 C86.4567258,153.82107 85.5450481,154.541104 84.7254233,154.16217 C69.5302051,147.142131 61.8632613,139.387871 55.5924531,123.67067 C55.2212911,122.739 56.1323787,121.813242 57.0458266,122.197497" id="Fill-26" stroke="none" fill="#77B4F7" fill-rule="evenodd"></path>
                    </g>
                </g>
                <g id="Page-1" mask="url(#mask-2)">
                    <g transform="translate(180.129864, 232.203687) rotate(-18.000000) translate(-180.129864, -232.203687) translate(-90.870136, 53.703687)">
                        <path d="M46.3024098,279.447566 C55.4006016,284.934251 66.314047,286.900045 76.9300655,286.471809 C87.5460841,286.042842 97.9450615,283.341154 108.042227,280.034382 C117.420307,276.96292 126.783041,273.267373 134.502984,267.120795 C146.935718,257.223863 154.139732,241.963747 159.941382,227.535258 C166.333501,211.639365 168.042061,194.096297 164.234706,177.349047 C157.287926,146.798123 136.272199,118.423458 140.436175,87.3712196 C141.754499,77.5407878 145.767934,67.9237434 152.660637,60.7920765 C159.553339,53.6611404 169.455387,49.2384692 179.350858,49.9129777 C194.994632,50.9791834 207.600561,64.3655831 212.695548,79.1945395 C217.789805,94.0242266 216.915063,110.149584 215.979666,125.801397 L213.395634,169.051058 C213.098207,174.033505 219.258669,176.57223 222.563249,172.832106 C244.443487,148.066755 273.767434,129.887179 305.76603,121.564343 C322.615589,117.181134 341.485019,115.717385 356.596056,124.366148 C367.308537,130.497379 375.076712,141.538711 377.228124,153.693018 C379.380267,165.847325 375.874722,178.884413 367.918007,188.320955 C355.65116,202.868562 335.080477,207.490005 316.051737,207.296348 C297.023727,207.102692 278.113373,203.005217 259.107287,203.932575 C247.376101,204.504775 235.15237,207.500235 225.275168,213.584697 C220.297836,216.650312 223.402914,224.369525 229.124178,223.170318 C238.920994,221.118292 248.953121,220.189473 258.960401,220.429168 C273.366237,220.774095 288.378618,223.839711 299.437489,233.078943 C310.495628,242.317444 316.234431,258.960923 309.617963,271.761969 C301.75771,286.970931 280.904947,290.377089 264.320661,286.129805 C247.736375,281.883251 232.992919,272.12882 216.468557,267.654264 C202.159184,263.778946 186.080597,263.732176 171.844302,267.945114 C164.662211,270.070948 157.931742,273.420106 151.414659,277.064498 C145.227158,280.525465 139.278622,282.966265 132.895272,285.889378 C118.44632,292.505847 103.79202,298.862888 88.417172,303.017364 C70.5174846,307.854386 51.4273591,309.606062 33.4334013,305.131506" id="Fill-1" fill="#FEE0D2" transform="translate(205.642042, 178.779364) rotate(-19.000000) translate(-205.642042, -178.779364) "></path>
                        <g id="Page-1" stroke-width="1" fill="none" transform="translate(428.026451, 247.386928) rotate(53.000000) translate(-428.026451, -247.386928) translate(358.526451, 157.886928)">
                            <path d="M37.0088,103.1986 C37.0658,103.1986 37.1218,103.1976 37.1798,103.1946 C38.7498,103.1006 39.9478,101.7516 39.8548,100.1816 C39.7468,98.3486 39.4778,96.5446 39.1208,94.7606 C41.7468,91.8036 44.7498,89.0106 47.9068,86.2636 L49.2408,87.7416 L47.4278,86.6946 L42.0358,96.0346 L44.3498,97.3716 L49.6498,88.1936 L51.7248,90.4926 C43.9308,97.2676 37.1698,104.2276 35.7418,113.0186 C35.1368,116.7436 35.5388,120.5936 35.9648,124.6686 C36.0168,125.1706 36.0698,125.6746 36.1208,126.1816 L30.4878,127.1106 C30.4278,126.4986 30.3648,125.8836 30.2988,125.2596 C29.8538,120.9936 29.3918,116.5796 30.1188,112.1056 C30.7678,108.1106 32.2528,104.5176 34.2958,101.1836 C34.6568,102.3576 35.7418,103.1986 37.0088,103.1986" id="Fill-1" fill="#547DBF"></path>
                            <polygon id="Fill-3" fill="#547DBF" points="54.6907 80.4751 58.5097 84.7061 55.7887 87.0171 51.9697 82.7861"></polygon>
                            <path d="M36.3736,136.1153 C36.1946,137.9503 35.8106,139.7453 35.2776,141.4933 C35.7456,140.0793 35.0516,138.5263 33.6496,137.9613 C32.1926,137.3723 30.5326,138.0793 29.9426,139.5383 C29.1936,141.3983 29.4166,143.5003 30.5376,145.1623 C31.1336,146.0433 31.9416,146.7283 32.8646,147.1843 C28.4646,155.1403 20.5106,161.1673 11.4536,162.6163 C11.3006,162.6413 11.1496,162.6533 10.9996,162.6533 C9.6246,162.6533 8.4146,161.6553 8.1906,160.2543 C7.9416,158.7003 8.9996,157.2403 10.5536,156.9923 C20.8406,155.3453 29.6926,145.9323 30.7036,135.5623 C30.8036,134.5403 30.8336,133.5113 30.8246,132.4733 L36.5046,131.5363 C36.5496,133.0503 36.5236,134.5783 36.3736,136.1153" id="Fill-5" fill="#547DBF"></path>
                            <path d="M79.1387,59.7046 C80.9057,58.2026 82.7187,56.7146 84.5977,55.3776 C84.6077,55.5426 84.6097,55.7076 84.6227,55.8726 C84.7377,57.3676 85.9857,58.5026 87.4597,58.5026 C87.5327,58.5026 87.6067,58.5006 87.6807,58.4956 C89.2497,58.3746 90.4237,57.0046 90.3037,55.4366 C90.2167,54.3106 90.2207,53.1776 90.2977,52.0486 C93.0007,50.8456 95.8647,50.1456 98.9537,50.2996 C104.9217,50.5776 109.9397,54.0236 114.3657,57.0636 L114.5637,57.1996 C115.0487,57.5326 115.5367,57.8636 116.0287,58.1886 L112.1497,62.4476 C111.8767,62.2636 111.6057,62.0796 111.3387,61.8956 L111.1397,61.7596 C107.1557,59.0226 103.0347,56.1916 98.6877,55.9896 C93.1057,55.7516 87.9977,59.6526 82.8277,64.0456 L60.5477,82.9746 L56.7287,78.7436 L79.1387,59.7046 Z" id="Fill-7" fill="#547DBF"></path>
                            <path d="M127.1577,62.3729 C129.2717,62.2629 132.1107,57.2899 133.2657,53.8949 C133.7707,52.4069 135.3847,51.6059 136.8747,52.1099 C138.3647,52.6139 139.1657,54.2299 138.6627,55.7199 C137.9877,57.7179 134.2777,67.7039 127.4567,68.0629 C122.6807,68.3069 118.3077,66.3109 114.4257,63.9179 L118.3307,59.6299 C121.1987,61.3089 124.1657,62.5349 127.1577,62.3729" id="Fill-9" fill="#547DBF"></path>
                            <path d="M36.1949,84.2414 C37.2899,87.6634 38.3999,91.1654 39.1199,94.7604 C37.3019,96.8074 35.6729,98.9374 34.2959,101.1834 C34.2309,100.9704 34.1809,100.7514 34.1669,100.5194 C33.8819,95.7064 32.3709,90.9814 30.7699,85.9774 C30.4379,84.9384 30.1049,83.8934 29.7809,82.8444 L34.6639,79.3024 C35.1359,80.9284 35.6619,82.5734 36.1949,84.2414" id="Fill-11" fill="#547DBF"></path>
                            <path d="M25.575,14.2493 C24.913,12.8233 25.531,11.1293 26.959,10.4663 C28.385,9.8013 30.079,10.4243 30.742,11.8503 C34.399,19.7223 37.714,27.4953 38.937,35.2603 L32.983,34.4493 C31.669,27.8703 28.764,21.1133 25.575,14.2493" id="Fill-13" fill="#547DBF"></path>
                            <path d="M30.6632,60.7386 C31.6512,60.7386 32.6122,60.2226 33.1382,59.3026 C33.9192,57.9366 33.4452,56.1966 32.0782,55.4166 L30.5952,54.5686 C31.4892,52.3846 32.3322,50.3156 32.8862,48.1916 C33.8232,44.6016 33.9152,40.9356 33.4362,37.2096 L39.2792,38.0046 C39.6302,41.8746 39.4122,45.7456 38.3992,49.6296 C37.7402,52.1546 36.7672,54.5306 35.8262,56.8266 C34.7072,59.5586 33.6522,62.1386 33.1612,64.8066 C32.6232,67.7446 32.7792,70.6916 33.3112,73.6796 L28.2592,77.3446 C27.2212,72.9386 26.7072,68.4276 27.5592,63.7796 C27.8002,62.4646 28.1592,61.2046 28.5602,59.9676 L29.2522,60.3626 C29.6982,60.6176 30.1842,60.7386 30.6632,60.7386" id="Fill-15" fill="#547DBF"></path>
                            <path d="M39.8547,100.1816 C39.9477,101.7516 38.7497,103.1006 37.1797,103.1946 C37.1217,103.1976 37.0657,103.1986 37.0087,103.1986 C35.7417,103.1986 34.6567,102.3576 34.2957,101.1836 C35.6727,98.9366 37.3017,96.8076 39.1207,94.7606 C39.4777,96.5446 39.7467,98.3486 39.8547,100.1816" id="Fill-17" fill="#547DBF"></path>
                            <path d="M30.5951,54.5684 C30.5811,54.6024 30.5681,54.6344 30.5541,54.6684 C29.8511,56.3844 29.1511,58.1444 28.5601,59.9674 L8.5781,48.5504 L12.5091,44.2344 L30.5951,54.5684 Z" id="Fill-19" fill="#547DBF"></path>
                            <path d="M0.3757,40.5828 C1.1557,39.2158 2.8987,38.7418 4.2617,39.5228 L10.1307,42.8758 L6.2007,47.1918 L1.4357,44.4688 C0.0697,43.6878 -0.4043,41.9488 0.3757,40.5828" id="Fill-21" fill="#547DBF"></path>
                            <path d="M30.5951,54.5684 L32.0781,55.4164 C33.4451,56.1964 33.9191,57.9364 33.1391,59.3024 C32.6121,60.2224 31.6511,60.7384 30.6631,60.7384 C30.1841,60.7384 29.6981,60.6174 29.2521,60.3624 L28.5601,59.9674 C29.1511,58.1444 29.8511,56.3844 30.5541,54.6684 C30.5681,54.6344 30.5811,54.6024 30.5951,54.5684" id="Fill-23" fill="#547DBF"></path>
                            <g id="Group-27" transform="translate(96.000000, 0.498000)">
                                <mask id="mask-4" fill="white">
                                    <use xlink:href="#path-3"></use>
                                </mask>
                                <g id="Clip-26"></g>
                                <path d="M3.6878,23.8994 C4.3638,21.3164 3.3208,18.3284 2.2168,15.1664 C0.8608,11.2824 -0.6772,6.8794 0.9098,2.4004 C1.4348,0.9174 3.0628,0.1394 4.5448,0.6664 C6.0278,1.1904 6.8038,2.8184 6.2788,4.3024 C5.3628,6.8924 6.4468,10.0004 7.5948,13.2884 C8.8698,16.9394 10.3148,21.0774 9.1988,25.3424 C8.4218,28.3134 6.5918,30.6084 4.6598,32.6024 L0.1068,29.1074 C1.7658,27.4484 3.1898,25.8014 3.6878,23.8994" id="Fill-25" fill="#547DBF" mask="url(#mask-4)"></path>
                            </g>
                            <path d="M92.3044,33.4258 L96.8364,36.9048 C96.8134,36.9298 96.7864,36.9548 96.7624,36.9808 C92.9764,41.0458 90.6754,46.4978 90.2974,52.0478 C88.3184,52.9288 86.4244,54.0768 84.5984,55.3768 C84.1284,47.4538 86.9834,39.3188 92.3044,33.4258" id="Fill-28" fill="#547DBF"></path>
                            <path d="M90.3034,55.4368 C90.4234,57.0048 89.2494,58.3738 87.6804,58.4948 C87.6064,58.5008 87.5324,58.5028 87.4594,58.5028 C85.9854,58.5028 84.7384,57.3678 84.6224,55.8728 C84.6104,55.7078 84.6074,55.5418 84.5984,55.3768 C86.4244,54.0778 88.3184,52.9288 90.2974,52.0478 C90.2204,53.1778 90.2164,54.3098 90.3034,55.4368" id="Fill-30" fill="#547DBF"></path>
                            <path d="M61.1763,157.2895 L60.2143,158.1465 C59.1533,159.0905 58.9503,160.6725 59.7383,161.8555 C60.2813,162.6705 61.1833,163.1235 62.1093,163.1235 C62.5263,163.1235 62.9483,163.0315 63.3453,162.8395 L65.0103,162.0355 C65.3883,161.8535 65.7013,161.5945 65.9533,161.2925 L69.7063,164.4365 C72.6343,166.8875 76.5933,167.8065 80.3013,166.8865 L88.8823,164.7635 C90.1273,164.4555 91.4103,164.5495 92.5903,165.0285 L103.9413,169.6305 L101.0653,174.6115 L90.4463,170.3065 C90.3863,170.2815 90.3133,170.2765 90.2483,170.2935 L81.6693,172.4175 C76.2043,173.7675 70.3643,172.4195 66.0473,168.8035 L49.5343,154.9675 L53.3733,150.7525 L61.1763,157.2895 Z" id="Fill-32" fill="#547DBF"></path>
                            <path d="M35.2274,141.6677 C35.2114,141.7077 35.1624,141.8297 35.2604,141.9737 C35.3574,142.1187 35.4874,142.1187 35.5314,142.1187 L40.8764,142.1187 C42.2904,142.1187 43.6634,142.6177 44.7464,143.5257 L51.3234,149.0347 L47.4834,153.2497 L41.0884,147.8927 C41.0294,147.8427 40.9544,147.8147 40.8764,147.8147 L35.5314,147.8147 C34.5904,147.8147 33.6824,147.5887 32.8644,147.1847 C33.8644,145.3767 34.6754,143.4707 35.2784,141.4937 C35.2594,141.5517 35.2504,141.6107 35.2274,141.6677" id="Fill-34" fill="#547DBF"></path>
                            <path d="M112.2755,173.0088 C113.7335,173.6008 114.4365,175.2608 113.8455,176.7188 C113.3965,177.8268 112.3295,178.4978 111.2045,178.4978 C110.8485,178.4978 110.4865,178.4308 110.1355,178.2888 L103.5665,175.6258 L106.4425,170.6438 L112.2755,173.0088 Z" id="Fill-36" fill="#547DBF"></path>
                            <path d="M30.5379,145.1619 C29.4169,143.4999 29.1929,141.3989 29.9429,139.5389 C30.5329,138.0799 32.1929,137.3729 33.6499,137.9609 C35.0509,138.5259 35.7459,140.0789 35.2779,141.4939 C34.6759,143.4699 33.8639,145.3769 32.8649,147.1849 C31.9409,146.7289 31.1329,146.0429 30.5379,145.1619" id="Fill-38" fill="#547DBF"></path>
                            <path d="M73.9045,145.9583 C75.0775,144.9133 76.8775,145.0193 77.9265,146.1923 C78.9725,147.3673 78.8675,149.1683 77.6915,150.2143 L66.5395,160.1433 C66.4365,160.5643 66.2345,160.9553 65.9535,161.2923 L61.1765,157.2893 L73.9045,145.9583 Z" id="Fill-40" fill="#547DBF"></path>
                            <path d="M65.0104,162.0359 L63.3454,162.8399 C62.9474,163.0319 62.5264,163.1229 62.1084,163.1229 C61.1824,163.1229 60.2814,162.6699 59.7384,161.8549 C58.9504,160.6729 59.1534,159.0909 60.2144,158.1459 L61.1764,157.2899 L65.9534,161.2919 C65.7014,161.5939 65.3884,161.8529 65.0104,162.0359" id="Fill-42" fill="#547DBF"></path>
                            <path d="M49.743,88.0312 L49.241,87.7412 L47.907,86.2632 C48.675,85.5952 49.448,84.9292 50.231,84.2642 L51.97,82.7862 L55.788,87.0172 L53.92,88.6052 C53.181,89.2332 52.449,89.8632 51.724,90.4932 L49.649,88.1932 L49.743,88.0312 Z" id="Fill-44" fill="#2E5CA7"></path>
                            <path d="M36.5049,131.5361 L30.8249,132.4731 C30.8089,130.7211 30.6679,128.9391 30.4879,127.1101 L36.1209,126.1811 C36.2979,127.9431 36.4519,129.7301 36.5049,131.5361" id="Fill-46" fill="#2E5CA7"></path>
                            <polygon id="Fill-48" fill="#2E5CA7" points="56.7287 78.7435 60.5477 82.9745 58.5097 84.7055 54.6907 80.4755"></polygon>
                            <path d="M34.6635,79.3022 L29.7815,82.8442 C29.2215,81.0282 28.6945,79.1952 28.2595,77.3442 L33.3105,73.6792 C33.6405,75.5352 34.1135,77.4062 34.6635,79.3022" id="Fill-50" fill="#2E5CA7"></path>
                            <path d="M92.5937,33.0975 C93.3407,32.2955 94.1287,31.5325 94.8917,30.7965 C95.3057,30.3955 95.7107,30.0005 96.1067,29.6045 L100.6607,33.1005 C100.0577,33.7225 99.4457,34.3165 98.8517,34.8905 C98.1367,35.5825 97.4627,36.2375 96.8367,36.9045 L92.3047,33.4255 C92.4017,33.3175 92.4947,33.2045 92.5937,33.0975" id="Fill-52" fill="#2E5CA7"></path>
                            <polygon id="Fill-54" fill="#547DBF" points="10.7978 42.1438 12.7738 43.9438 12.5088 44.2348 10.1308 42.8758"></polygon>
                            <polygon id="Fill-56" fill="#2E5CA7" points="12.509 44.2345 8.578 48.5505 6.2 47.1915 10.131 42.8755"></polygon>
                            <path d="M118.3312,59.6303 L114.4252,63.9183 C113.6482,63.4383 112.8882,62.9443 112.1502,62.4473 L116.0292,58.1883 C116.7882,58.6903 117.5562,59.1763 118.3312,59.6303" id="Fill-58" fill="#2E5CA7"></path>
                            <polygon id="Fill-60" fill="#2E5CA7" points="53.3734 150.7527 49.5334 154.9677 47.4834 153.2497 51.3224 149.0347"></polygon>
                            <path d="M32.9829,34.4497 L38.9369,35.2607 C39.0809,36.1757 39.1969,37.0897 39.2799,38.0047 L33.4369,37.2087 C33.3189,36.2927 33.1679,35.3727 32.9829,34.4497" id="Fill-62" fill="#2E5CA7"></path>
                            <polygon id="Fill-64" fill="#2E5CA7" points="106.4425 170.6442 103.5665 175.6252 101.0655 174.6112 103.9415 169.6302"></polygon>
                            <polygon id="Fill-66" fill="#547DBF" points="44.3502 97.3714 42.0362 96.0354 47.4282 86.6944 49.2412 87.7414 49.6492 88.1934"></polygon>
                            <polygon id="Fill-68" fill="#547DBF" points="49.6493 88.1935 49.2413 87.7415 49.7433 88.0315"></polygon>
                        </g>
                    </g>
                </g>
                <path d="M834.729655,324.264246 C838.118379,318.54305 842.064592,313.150009 846.522655,308.201646 C856.747407,296.853098 869.605035,287.909685 883.749105,282.07049 C886.737409,280.836683 889.782875,279.741905 892.873052,278.791783 C901.340478,276.189081 907.645911,275.390371 916.157483,277.255153 C924.850729,279.159336 932.944051,283.708437 936.800547,292.07885 C940.314067,299.705151 939.001591,309.578422 932.842743,315.310109 C926.931222,320.811583 918.117991,321.733561 910.024103,321.530365 C904.102961,321.381768 897.285328,319.470268 891.663016,322.12194 C882.084598,326.638394 884.491654,335.924594 880.335195,343.832329 C876.328718,351.454127 868.748162,357.393512 860.074724,358.562027 C855.922794,359.120955 851.582962,358.732576 847.654022,360.178021 C841.611763,362.401351 837.656223,368.173564 834.758474,373.505615 C834.427433,374.11485 834.071096,374.722079 833.681996,375.306339 C832.480915,377.840706 830.853222,379.608932 828.640855,379.566422 C822.270918,381.995768 820.664161,376.608443 820.6446,370.516852 C819.271309,364.637337 816.993409,358.082697 811.791212,354.366238 C808.388621,351.935211 804.100858,351.164644 800.247192,349.530075 C792.196318,346.114591 786.472132,338.388099 784.642928,329.981662 C782.745808,321.260583 787.543507,312.942516 779.514139,306.059764 C774.80077,302.019496 767.717698,302.0634 761.96861,300.643846 C754.11073,298.704203 745.859504,295.489099 741.627772,288.624922 C737.219458,281.473118 738.588531,271.607728 744.010491,265.182024 C749.962195,258.129286 758.979174,255.879502 767.868811,256.337676 C776.572811,256.786282 782.439054,259.220124 789.908681,263.963977 C792.634376,265.69536 795.278572,267.555077 797.830515,269.532995 C804.806859,274.940353 811.093026,281.232555 816.474887,288.211609 C816.910592,283.512841 817.744664,278.851273 818.983458,274.293172 C822.267762,262.21008 828.377371,250.923447 836.584452,241.441932 C838.318008,239.438684 840.145514,237.515927 842.059613,235.683791 C847.304425,230.662444 851.633503,227.759169 858.570555,225.999081 C865.65589,224.201842 873.283422,224.564329 879.222675,229.287919 C884.633881,233.59161 887.339201,241.316976 884.950822,247.785457 C882.658092,253.993893 876.535466,257.909204 870.522071,260.73424 C866.122813,262.801655 860.411078,263.904313 857.271096,267.915875 C851.922712,274.749658 857.13866,280.677786 857.02773,288.00633 C856.920763,295.070325 853.566279,302.213123 847.637213,306.257894 C844.799457,308.19416 841.471007,309.503955 839.125642,312.008155 C836.055426,315.286269 835.049918,319.895936 834.729655,324.264246 Z" id="Combined-Shape" fill="#FFFFFF" opacity="0.3" mask="url(#mask-2)"></path>
                <g id="Page-1" mask="url(#mask-2)">
                    <g transform="translate(522.000000, 315.000000)">
                        <polygon id="Fill-1" fill="#4C88E8" points="0 26.2413 0.473 53.8573 45.113 53.8573 21.152 11.6583"></polygon>
                        <polygon id="Fill-2" fill="#265FBA" points="75.2841 0 21.3641 11.659 45.1121 53.857 111.5611 53.857 111.5611 32.324"></polygon>
                    </g>
                </g>
                <g id="Page-1" mask="url(#mask-2)" fill="#77B4F7">
                    <g transform="translate(794.000000, 125.000000)" id="Fill-1">
                        <path d="M-6.96397658e-14,32.8652654 C0.00806481481,27.7964734 3.95051852,24.0121064 7.85450926,22.5116446 C10.279537,21.5785896 12.8118889,21.3209596 15.1593704,21.2849535 C14.8169259,20.2873358 14.1165278,19.0041523 13.060037,17.4434734 C9.31610185,11.9140514 8.68828704,7.2674 11.1927222,3.63202385 C14.2554907,-0.812869113 20.4331389,-0.827768196 24.4004074,1.70445505 C27.8428426,3.90206972 29.7070556,7.39031743 31.20525,10.1932073 C34.0018796,15.4234061 41.6231296,26.2513144 46.0079074,31.8844092 C60.3967778,38.0433174 74.2273148,45.4885131 87.3717222,54.1107364 C87.3748241,54.1094948 87.3760648,54.1094948 87.3791667,54.1082532 C88.1056204,52.2098618 87.975963,49.7614459 87.8512685,47.4011829 L86.9256759,29.8618587 C86.7569352,26.658556 86.5652407,23.028767 87.597537,19.4300177 C88.9077593,14.8634489 92.0282222,11.4285896 95.944,10.2410086 C98.8975833,9.34023486 102.072019,9.80645199 104.910833,11.5304 C108.47238,13.6932502 111.174093,17.6390239 111.960102,21.8275284 C112.92788,26.9850942 111.735528,31.8446783 110.582259,36.5428557 C110.362028,37.441767 110.141796,38.3375743 109.940176,39.2302777 C107.573463,49.7024703 107.757713,60.6545376 110.455083,71.0348526 C125.706269,83.4768281 139.774407,97.6346813 152.411352,113.301067 C157.101352,92.3908251 159.479231,70.9796018 159.474269,49.542926 L159.473648,48.9252349 C159.469306,43.8545804 159.463722,38.1066385 161.844704,32.9049963 C164.504852,27.0931125 171.185,21.9100942 178.325463,23.7513725 C184.799028,25.4219321 188.943102,32.039608 189.694991,41.907767 C191.04988,59.6947884 186.453556,77.2018312 182.008602,94.1321554 C177.412898,111.636094 173.057898,128.23988 174.745926,145.005694 C176.37812,147.672629 177.975574,150.369984 179.533324,153.09962 C187.190556,166.517486 193.744148,179.711865 200.149472,194.604739 C201.341204,197.375348 200.202824,200.897739 197.489324,202.211963 C197.177278,202.363437 196.859028,202.485113 196.537676,202.57699 C193.809907,203.356088 190.862528,202.004617 189.712361,199.327128 C183.454685,184.75955 177.059907,171.876189 169.588167,158.782379 C168.305241,156.533859 166.986333,154.315758 165.650676,152.111935 C158.062306,147.465905 151.0515,147.893012 141.935778,148.45421 C139.415833,148.609409 136.810278,148.769574 134.003722,148.837862 C119.407028,149.191715 104.560944,149.652345 90.2030926,150.096213 C84.7401111,150.265691 79.27775,150.434547 73.8147685,150.599057 C67.7456852,150.78095 60.2137685,151.007541 53.6347407,147.779406 C50.7636667,146.370822 48.2666759,144.255152 46.4266574,141.63788 C43.1374537,136.961431 42.3936296,131.707021 44.2770741,127.227363 C46.2448889,122.542843 51.9901389,117.837217 60.3880926,117.88688 C65.336787,117.916057 69.8716944,119.414036 74.2583333,120.86173 C74.9841667,121.101978 75.7093796,121.340984 76.4339722,121.573161 C98.4434722,128.604287 122.309741,128.523583 144.242315,121.436587 C130.907454,104.760788 115.895731,89.8554979 99.5322222,76.9802073 C93.9265556,76.3637578 88.2160463,76.5760697 82.6959907,77.6276966 C76.0257685,78.8966018 69.8412963,81.3251523 62.4502037,84.3658067 C57.2794167,86.4988587 48.9118611,87.2642991 42.7565463,83.9269046 C38.9642222,81.8708312 36.1880648,78.2702196 35.330713,74.2952685 C34.3610741,69.7994703 35.9039352,65.0541125 39.2601389,62.2059046 C42.1287315,59.771767 46.2393056,58.7319352 50.8356296,59.2769933 C53.1278981,59.5482807 55.253287,60.1380361 57.3091944,60.7085468 C58.3266019,60.9903878 59.2875556,61.2573297 60.2478889,61.4814367 C65.798963,62.7733113 71.6211389,62.6150086 77.0878426,61.1219963 C65.8833333,54.0623144 54.1794259,47.8940942 42.0654537,42.6732073 C41.2639352,42.6185774 40.2130278,42.5447028 38.8004444,42.4435131 C37.1943056,42.3286661 35.0236296,42.1722257 34.4628148,42.1504979 C33.0223148,42.2386508 31.5501759,42.2777609 30.1251852,42.3150086 C27.2938148,42.3901248 24.3656667,42.4677242 21.7923704,42.9376661 C21.2253519,43.0419596 20.6632963,43.1661187 20.1012407,43.2902777 C18.9181944,43.5522532 17.6942037,43.8222991 16.3399352,43.9576324 C15.0123426,44.0904826 13.8969167,44.131455 12.8261574,44.086137 C12.1015648,44.0550972 11.4315648,43.9079688 10.8943241,43.7900177 C10.6889815,43.7446997 10.3905833,43.6788954 10.2441759,43.6596508 L9.71313889,43.7037272 L9.10021296,43.5410789 C4.57150926,42.341082 -0.00868518519,38.2891523 -6.96397658e-14,32.8652654"></path>
                    </g>
                </g>
                <g id="Page-1" mask="url(#mask-2)">
                    <g transform="translate(218.000000, 257.000000)">
                        <g id="Group-3" stroke-width="1" fill="none" transform="translate(0.000000, 0.478773)">
                            <mask id="mask-6" fill="white">
                                <use xlink:href="#path-5"></use>
                            </mask>
                            <g id="Clip-2"></g>
                            <path d="M172.754866,42.053344 C185.945146,44.5719173 197.371866,53.6278773 202.505537,66.0997973 C208.268512,80.1001573 205.834823,96.8465707 197.349884,109.392437 C186.456378,125.499651 168.031311,131.876611 150.02264,136.533997 C128.937787,141.985997 106.719933,140.744571 85.0836524,138.239784 C68.5395915,136.324064 51.7807378,133.600571 36.847622,126.240371 C0.482969512,108.316451 -11.651561,56.1351707 12.655811,23.341704 C28.9649817,1.33881067 62.4983902,-7.15816267 85.77325,7.32097067 C100.267988,16.3380773 110.044823,32.685304 126.218963,38.1648773 C140.892695,43.136224 157.407238,39.216424 172.521232,42.0094773 C172.59911,42.0238907 172.676988,42.038304 172.754866,42.053344" id="Fill-1" fill="#61BEB0" mask="url(#mask-6)"></path>
                        </g>
                        <path d="M127.225412,124.001165 C126.375662,124.001165 125.667851,123.335645 125.625143,122.479619 C125.154735,112.924205 119.038796,103.447752 108.845564,96.4810987 C93.8873262,86.2576587 76.3019604,80.8169387 56.5768323,80.306832 C48.4046616,80.096272 40.4510518,79.667632 32.9929726,76.772432 C24.3899604,73.433552 18.1220335,67.0233787 16.2278384,59.624952 C16.0086494,58.7689253 16.5261616,57.8984853 17.3840762,57.679152 C18.2413628,57.4623253 19.1149787,57.9774453 19.3347957,58.833472 C20.973375,65.2336187 26.5146494,70.8247387 34.1561189,73.790752 C41.1324848,76.4985787 48.7821189,76.9052853 56.6603628,77.108952 C77.0135396,77.6340987 95.1811067,83.2634453 110.657485,93.840952 C121.685393,101.377872 128.308168,111.759232 128.828192,122.322952 C128.871527,123.205299 128.189466,123.956045 127.305174,123.999285 C127.278796,124.000539 127.25179,124.001165 127.225412,124.001165" id="Fill-4" fill="#93E4C8"></path>
                        <path d="M71.9061841,81.7850133 C71.6380073,81.7850133 71.3666902,81.71796 71.1160988,81.5763333 C61.9748488,76.4032 54.5896232,68.2772133 50.3207756,58.69548 C46.0513,49.11312 44.9540988,38.19784 47.2301476,27.96124 C47.4217024,27.0989467 48.2745927,26.5506133 49.1425561,26.7461333 C50.0073793,26.9372667 50.5525256,27.79204 50.3603427,28.6543333 C48.2325134,38.2272933 49.2581171,48.43444 53.2512512,57.3957733 C57.2425012,66.35648 64.1491537,73.95544 72.6987817,78.7933067 C73.4687695,79.22884 73.7388305,80.2051867 73.3023366,80.9741067 C73.0071537,81.4929867 72.4645195,81.7850133 71.9061841,81.7850133" id="Fill-6" fill="#93E4C8"></path>
                        <path d="M130.743427,119.839723 C130.014262,119.839723 129.354811,119.340269 129.182726,118.600803 C127.965567,113.373776 126.964457,107.853469 129.195287,102.881496 C131.838744,96.9889493 138.086573,93.9972427 143.848921,91.8471493 C145.56475,91.2079493 147.317006,90.5869227 149.011482,89.986576 C154.462317,88.0564427 160.099055,86.0605093 165.127213,83.1853627 C172.4735,78.9854427 177.487841,73.2495627 179.24575,67.035536 C179.485665,66.185776 180.371841,65.6907093 181.224104,65.9307227 C182.076366,66.1701093 182.571896,67.0549627 182.331982,67.9047227 C180.344835,74.929656 174.800421,81.342336 166.721829,85.9608693 C161.443707,88.9795227 155.668799,91.0249627 150.083561,93.0027227 C148.401646,93.598056 146.662579,94.2134427 144.971872,94.844496 C139.830665,96.7627227 134.28311,99.3727893 132.121994,104.188723 C130.29814,108.254536 131.213207,113.180136 132.30664,117.877629 C132.506988,118.738043 131.970006,119.597829 131.107067,119.798363 C130.985854,119.826563 130.863384,119.839723 130.743427,119.839723" id="Fill-8" fill="#93E4C8"></path>
                        <path d="M151.527948,92.3642747 C151.055655,92.3642747 150.588387,92.1574747 150.27185,91.760168 C149.720423,91.0689547 149.835984,90.0619013 150.528722,89.5123147 C154.631137,86.2580347 156.492673,81.346848 157.332374,77.799288 C158.43774,73.1281147 158.484216,68.1705547 158.529435,63.3753013 C158.5376,62.4973413 159.254204,61.791088 160.132216,61.791088 L160.148545,61.791088 C161.033466,61.7992347 161.745045,62.522408 161.736252,63.406008 C161.689777,68.3761013 161.641417,73.5153947 160.453149,78.5349947 C159.497259,82.574488 157.346191,88.1925547 152.524661,92.0164747 C152.229478,92.250848 151.877771,92.3642747 151.527948,92.3642747" id="Fill-10" fill="#93E4C8"></path>
                    </g>
                </g>
                <g id="Page-1" mask="url(#mask-2)">
                    <g transform="translate(688.000000, 293.500000) scale(-1, 1) translate(-688.000000, -293.500000) translate(625.000000, 218.000000)">
                        <path d="M63.225743,31.2613143 C63.225743,48.507037 77.2011725,62.4874375 94.4407631,62.4874375 C111.679931,62.4874375 125.65536,48.507037 125.65536,31.2613143 C125.65536,14.0155916 111.679931,0.0351910364 94.4407631,0.0351910364 C77.2011725,0.0351910364 63.225743,14.0155916 63.225743,31.2613143 L63.225743,31.2613143 Z" id="Stroke-1" stroke="#77B4F8" stroke-width="3" stroke-linecap="round" stroke-linejoin="round" fill="none"></path>
                        <path d="M32.8261289,67.8668866 C26.1510886,58.1339426 25.3574577,33.8225196 25.3574577,33.8225196 C25.3574577,33.8225196 48.5583705,41.1030882 56.142894,50.1449006 C63.0826188,58.4177549 65.2432228,64.7567941 56.5103235,74.8391106 C45.5910282,79.7984244 38.9333235,76.7725028 32.8261289,67.8668866" id="Fill-3" stroke="none" fill="#77B4F8" fill-rule="evenodd"></path>
                        <path d="M33.4205698,43.4759877 C35.8462812,44.9635703 37.8140799,46.1728392 38.5929121,48.4577188 C39.1282007,50.0290493 39.064355,51.7589933 39.5159255,53.3561249 C40.1044893,55.4367104 41.5505295,57.2647832 43.4511,58.2947132 C45.2662611,59.2781165 47.6167107,59.5754639 48.892355,61.1988196 C50.4529792,63.1846599 50.0652544,65.8476739 51.7641403,68.084335 L58.8789121,77.4522566" id="Stroke-5" stroke="#225CBD" stroke-width="3" stroke-linecap="round" stroke-linejoin="round" fill="none"></path>
                        <path d="M87.2028242,68.1996787 C98.9161732,69.6191633 117.68214,85.0871465 117.68214,85.0871465 C117.68214,85.0871465 96.8891799,97.6967039 85.0933812,97.4175443 C74.3005087,97.1620709 68.1163611,94.5954938 66.3219181,81.3760148 C69.8156698,69.9004378 76.4852134,66.9011633 87.2028242,68.1996787" id="Fill-7" stroke="none" fill="#77B4F8" fill-rule="evenodd"></path>
                        <path d="M105.11123,84.7626022 C102.392082,85.6009272 100.184545,86.2797927 97.9554443,85.3543361 C96.4227262,84.7181905 95.1669544,83.5275322 93.6701758,82.8110224 C91.7201356,81.8779524 89.3929409,81.7557143 87.3642564,82.5026779 C85.4269007,83.215381 83.6510617,84.7841737 81.5898201,84.6691261 C79.0685517,84.5287003 77.3269611,82.4781457 74.5262094,82.2755434 L62.7959477,81.4283361" id="Stroke-9" stroke="#225CBD" stroke-width="3" stroke-linecap="round" stroke-linejoin="round" fill="none"></path>
                        <path d="M72.2079362,111.896033 C83.9212852,113.315518 102.687252,128.783501 102.687252,128.783501 C102.687252,128.783501 81.8942919,141.393059 70.0984933,141.113899 C59.3056208,140.858425 53.1214732,138.291848 51.3270302,125.072369 C54.8207819,113.596792 61.4903255,110.597518 72.2079362,111.896033" id="Fill-11" stroke="none" fill="#FFF4E6" fill-rule="evenodd"></path>
                        <path d="M90.1162993,128.458957 C87.3971517,129.297282 85.1896148,129.976147 82.9605141,129.050691 C81.427796,128.414545 80.1720242,127.223887 78.6752456,126.507377 C76.7252054,125.574307 74.3980107,125.452069 72.3693262,126.199032 C70.4319705,126.911736 68.6561315,128.480528 66.5948899,128.365481 C64.0736215,128.225055 62.3320309,126.1745 59.5312792,125.971898 L47.8010174,125.124691" id="Stroke-13" stroke="#77B4F8" stroke-width="3" stroke-linecap="round" stroke-linejoin="round" fill="none"></path>
                        <path d="M15.1492168,120.27463 C6.40194161,112.353263 4.22818794e-05,88.8873555 4.22818794e-05,88.8873555 C4.22818794e-05,88.8873555 24.2554651,90.5931902 33.7278745,97.6309745 C42.3948141,104.07068 45.9642503,109.736776 39.8037805,121.568916 C30.3296799,128.923504 23.1527537,127.52263 15.1492168,120.27463" id="Fill-15" stroke="none" fill="#FFF4E6" fill-rule="evenodd"></path>
                        <path d="M10.0791966,96.4094818 C12.7835456,97.2947563 14.9779752,98.0146499 16.2646128,100.057168 C17.1491497,101.461426 17.4878275,103.159224 18.2966799,104.608317 C19.3511899,106.496028 21.1811497,107.939199 23.268606,108.500479 C25.2621966,109.036804 27.6172973,108.780908 29.2345792,110.064619 C31.2125255,111.635104 31.4518409,114.315459 33.6221698,116.097429 L42.7131966,123.561566" id="Stroke-17" stroke="#77B4F8" stroke-width="3" stroke-linecap="round" stroke-linejoin="round" fill="none"></path>
                        <path d="M90.0226027,40.3611157 C60.1923141,68.7135863 42.7421597,109.672231 42.9565289,150.8339" id="Stroke-19" stroke="#FF9C8F" stroke-width="5" stroke-linecap="round" stroke-linejoin="round" fill="none"></path>
                        <path d="M119.214815,31.2613143 C119.214815,44.9485972 108.12301,56.0443479 94.440594,56.0443479 C80.7581779,56.0443479 69.6663725,44.9485972 69.6663725,31.2613143 C69.6663725,17.5740314 80.7581779,6.47828067 94.440594,6.47828067 C108.12301,6.47828067 119.214815,17.5740314 119.214815,31.2613143" id="Fill-21" stroke="none" fill="#77B4F8" fill-rule="evenodd"></path>
                    </g>
                </g>
                <g id="Page-1" mask="url(#mask-2)">
                    <g transform="translate(904.000000, 35.000000)">
                        <polygon id="Fill-1" fill="#537EBF" points="141.819517 121.963759 125.506502 128.579121 127.22023 132.80415 143.666858 126.135225"></polygon>
                        <polygon id="Fill-2" fill="#537EBF" points="146.292187 132.065173 129.657726 138.810893 145.704807 178.366899 161.962958 167.458102"></polygon>
                        <polygon id="Fill-3" fill="#537EBF" points="113.446889 57.8817391 100.381244 66.6486587 124.527063 126.164975 140.764558 119.579944"></polygon>
                        <polygon id="Fill-4" fill="#537EBF" points="99.6443083 26.7079671 88.5667168 37.5264168 95.5558882 54.7537203 107.552632 44.5702834"></polygon>
                        <polygon id="Fill-5" fill="#537EBF" points="108.652904 47.0541901 96.5870944 57.2957075 99.8809383 65.4153528 112.911083 56.6723108"></polygon>
                        <polygon id="Fill-6" fill="#537EBF" points="162.498312 168.667724 146.205306 179.599753 161.489439 217.273307 178.858447 205.619144"></polygon>
                        <polygon id="Fill-7" fill="#537EBF" points="166.060414 228.54046 181.128314 265.68032 200.429865 254.338501 183.751513 216.670109"></polygon>
                        <polygon id="Fill-8" fill="#537EBF" points="179.929672 208.03813 162.489663 219.739402 163.570829 222.404004 181.087004 210.65175"></polygon>
                        <path d="M96.5870299,57.2958366 L95.5555655,54.7538494" id="Fill-9" fill="#7EB0E0"></path>
                        <polygon id="Fill-10" fill="#7EB0E0" points="107.552761 44.5700898 95.5553719 54.7535267 96.5868362 57.2955139 108.652645 47.0539965"></polygon>
                        <polygon id="Fill-11" fill="#7EB0E0" points="140.764235 119.580137 124.52674 126.164523 125.506566 128.579379 141.819582 121.964017"></polygon>
                        <polygon id="Fill-12" fill="#7EB0E0" points="143.666536 126.134902 127.220553 132.804473 129.65721 138.811281 146.292316 132.064915"></polygon>
                        <polygon id="Fill-13" fill="#7EB0E0" points="178.858705 205.619015 161.489697 217.273178 162.490179 219.739661 179.929543 208.038388"></polygon>
                        <polygon id="Fill-14" fill="#7EB0E0" points="161.962699 167.458231 145.705195 178.366383 146.205435 179.599624 162.498441 168.667595"></polygon>
                        <path d="M100.381373,66.6484005 L99.881132,65.4151592 L100.381373,66.6484005 Z" id="Fill-15" fill="#7EB0E0"></path>
                        <polygon id="Fill-16" fill="#7EB0E0" points="112.911212 56.6722463 99.8810674 65.4152883 100.381308 66.6485296 113.446954 57.8816101"></polygon>
                        <polygon id="Fill-17" fill="#7EB0E0" points="181.086746 210.651556 163.571216 222.404456 166.060156 228.540331 183.7519 216.66998"></polygon>
                        <polygon id="Fill-18" fill="#537EBF" points="140.924441 36.2365148 134.865395 34.0868932 134.308353 35.6563558 140.4171 37.8234015"></polygon>
                        <polygon id="Fill-19" fill="#537EBF" points="139.695011 40.0792457 133.516552 37.8870318 128.301783 52.5788015 135.38713 53.5429367"></polygon>
                        <polygon id="Fill-20" fill="#537EBF" points="148.724326 11.8589931 143.029971 11.0839419 135.183613 33.1900022 141.214904 35.3299437"></polygon>
                        <polygon id="Fill-21" fill="#537EBF" points="146.868981 0.267750823 144.597565 6.66627916 150.344202 6.79470146 152.518798 -6.45338209e-05"></polygon>
                        <polygon id="Fill-22" fill="#537EBF" points="150.042186 7.7400574 144.263275 7.61034442 143.192436 10.6260099 148.8713 11.399125"></polygon>
                        <polygon id="Fill-23" fill="#537EBF" points="135.239898 54.003321 128.13906 53.0372497 123.172152 67.0301181 130.742249 68.0600779"></polygon>
                        <polygon id="Fill-24" fill="#537EBF" points="121.686986 71.2148782 116.790434 85.0096278 124.812361 86.5939331 129.397149 72.2641982"></polygon>
                        <polygon id="Fill-25" fill="#537EBF" points="130.447849 68.9802656 122.847415 67.9457885 122.495633 68.9357373 130.129631 69.9747318"></polygon>
                        <path d="M144.263275,7.61021536 L144.597629,6.66608556 L144.263275,7.61021536 Z" id="Fill-26" fill="#7EB0E0"></path>
                        <polygon id="Fill-27" fill="#7EB0E0" points="150.344461 6.79502413 144.598468 6.66595649 144.262823 7.61008629 150.04238 7.73979927"></polygon>
                        <polygon id="Fill-28" fill="#7EB0E0" points="141.214581 35.3298146 135.183935 33.1898731 134.865072 34.0868932 140.924118 36.2365148"></polygon>
                        <polygon id="Fill-29" fill="#7EB0E0" points="140.416842 37.8233369 134.308094 35.6562912 133.516746 37.8872254 139.695204 40.0794393"></polygon>
                        <polygon id="Fill-30" fill="#7EB0E0" points="130.742313 68.0600779 123.172217 67.0301181 122.847544 67.945853 130.447978 68.9803302"></polygon>
                        <polygon id="Fill-31" fill="#7EB0E0" points="135.387066 53.5431949 128.301719 52.5790596 128.13906 53.0372497 135.239898 54.003321"></polygon>
                        <path d="M143.029971,11.0840064 L143.19263,10.6264616 L143.029971,11.0840064 Z" id="Fill-32" fill="#7EB0E0"></path>
                        <polygon id="Fill-33" fill="#7EB0E0" points="148.871493 11.3988024 143.19263 10.6263325 143.029971 11.0838773 148.724326 11.8589285"></polygon>
                        <polygon id="Fill-34" fill="#7EB0E0" points="130.12976 69.9744737 122.495762 68.9354792 121.686986 71.2148137 129.397149 72.2641336"></polygon>
                        <polygon id="Fill-35" fill="#537EBF" points="129.208026 14.811738 127.157361 16.1772737 127.511725 16.708387 129.578527 15.3318806"></polygon>
                        <polygon id="Fill-36" fill="#537EBF" points="130.105361 16.0708574 128.014677 17.4634973 131.32724 22.4351828 133.249456 20.4823894"></polygon>
                        <polygon id="Fill-37" fill="#537EBF" points="123.515543 6.82387075 121.970929 8.39333327 126.955264 15.8740938 128.996247 14.5143662"></polygon>
                        <polygon id="Fill-38" fill="#537EBF" points="120.746339 2.9380958 119.531561 4.73278135 120.974836 6.89789104 122.332909 5.16451261"></polygon>
                        <polygon id="Fill-39" fill="#537EBF" points="122.553725 5.47421042 121.187261 7.21726892 121.867589 8.23819397 123.40833 6.67324881"></polygon>
                        <polygon id="Fill-40" fill="#537EBF" points="133.356798 20.6333985 131.430709 22.590064 134.585776 27.3255558 136.639023 25.2391773"></polygon>
                        <polygon id="Fill-41" fill="#537EBF" points="135.529328 28.741815 138.639857 33.4101916 140.966784 31.3121971 137.620657 26.6167163"></polygon>
                        <polygon id="Fill-42" fill="#537EBF" points="136.854094 25.5409375 134.792457 27.6357053 135.015145 27.9706358 137.086464 25.8668333"></polygon>
                        <path d="M121.187777,7.21759159 L120.974772,6.89814918 L121.187777,7.21759159 Z" id="Fill-43" fill="#7EB0E0"></path>
                        <polygon id="Fill-44" fill="#7EB0E0" points="122.333039 5.16457715 120.974965 6.89795558 121.187326 7.21739799 122.55379 5.47433949"></polygon>
                        <polygon id="Fill-45" fill="#7EB0E0" points="128.996247 14.5146243 126.955264 15.8737066 127.157297 16.1776609 129.207961 14.8114799"></polygon>
                        <polygon id="Fill-46" fill="#7EB0E0" points="129.578527 15.331687 127.51108 16.7081934 128.014548 17.4632391 130.105232 16.0705993"></polygon>
                        <polygon id="Fill-47" fill="#7EB0E0" points="136.639217 25.2394355 134.58597 27.3258139 134.792521 27.6355762 136.854159 25.5408084"></polygon>
                        <polygon id="Fill-48" fill="#7EB0E0" points="133.249327 20.4826475 131.327111 22.435441 131.430386 22.5903221 133.35712 20.6336567"></polygon>
                        <path d="M121.970864,8.39313967 L121.867589,8.2382585 L121.970864,8.39313967 Z" id="Fill-49" fill="#7EB0E0"></path>
                        <polygon id="Fill-50" fill="#7EB0E0" points="123.408072 6.67311974 121.86733 8.2380649 121.970606 8.39294607 123.515221 6.82412888"></polygon>
                        <polygon id="Fill-51" fill="#7EB0E0" points="137.086206 25.8667042 135.015532 27.9705068 135.529328 28.7416859 137.620657 26.6172325"></polygon>
                        <g id="Group-63" stroke-width="1" fill="none" transform="translate(0.000000, 84.929735)">
                            <path d="M123.71564,3.7108883 C124.729676,6.21092852 124.268164,8.75872377 122.684821,9.40083528 C121.100832,10.0429468 118.994657,8.53672742 117.98062,6.0366872 C116.965938,3.53664698 117.427451,0.989497075 119.011439,0.346740219 C120.595428,-0.295371298 122.701603,1.21084808 123.71564,3.7108883 L123.71564,3.7108883 Z" id="Stroke-52" stroke="#7EB0E0" stroke-width="2.428" stroke-linecap="round" stroke-linejoin="round"></path>
                            <g id="Group-56" transform="translate(49.867052, 116.160878)" fill="#FDE0D3">
                                <path d="M208.526075,127.009142 C208.481538,103.125175 189.841595,82.3407671 167.652202,74.960034 C174.10305,63.534321 173.315574,48.8470687 164.535863,38.0512059 C158.465844,30.5878695 149.797154,26.4770651 140.892222,25.9691839 C142.586586,19.9113941 141.417636,13.1508311 137.146547,7.89906874 C130.157376,-0.694254845 117.524197,-1.99719269 108.929091,4.99052943 C103.22699,9.62599378 100.739341,16.7440742 101.747568,23.5201254 C87.8034355,15.6573247 69.8941676,16.6201693 56.7213738,27.3289115 C44.9479634,36.9005678 40.0197842,51.8511181 42.5719807,65.7910687 C0.931287091,77.9208457 -13.4317572,130.358447 14.6127129,151.654608 L201.107665,151.654608 C206.022289,145.201226 208.542212,135.704429 208.526075,127.009142" id="Fill-54"></path>
                            </g>
                            <path d="M107.638415,258.134703 C73.531026,230.494867 47.2448218,193.333066 32.4325289,152.019805 C32.2530877,151.520959 32.9766618,151.220231 33.1999952,151.701653 C51.5623844,191.243461 81.5174518,225.354748 118.443618,248.560465" id="Fill-57" fill="#FACBB9"></path>
                            <path d="M101.282387,263.346906 C61.4322331,247.020494 26.1487938,219.753019 0.193716763,185.405538 C-0.216157996,184.863454 0.550662813,184.22586 1.00765703,184.727933 C29.7860289,216.359185 67.6294104,239.702359 108.871202,251.06612" id="Fill-59" fill="#FACBB9"></path>
                            <path d="M250.92417,253.355717 C249.435711,242.746357 237.597754,236.648556 226.70864,234.02203 C215.820172,231.395503 203.734998,230.186785 195.613023,222.863487 C187.044382,215.138143 185.576578,201.427287 191.88284,191.747214 C198.189748,182.067786 211.396752,177.114816 222.942956,179.663902 C233.038785,181.893545 241.125904,188.998719 247.36891,196.821509 C260.351289,213.09113 267.310124,233.663222 266.789873,254.235958" id="Stroke-61" stroke="#FFF5E7" stroke-width="4" stroke-linecap="round" stroke-linejoin="round" transform="translate(227.408538, 216.617979) scale(-1, 1) translate(-227.408538, -216.617979) "></path>
                        </g>
                    </g>
                </g>
            </g>
        </g>
    </g>
</svg>