<?xml version="1.0" encoding="UTF-8" standalone="no"?>
<svg width="276px" height="275px" viewBox="0 0 276 275" version="1.1" xmlns="http://www.w3.org/2000/svg" xmlns:xlink="http://www.w3.org/1999/xlink">
    <!-- Generator: Sketch 3.8.3 (29802) - http://www.bohemiancoding.com/sketch -->
    <title>déco</title>
    <desc>Created with Sketch.</desc>
    <defs>
        <rect id="path-1" x="0" y="0" width="283" height="283"></rect>
    </defs>
    <g id="Page-1" stroke="none" stroke-width="1" fill="none" fill-rule="evenodd">
        <g id="Desktop-HD-Copy-2" transform="translate(0.000000, -525.000000)">
            <g id="déco" transform="translate(141.500000, 658.500000) scale(-1, 1) translate(-141.500000, -658.500000) translate(0.000000, 517.000000)">
                <mask id="mask-2" fill="white">
                    <use xlink:href="#path-1"></use>
                </mask>
                <g id="Rectangle-13"></g>
                <g id="Group-4" mask="url(#mask-2)">
                    <g transform="translate(82.289494, 62.843902)">
                        <path d="M184.251392,261.524053 C190.303917,230.724114 207.227717,194.16625 232.890469,176.541283 C259.291643,158.408778 294.649494,151.818959 313.133081,125.487683 C318.984008,117.152401 322.681878,107.079825 322.50908,96.8544036 C322.337434,86.6278158 318.043989,76.325389 310.212801,69.8685793 C297.832426,59.6594928 279.149547,60.8729156 265.051564,68.4626423 C250.954733,76.0512021 240.399102,88.8178107 230.216714,101.27173 L202.0795,135.682768 C198.838968,139.646227 192.490383,137.224049 192.632077,132.078669 C193.564032,98.0141558 184.380414,63.6731222 166.357622,34.8764977 C156.866424,19.7122122 143.844394,5.3273176 126.591127,1.20751365 C114.359359,-1.71286848 100.905335,1.13984199 90.8577291,8.78440599 C80.8089709,16.42897 74.3555554,28.7207102 73.7173562,41.4324814 C72.7335617,61.0304273 84.8270918,78.9937526 99.1197598,92.2410632 C113.412428,105.489541 130.329316,115.713795 143.827115,129.790667 C152.157112,138.480641 159.170392,149.341943 162.291117,160.879961 C163.863576,166.69389 156.187905,170.324824 152.764208,165.394127 C146.90176,156.951504 140.083166,149.189098 132.470854,142.326258 C121.512029,132.445029 108.212371,124.18792 93.562588,123.36536 C78.9139569,122.543966 63.0764781,131.046093 59.1021326,145.350482 C54.3813014,162.344235 67.528897,179.588841 82.8191833,188.062966 C98.1106216,196.537091 115.859242,199.563648 131.264727,207.823091 C151.570752,218.711227 166.819567,238.840046 171.945897,261.524053" id="Fill-198" fill="#000000" opacity="0.0399999991"></path>
                        <g id="Group-3" stroke-width="1" fill="none" transform="translate(125.016129, 126.063296) rotate(-28.000000) translate(-125.016129, -126.063296) translate(75.016129, 55.063296)">
                            <path d="M19.9389386,141.526184 C21.0836112,132.171066 22.6009605,123.425308 24.7246716,114.331827 C33.8785216,75.1372876 55.3242807,39.97263 87.0480187,16.8554174" id="Stroke-3" stroke="#77B4F8" stroke-width="9" stroke-linecap="round"></path>
                            <g id="Group-8" transform="translate(0.000000, 39.309997)">
                                <path d="M25.3412091,70.8363841 C22.8528462,49.1006138 4.70339749,32.4807707 0.529162311,11.032632 C-0.175103452,7.41461737 -0.087471477,2.86382549 2.94177009,0.995570124 C5.4725045,-0.565473027 8.88533658,0.7541891 10.7920543,3.09912979 C12.699093,5.44407047 13.4832868,8.54320026 14.2880244,11.5103301 C18.0915089,25.5387875 23.5487661,39.0703038 30.4951248,51.6967257 C31.6388345,49.6485318 32.7825441,47.6003379 33.9262537,45.5521439" id="Fill-5" fill="#77B4F8"></path>
                                <path d="M25.3412091,70.8363841 C22.8528462,49.1006138 4.70339749,32.4807707 0.529162311,11.032632 C-0.175103452,7.41461737 -0.087471477,2.86382549 2.94177009,0.995570124 C5.4725045,-0.565473027 8.88533658,0.7541891 10.7920543,3.09912979 C12.699093,5.44407047 13.4832868,8.54320026 14.2880244,11.5103301 C18.0915089,25.5387875 23.5487661,39.0703038 30.4951248,51.6967257 C31.6388345,49.6485318 32.7825441,47.6003379 33.9262537,45.5521439" id="Stroke-7" stroke="#77B4F8" stroke-width="4" stroke-linecap="round"></path>
                            </g>
                            <g id="Group-12" transform="translate(40.124531, 19.054247)">
                                <path d="M8.70484039,36.6978829 C8.74560691,29.4804214 7.01254818,22.2595841 3.72008969,15.9266238 C2.23933401,13.0790029 0.40612445,10.2725687 0.12140078,7.04076374 C-0.163001894,3.80929639 1.90613991,0.0511795289 4.99187682,0.104182075 C6.7634551,0.134228105 8.34211463,1.42013065 9.27974467,3.00142955 C10.2173747,4.58272845 10.6276079,6.43714239 11.0233963,8.25374559 C11.7722805,11.6908088 12.5208438,15.1282096 13.269728,18.5656104 C13.5923292,20.0459682 13.9280913,21.5600855 14.7087542,22.8378858 C15.2942513,23.7959827 16.1872629,24.6072255 17.206105,24.9286168" id="Fill-9" fill="#77B4F8"></path>
                                <path d="M8.70484039,36.6978829 C8.74560691,29.4804214 7.01254818,22.2595841 3.72008969,15.9266238 C2.23933401,13.0790029 0.40612445,10.2725687 0.12140078,7.04076374 C-0.163001894,3.80929639 1.90613991,0.0511795289 4.99187682,0.104182075 C6.7634551,0.134228105 8.34211463,1.42013065 9.27974467,3.00142955 C10.2173747,4.58272845 10.6276079,6.43714239 11.0233963,8.25374559 C11.7722805,11.6908088 12.5208438,15.1282096 13.269728,18.5656104 C13.5923292,20.0459682 13.9280913,21.5600855 14.7087542,22.8378858 C15.2942513,23.7959827 16.1872629,24.6072255 17.206105,24.9286168" id="Stroke-11" stroke="#77B4F8" stroke-width="4" stroke-linecap="round"></path>
                            </g>
                            <g id="Group-16" transform="translate(77.681091, 0.148880)">
                                <path d="M0.0730587455,22.5987329 C1.54932048,18.8831531 4.38885327,10.467564 5.20065277,6.52444467 C5.56947746,4.73316116 5.97810568,2.8561283 7.13369217,1.48413882 C8.28927865,0.112149337 10.4495834,-0.508689408 11.7945577,0.657029018 C13.3401546,1.99593411 12.8991057,4.5596369 12.273805,6.56022983 C11.6488254,8.56082276 11.0764891,11.0499169 12.4959345,12.5353386 C14.2036345,11.9560241 15.9684718,11.3699577 17.7557789,11.5374053 C19.543086,11.7048528 21.3759746,12.8236454 21.8712718,14.6375478 C22.4124715,16.6192354 21.167648,18.7525035 19.4827387,19.8071529 C18.9867995,19.9104572 18.430513,20.3645236 17.9291169,20.5397359 C17.3863123,20.7294647 16.8264948,20.8624775 16.2637884,20.9688202 C15.2606751,21.1588866 14.2626978,21.1528099 13.2676094,21.2551014 C10.8046052,21.5082983 8.26103098,22.3978633 5.84104029,22.9532085 C5.54508175,23.0210653 0.628703247,24.9565022 0.329534746,25.0145687" id="Fill-13" fill="#77B4F8"></path>
                                <path d="M0.0730587455,22.5987329 C1.54932048,18.8831531 4.38885327,10.467564 5.20065277,6.52444467 C5.56947746,4.73316116 5.97810568,2.8561283 7.13369217,1.48413882 C8.28927865,0.112149337 10.4495834,-0.508689408 11.7945577,0.657029018 C13.3401546,1.99593411 12.8991057,4.5596369 12.273805,6.56022983 C11.6488254,8.56082276 11.0764891,11.0499169 12.4959345,12.5353386 C14.2036345,11.9560241 15.9684718,11.3699577 17.7557789,11.5374053 C19.543086,11.7048528 21.3759746,12.8236454 21.8712718,14.6375478 C22.4124715,16.6192354 21.167648,18.7525035 19.4827387,19.8071529 C18.9867995,19.9104572 18.430513,20.3645236 17.9291169,20.5397359 C17.3863123,20.7294647 16.8264948,20.8624775 16.2637884,20.9688202 C15.2606751,21.1588866 14.2626978,21.1528099 13.2676094,21.2551014 C10.8046052,21.5082983 8.26103098,22.3978633 5.84104029,22.9532085 C5.54508175,23.0210653 0.628703247,24.9565022 0.329534746,25.0145687" id="Stroke-15" stroke="#77B4F8" stroke-width="4" stroke-linecap="round"></path>
                            </g>
                            <g id="Group-20" transform="translate(25.037707, 75.095156)">
                                <path d="M0.196770699,37.1081968 C5.57859375,28.4279327 11.8893799,28.5852523 20.3916075,26.2663065 C31.5295352,23.2286192 42.6953896,20.2982873 53.8500092,17.3277815 C57.3816099,16.3872395 61.0730667,15.3579098 63.7443975,12.7523452 C66.4157282,10.1471181 67.6066243,5.4332674 65.326909,2.44453146 C63.4834275,0.0276828587 60.0445947,-0.426721138 57.2166178,0.441237759 C54.3883199,1.30919666 51.983416,3.23112976 49.5303627,4.94746699 C37.2959118,13.5072094 22.2703985,17.5610603 7.62879678,16.2525388" id="Fill-17" fill="#77B4F8"></path>
                                <path d="M0.196770699,37.1081968 C5.57859375,28.4279327 11.8893799,28.5852523 20.3916075,26.2663065 C31.5295352,23.2286192 42.6953896,20.2982873 53.8500092,17.3277815 C57.3816099,16.3872395 61.0730667,15.3579098 63.7443975,12.7523452 C66.4157282,10.1471181 67.6066243,5.4332674 65.326909,2.44453146 C63.4834275,0.0276828587 60.0445947,-0.426721138 57.2166178,0.441237759 C54.3883199,1.30919666 51.983416,3.23112976 49.5303627,4.94746699 C37.2959118,13.5072094 22.2703985,17.5610603 7.62879678,16.2525388" id="Stroke-19" stroke="#77B4F8" stroke-width="4" stroke-linecap="round"></path>
                            </g>
                            <g id="Group-24" transform="translate(48.470433, 38.972401)">
                                <path d="M0.136680201,17.357625 C4.48136439,14.7078353 9.38073009,13.0701579 14.3828146,12.5961733 C18.6138661,12.1951095 22.8214849,12.6576158 27.0242887,13.155232 C29.996393,13.5073445 33.9003493,12.5222398 36.0966056,10.2623733 C37.3757757,8.94608713 38.1628585,7.06534072 38.0456948,5.18695748 C37.9285312,3.30857424 36.8448479,1.48690711 35.2145079,0.710099084 C33.6018228,-0.0579314457 31.6918951,0.237127316 30.0586662,0.954856066 C28.4251163,1.67258482 26.9764603,2.77753599 25.4286164,3.68094245 C20.5202628,6.54544313 14.5365718,7.30098261 9.1229701,5.73960187" id="Fill-21" fill="#77B4F8"></path>
                                <path d="M0.136680201,17.357625 C4.48136439,14.7078353 9.38073009,13.0701579 14.3828146,12.5961733 C18.6138661,12.1951095 22.8214849,12.6576158 27.0242887,13.155232 C29.996393,13.5073445 33.9003493,12.5222398 36.0966056,10.2623733 C37.3757757,8.94608713 38.1628585,7.06534072 38.0456948,5.18695748 C37.9285312,3.30857424 36.8448479,1.48690711 35.2145079,0.710099084 C33.6018228,-0.0579314457 31.6918951,0.237127316 30.0586662,0.954856066 C28.4251163,1.67258482 26.9764603,2.77753599 25.4286164,3.68094245 C20.5202628,6.54544313 14.5365718,7.30098261 9.1229701,5.73960187" id="Stroke-23" stroke="#77B4F8" stroke-width="4" stroke-linecap="round"></path>
                            </g>
                        </g>
                        <g id="Group-2" stroke-width="1" fill="none" transform="translate(190.634637, 156.976448) scale(-1, 1) translate(-190.634637, -156.976448) translate(153.634637, 92.976448)" stroke-linecap="round" stroke-linejoin="round">
                            <path d="M15.2060544,16.3505748 C28.7975233,30.1822693 39.1592432,47.3486074 45.4330072,65.9744606 C51.8599837,85.0567399 54.4309911,107.422366 49.8631619,127.249755" id="Stroke-25" stroke="#FF6A4D" stroke-width="3"></path>
                            <path d="M57.6312539,84.5094779 C56.6032123,85.5762194 55.7431986,87.2323084 56.4846894,88.5293223 C56.9558902,89.3530609 57.9120231,89.7125105 58.8034743,89.9641252 C61.5219126,90.7305765 64.354899,91.0593231 67.1690952,90.9338902 C68.6159418,90.8698632 70.0956713,90.6744125 71.375574,89.972737 C75.6207174,87.6460498 73.4667082,83.0679353 69.9449882,81.7293601 C65.8212585,80.1620102 60.7338076,81.2897832 57.6312539,84.5094779 L57.6312539,84.5094779 Z" id="Stroke-29" stroke="#FF9C8F" stroke-width="2"></path>
                            <path d="M44.3106893,86.2015868 C45.4644808,87.1200553 46.5257667,88.6458439 45.9541105,90.0319713 C45.5905921,90.9122483 44.687939,91.3978797 43.835875,91.7678132 C41.237405,92.8959606 38.4701844,93.6051247 35.6639379,93.8619814 C34.2217888,93.9937795 32.7297734,94.0005192 31.3725417,93.4778196 C26.8708396,91.7453476 28.4289821,86.9152439 31.7519595,85.1116308 C35.6429796,82.9994901 40.8290791,83.4293319 44.3106893,86.2015868 L44.3106893,86.2015868 Z" id="Stroke-31" stroke="#FF9C8F" stroke-width="2"></path>
                            <path d="M40.0691956,70.3929196 C41.3418713,71.1238004 42.6102109,72.4687409 42.2434404,73.9278815 C42.0107308,74.854213 41.1875748,75.4735147 40.3980244,75.9707533 C37.9903473,77.4860579 35.3553809,78.6134565 32.6170683,79.2994061 C31.2096089,79.652116 29.7352996,79.8883792 28.3180837,79.5806005 C23.6180003,78.5606623 24.4660895,73.5444686 27.4934823,71.2488589 C31.0383288,68.5612245 36.2287646,68.1875467 40.0691956,70.3929196 L40.0691956,70.3929196 Z" id="Stroke-33" stroke="#FF9C8F" stroke-width="2"></path>
                            <path d="M34.6391484,56.8038536 C35.7965535,57.4684609 36.950345,58.6917127 36.6164573,60.0186807 C36.404706,60.8611407 35.6563495,61.4242783 34.9379851,61.8765857 C32.7485637,63.2548502 30.3524498,64.2800303 27.8620235,64.9038251 C26.5821207,65.2247087 25.2411498,65.4392552 23.9522132,65.1595585 C19.6778005,64.2321037 20.4492834,59.6697151 23.2024114,57.5822866 C26.4263788,55.1380295 31.1463364,54.7980501 34.6391484,56.8038536 L34.6391484,56.8038536 Z" id="Stroke-35" stroke="#FF9C8F" stroke-width="2"></path>
                            <path d="M29.5185978,43.7623116 C30.7146673,44.3482893 31.941813,45.4925371 31.6913972,46.8386009 C31.5324031,47.6937914 30.8201816,48.3056045 30.131448,48.8043408 C28.0320027,50.3260106 25.704184,51.50845 23.2578425,52.2969925 C22.0003434,52.7021221 20.6759946,53.0057821 19.3722427,52.8125779 C15.0490477,52.1715595 15.5357865,47.5672352 18.1537695,45.3008307 C21.2194654,42.6468947 25.9087083,41.9935202 29.5185978,43.7623116 L29.5185978,43.7623116 Z" id="Stroke-37" stroke="#FF9C8F" stroke-width="2"></path>
                            <path d="M55.8675031,69.1689189 C55.0096575,70.3865544 54.4047571,72.1598389 55.3298138,73.3235569 C55.9173694,74.0626751 56.915419,74.2656143 57.8336101,74.3723259 C60.6333522,74.6977027 63.481154,74.5718953 66.2440384,74.0008947 C67.6641451,73.7073442 69.0972604,73.2790002 70.2582789,72.3822484 C74.108105,69.4078031 71.3022199,65.2265808 67.6236738,64.4638738 C63.3167396,63.5708662 58.4562167,65.4942959 55.8675031,69.1689189 L55.8675031,69.1689189 Z" id="Stroke-45" stroke="#FF9C8F" stroke-width="2"></path>
                            <path d="M50.2654171,54.22016 C49.6446173,55.5838218 49.3739659,57.4435989 50.4941518,58.4051266 C51.2056506,59.0161908 52.2228517,59.0203095 53.1442949,58.9454242 C55.9527095,58.7177728 58.7264344,58.0370652 61.3353836,56.9358764 C62.6763546,56.3697433 64.0061237,55.6688167 64.9828536,54.5612627 C68.2219977,50.8873885 64.7046138,47.3303354 60.9534363,47.3003813 C56.5612234,47.2655596 52.1382957,50.1052112 50.2654171,54.22016 L50.2654171,54.22016 Z" id="Stroke-47" stroke="#FF9C8F" stroke-width="2"></path>
                            <path d="M44.0636702,39.2943909 C43.6090916,40.633715 43.5285104,42.4028808 44.6674866,43.1917978 C45.3909099,43.6927806 46.3437906,43.5954297 47.1998295,43.433303 C49.8095014,42.9394342 52.3443738,42.0247099 54.6859237,40.7325636 C55.8895816,40.0683307 57.0697517,39.2790394 57.8813445,38.1437778 C60.5737656,34.378918 56.9479766,31.3981075 53.4316768,31.7448266 C49.3140901,32.1510795 45.435356,35.2524553 44.0636702,39.2943909 L44.0636702,39.2943909 Z" id="Stroke-49" stroke="#FF9C8F" stroke-width="2"></path>
                            <path d="M35.2451329,28.2014026 C34.9567754,29.5894022 35.091559,31.3548238 36.3172592,31.9891025 C37.0956078,32.3919856 38.029337,32.1706994 38.8589973,31.8984912 C41.3877267,31.0683874 43.7917903,29.8305329 45.957724,28.2433384 C47.0710443,27.4274627 48.1460614,26.4902729 48.8134754,25.2584092 C51.0271074,21.1726657 47.0685148,18.6879706 43.6219556,19.4907413 C39.5863954,20.4305521 36.1152644,24.0130662 35.2451329,28.2014026 L35.2451329,28.2014026 Z" id="Stroke-51" stroke="#FF9C8F" stroke-width="2"></path>
                            <path d="M25.0511156,15.4663663 C24.8794742,16.7888412 25.1053182,18.5033408 26.2280336,19.1952812 C26.9409777,19.6348581 27.7540159,19.4817176 28.4712963,19.2720387 C30.658911,18.6332668 32.7113807,17.5931096 34.5322249,16.1994937 C35.4681222,15.4832155 36.3628255,14.6474952 36.8791951,13.500252 C38.5919955,9.69570294 34.9394667,7.03914594 31.9384524,7.59179965 C28.4243207,8.23880889 25.5685693,11.4757272 25.0511156,15.4663663 L25.0511156,15.4663663 Z" id="Stroke-53" stroke="#FF9C8F" stroke-width="2"></path>
                        </g>
                        <polygon id="Fill-59" fill="#4986EC" points="119.853793 198.276111 133.849896 222.755371 108.196998 222.755371 107.925292 206.76414"></polygon>
                        <polygon id="Fill-61" fill="#225CBD" points="119.822568 198.261333 150.808661 191.510136 171.65625 210.227922 171.65625 222.697319 133.469957 222.697319"></polygon>
                        <g id="Page-1" stroke-width="1" fill="none" transform="translate(51.562945, 170.911848) scale(-1, 1) rotate(10.000000) translate(-51.562945, -170.911848) translate(9.562945, 117.411848)">
                            <path d="M41.9143494,22.1198607 C41.9143494,34.3225781 51.287073,44.2148209 62.84893,44.2148209 C74.4105034,44.2148209 83.783227,34.3225781 83.783227,22.1198607 C83.783227,9.91714331 74.4105034,0.024900451 62.84893,0.024900451 C51.287073,0.024900451 41.9143494,9.91714331 41.9143494,22.1198607 L41.9143494,22.1198607 Z" id="Stroke-1" stroke="#77B4F8" stroke-width="3" stroke-linecap="round" stroke-linejoin="round"></path>
                            <path d="M21.812248,49.0084147 C17.3355836,42.1215844 16.8033293,24.9193234 16.8033293,24.9193234 C16.8033293,24.9193234 32.3631904,30.0709034 37.4498063,36.4687032 C42.1039833,42.3224042 43.5530081,46.8077775 37.6962256,53.9418165 C30.3731207,57.4509245 25.9080825,55.3098449 21.812248,49.0084147" id="Fill-3" fill="#77B4F8"></path>
                            <path d="M22.2109141,31.7499181 C23.8377351,32.8025009 25.1574537,33.6581546 25.6797831,35.2748882 C26.0387783,36.3867292 25.9959598,37.6108019 26.2988088,38.7408993 C26.6935334,40.2130786 27.6633308,41.5065852 28.9379623,42.2353424 C30.1553133,42.9311783 31.7316594,43.1415751 32.5871796,44.2902281 C33.6338235,45.6953678 33.373793,47.5796615 34.5131633,49.1622767 L39.2847368,55.7908246" id="Stroke-5" stroke="#225CBD" stroke-width="2" stroke-linecap="round" stroke-linejoin="round"></path>
                            <path d="M57.2420199,47.4203879 C65.0976627,48.4247859 77.6831948,59.3696115 77.6831948,59.3696115 C77.6831948,59.3696115 63.7382449,68.2918741 55.8273066,68.0943465 C48.5889881,67.9135788 44.4415444,66.0975219 43.2380882,56.7436914 C45.5811982,48.62381 50.0541762,46.5015852 57.2420199,47.4203879" id="Fill-7" fill="#77B4F8"></path>
                            <path d="M69.2524224,59.1399707 C67.4288062,59.7331521 65.9483055,60.2135034 64.4533429,59.5586694 C63.4254143,59.1085459 62.5832218,58.2660607 61.5793964,57.7590731 C60.2715877,57.098852 58.7108377,57.0123589 57.3502856,57.5408949 C56.0509839,58.0451889 54.8600046,59.1552342 53.4776179,59.0738289 C51.7867108,58.9744665 50.6187004,57.5235364 48.7403559,57.3801792 L40.8733704,56.7807129" id="Stroke-9" stroke="#225CBD" stroke-width="2" stroke-linecap="round" stroke-linejoin="round"></path>
                            <path d="M47.0040979,79.4771428 C54.8597407,80.4815408 67.4452728,91.4263664 67.4452728,91.4263664 C67.4452728,91.4263664 53.5003229,100.348629 45.5893846,100.151101 C38.3510661,99.9703337 34.2036224,98.1542767 33.0001662,88.8004463 C35.3432762,80.6805648 39.8162542,78.5583401 47.0040979,79.4771428" id="Fill-11" fill="#FFF4E6"></path>
                            <path d="M59.014472,91.1967256 C57.1908559,91.789907 55.7103552,92.2702583 54.2153926,91.6154243 C53.187464,91.1653008 52.3452715,90.3228155 51.3414461,89.815828 C50.0336373,89.1556069 48.4728873,89.0691138 47.1123352,89.5976498 C45.8130335,90.1019438 44.6220542,91.2119891 43.2396675,91.1305838 C41.5487605,91.0312214 40.38075,89.5802913 38.5024055,89.4369341 L30.6354201,88.8374677" id="Stroke-13" stroke="#77B4F8" stroke-width="2" stroke-linecap="round" stroke-linejoin="round"></path>
                            <path d="M10.4242106,85.9401424 C4.55778677,80.3351467 0.264306359,63.7311549 0.264306359,63.7311549 C0.264306359,63.7311549 16.5313823,64.9381683 22.8841227,69.9179592 C28.6966688,74.4745622 31.0905372,78.4837742 26.9589733,86.8559523 C20.6050987,92.0599071 15.7918409,91.0686776 10.4242106,85.9401424" id="Fill-15" fill="#FFF4E6"></path>
                            <path d="M7.02396464,69.0536562 C8.83765598,69.6800582 10.3093661,70.18944 11.172259,71.6346837 C11.7654801,72.6283075 11.9926169,73.8296345 12.5350796,74.8549824 C13.2422945,76.1906881 14.4695703,77.211846 15.8695381,77.6089962 C17.2065542,77.9884887 18.7860196,77.8074217 19.8706614,78.7157495 C21.1971855,79.8269919 21.3576842,81.7235563 22.813231,82.984441 L28.9101944,88.2659104" id="Stroke-17" stroke="#77B4F8" stroke-width="2" stroke-linecap="round" stroke-linejoin="round"></path>
                            <path d="M59.8858585,28.5586923 C39.8799582,48.6203153 28.1768851,77.6018065 28.3206533,106.726954" id="Stroke-19" stroke="#FF9C8F" stroke-width="4" stroke-linecap="round" stroke-linejoin="round"></path>
                            <path d="M79.4638286,22.1198607 C79.4638286,31.8046996 72.0250285,39.6558237 62.8488165,39.6558237 C53.6726045,39.6558237 46.2338045,31.8046996 46.2338045,22.1198607 C46.2338045,12.4350218 53.6726045,4.58389768 62.8488165,4.58389768 C72.0250285,4.58389768 79.4638286,12.4350218 79.4638286,22.1198607" id="Fill-21" fill="#77B4F8"></path>
                        </g>
                    </g>
                </g>
                <ellipse id="Oval-33" fill="#FFFFFF" mask="url(#mask-2)" cx="46.5976654" cy="9.88587266" rx="1.69961089" ry="1.70231232"></ellipse>
                <ellipse id="Oval-33-Copy" fill="#FFFFFF" mask="url(#mask-2)" cx="117.131518" cy="66.0621793" rx="1.69961089" ry="1.70231232"></ellipse>
                <ellipse id="Oval-33-Copy-2" fill="#FFFFFF" mask="url(#mask-2)" cx="9.20622568" cy="155.433576" rx="1.69961089" ry="1.70231232"></ellipse>
                <ellipse id="Oval-33-Copy-4" fill="#FFFFFF" mask="url(#mask-2)" cx="216.558755" cy="64.359867" rx="1.69961089" ry="1.70231232"></ellipse>
                <ellipse id="Oval-33-Copy-3" fill="#FFFFFF" mask="url(#mask-2)" cx="165.570428" cy="20.9509028" rx="1.69961089" ry="1.70231232"></ellipse>
            </g>
        </g>
    </g>
</svg>