<?xml version="1.0" encoding="UTF-8" standalone="no"?>
<svg width="300px" height="90px" viewBox="0 0 300 90" version="1.1" xmlns="http://www.w3.org/2000/svg" xmlns:xlink="http://www.w3.org/1999/xlink">
    <!-- Generator: Sketch 3.8.3 (29802) - http://www.bohemiancoding.com/sketch -->
    <title>Group</title>
    <desc>Created with Sketch.</desc>
    <defs>
        <polygon id="path-1" points="0.236192308 8.34482759 2.1569188 8.34482759 2.1569188 0.742993103 0.236192308 0.742993103"></polygon>
        <polygon id="path-3" points="8.44435043 7.32901884 8.44435043 0.257769027 0.527032355 0.257769027 0.527032355 7.32901884 8.44435043 7.32901884"></polygon>
        <polygon id="path-5" points="44.7168 0.115 0.7758 0.115 0.7758 44.0566 44.7168 44.0566 44.7168 0.115"></polygon>
        <polygon id="path-7" points="23.803 22.8973 23.803 0.3423 0.8712 0.3423 0.8712 22.8973 23.803 22.8973"></polygon>
    </defs>
    <g id="Page-1" stroke="none" stroke-width="1" fill="none" fill-rule="evenodd">
        <g id="Desktop-HD-Copy-9" transform="translate(-490.000000, -430.000000)">
            <g id="Group" transform="translate(490.000000, 431.000000)">
                <g id="Page-1" transform="translate(211.000000, 0.000000)">
                    <path d="M71.9762778,10.197 C64.3861752,3.95203448 54.6707222,0.189275862 44.0842863,0.189275862 C20.3737735,0.189275862 1.00296154,19.025069 0.196636752,42.4793448 L0.957320513,42.4793448 C1.76288462,19.4438276 20.7929103,0.947896552 44.0842863,0.947896552 C54.4927222,0.947896552 64.0438675,4.64996552 71.5046538,10.7925172 C71.6286453,10.5679655 71.7861068,10.366931 71.9762778,10.197" id="Fill-1" fill="#FFFFFF"></path>
                    <path d="M71.9762778,10.197 C64.3861752,3.95203448 54.6707222,0.189275862 44.0842863,0.189275862 C20.3737735,0.189275862 1.00296154,19.025069 0.196636752,42.4793448 L0.957320513,42.4793448 C1.76288462,19.4438276 20.7929103,0.947896552 44.0842863,0.947896552 C54.4927222,0.947896552 64.0438675,4.64996552 71.5046538,10.7925172 C71.6286453,10.5679655 71.7861068,10.366931 71.9762778,10.197 L71.9762778,10.197 Z" id="Stroke-3" stroke="#FFFFFF" stroke-width="0.5"></path>
                    <path d="M73.4891256,9.61096552 C72.9056812,9.61096552 72.379288,9.83627586 71.9761256,10.1966207 C71.7867154,10.3665517 71.6284932,10.5675862 71.5052624,10.7921379 C71.325741,11.116069 71.2146812,11.4832414 71.2146812,11.8792414 C71.2146812,13.1317241 72.2332368,14.1475172 73.4891256,14.1475172 C73.9592282,14.1475172 74.3951,14.0048966 74.7571855,13.7613793 C74.9694162,13.6195172 75.150459,13.4374483 75.3033564,13.2341379 C75.5886128,12.8548276 75.7635701,12.3890345 75.7635701,11.8792414 C75.7635701,10.6267586 74.7450145,9.61096552 73.4891256,9.61096552" id="Fill-5" fill="#FFFFFF"></path>
                    <path d="M38.6472231,35.8870069 L59.2663171,57.4993517 C65.5176162,51.5676966 65.4864282,42.3792828 59.7919496,36.4112138 C54.0982316,30.4431448 44.8985222,29.9553517 38.6472231,35.8870069 L38.6472231,35.8870069 Z" id="Stroke-7" stroke="#FFFFFF" stroke-width="2" stroke-linecap="round" stroke-linejoin="round"></path>
                    <path d="M29.1539658,47.5754552 C34.8476838,53.5435241 44.4642479,53.6360759 50.2986923,48.0996621 L29.6795983,26.4880759 C23.8451538,32.023731 23.4602479,41.6073862 29.1539658,47.5754552 L29.1539658,47.5754552 Z" id="Stroke-9" stroke="#FFFFFF" stroke-width="2" stroke-linecap="round" stroke-linejoin="round"></path>
                    <path d="M60.3762308,27.5396759 C52.0490256,18.8117448 38.4320256,18.1836069 29.6795983,26.487469 L44.7913419,42.327469 L60.3762308,27.5396759 L60.3762308,27.5396759 Z" id="Stroke-11" stroke="#FFFFFF" stroke-width="2" stroke-linecap="round" stroke-linejoin="round"></path>
                    <path d="M29.780465,56.5712552 C37.8710974,65.0518759 51.1678496,65.1838759 59.2660889,57.4990483 L44.7917983,42.3273931 L29.780465,56.5712552 L29.780465,56.5712552 Z" id="Stroke-13" stroke="#FFFFFF" stroke-width="2" stroke-linecap="round" stroke-linejoin="round"></path>
                    <path d="M7.33185043,60.7316828 L6.77502991,59.5376138 C7.4079188,59.1105103 7.64981624,58.4497517 7.21470513,57.5166483 C6.83055983,56.6950621 6.21060256,56.3354759 5.58760256,56.6245103 C5.06501282,56.867269 4.9957906,57.3755448 5.18748291,58.153131 L5.41873077,59.0938207 C5.76484188,60.519269 5.58836325,61.5039586 4.49221795,62.0122345 C3.2157906,62.6047172 1.86938034,61.9485103 1.13075641,60.3637517 C0.349534188,58.6894759 0.72607265,57.1358207 2.13790171,56.3347172 L2.69472222,57.5287862 C1.9462094,58.0218897 1.75223504,58.9170621 2.22918376,59.9396828 C2.61713248,60.7726483 3.20361966,61.1102345 3.77641453,60.8439586 C4.1385,60.6763034 4.38267949,60.2818207 4.15295299,59.4496138 L3.85020085,58.2236828 C3.48431197,56.7838207 3.87758547,55.8696828 4.89309829,55.3978207 C6.17028632,54.8053379 7.4969188,55.4220966 8.21272222,56.9560276 C8.77410684,58.1599586 8.90646581,59.8061655 7.33185043,60.7316828" id="Fill-15" fill="#FFFFFF"></path>
                    <polygon id="Fill-17" fill="#FFFFFF" points="11.2873299 70.6838759 9.39627009 72.3748414 8.49333846 71.369669 10.3843983 69.6787034 12.0883299 64.1020828 13.0726547 65.197531 11.8030735 69.3024276 16.0408427 68.4998069 17.0251675 69.5952552"></polygon>
                    <polygon id="Fill-19" fill="#FFFFFF" points="24.4608513 83.4302966 23.2886376 82.7786414 25.5242872 78.7784345 22.0365521 80.7030552 21.3291162 80.309331 21.127535 76.2848483 18.8896034 80.3343655 17.7181504 79.6827103 21.3892103 73.1122966 22.2229197 73.5750552 22.476988 79.0735379 27.2997231 76.3971241 28.1326718 76.8598828"></polygon>
                    <path d="M34.903594,82.212331 L36.8798504,82.5635724 C37.797235,82.7259172 38.3715513,82.4118483 38.4841325,81.7806759 C38.5891068,81.1927448 38.1707308,80.7588138 37.2647564,80.5979862 L35.2557906,80.2414345 L34.903594,82.212331 Z M36.5839444,85.7346069 C37.5560983,85.9075724 38.119765,85.5252276 38.2194145,84.9691586 C38.3297137,84.3486069 37.838312,83.9465379 36.9871068,83.7955724 L34.6936453,83.3881931 L34.3452521,85.3370897 L36.5839444,85.7346069 Z M39.4798675,85.3507448 C39.264594,86.5592276 38.0817308,87.1919172 36.4325684,86.8990897 L32.8292094,86.2588138 L34.1505171,78.8539172 L37.6237991,79.4706759 C39.1740726,79.7460552 39.9590983,80.6495724 39.7468675,81.8360552 C39.6129872,82.5878483 39.0683376,83.1757793 38.3510128,83.2850207 C39.3094744,83.6575034 39.6335256,84.490469 39.4798675,85.3507448 L39.4798675,85.3507448 Z" id="Fill-21" fill="#FFFFFF"></path>
                    <g id="Group-25" transform="translate(46.401709, 79.097586)">
                        <mask id="mask-2" fill="white">
                            <use xlink:href="#path-1"></use>
                        </mask>
                        <g id="Clip-24"></g>
                        <polygon id="Fill-23" fill="#FFFFFF" mask="url(#mask-2)" points="2.1569188 8.24044138 0.830286325 8.34513103 0.236192308 0.847682759 1.56282479 0.742993103"></polygon>
                    </g>
                    <path d="M61.5717974,80.2292966 C61.0629,78.8486069 59.6046692,78.0990897 58.2209855,78.6073655 C56.8471906,79.1110897 56.2234299,80.6237793 56.733088,82.004469 C57.2412248,83.3844 58.6994556,84.1339172 60.0732504,83.6301931 C61.4576949,83.1219172 62.0806949,81.6092276 61.5717974,80.2292966 M62.8307291,79.7672966 C63.5815239,81.8011586 62.5416692,84.0444 60.5022761,84.7924 C58.4621222,85.5404 56.213541,84.5041241 55.4635068,82.4695034 C54.712712,80.4356414 55.7525667,78.1924 57.7919598,77.4451586 C59.831353,76.6964 62.0806949,77.7326759 62.8307291,79.7672966" id="Fill-26" fill="#FFFFFF"></path>
                    <path d="M72.6630231,71.2516276 L71.6292538,72.0701793 C71.0648265,71.5565931 70.3634761,71.4761793 69.5556299,72.1156966 C68.8436299,72.6785931 68.6374846,73.3636276 69.0649889,73.900731 C69.4240316,74.3513517 69.9352111,74.2997655 70.6479718,73.9333517 L71.5128692,73.4895586 C72.8212453,72.8212138 73.8223051,72.7628 74.5738607,73.7072828 C75.4494077,74.8080414 75.1223137,76.2653517 73.7500402,77.3516966 C72.2994162,78.5002483 70.6966556,78.4964552 69.5868179,77.3137655 L70.6205872,76.4959724 C71.2762966,77.1074207 72.1944419,77.0869379 73.0806385,76.3852138 C73.8017667,75.814731 73.9942197,75.1676276 73.6017068,74.6737655 C73.3537239,74.3619724 72.9125274,74.2170759 72.1541256,74.6335586 L71.0290744,75.2131448 C69.7100487,75.9034897 68.7272453,75.7350759 68.0312197,74.8603862 C67.1556726,73.7596276 67.4470145,72.328869 68.7766897,71.2774207 C69.8188265,70.4528 71.3934419,69.9414897 72.6630231,71.2516276" id="Fill-28" fill="#FFFFFF"></path>
                    <polygon id="Fill-30" fill="#FFFFFF" points="82.2621675 68.331469 81.4573641 69.3882276 75.4525265 64.8387793 76.2580906 63.7820207"></polygon>
                    <g id="Group-34" transform="translate(79.871795, 53.304483)">
                        <mask id="mask-4" fill="white">
                            <use xlink:href="#path-3"></use>
                        </mask>
                        <g id="Clip-33"></g>
                        <path d="M4.21631795,0.387958621 L3.7081812,1.60251034 C2.96499316,1.4249931 2.3123265,1.69278621 1.91524957,2.64257931 C1.56457436,3.48009655 1.71747179,4.17802759 2.35188205,4.44202759 C2.88436068,4.66430345 3.30654017,4.37223448 3.75306154,3.70692414 L4.29466838,2.90202759 C5.11620684,1.6852 5.96360855,1.15188966 7.07953162,1.6154069 C8.37954017,2.15630345 8.80095897,3.59009655 8.12699316,5.20292414 C7.41347179,6.90830345 6.01001026,7.67830345 4.46430085,7.17913103 L4.97167692,5.96382069 C5.84189915,6.18230345 6.63605299,5.72182069 7.0711641,4.68023448 C7.42564274,3.83285517 7.28111282,3.17361379 6.69766838,2.93085517 C6.32949744,2.77761379 5.8723265,2.86333793 5.41059145,3.59388966 L4.70695897,4.64382069 C3.88770256,5.88416552 2.94521538,6.21188966 1.91144615,5.78175172 C0.612198291,5.24009655 0.173283761,3.84802759 0.826711111,2.28602759 C1.33941197,1.06085517 2.46902735,-0.146868966 4.21631795,0.387958621" id="Fill-32" fill="#FFFFFF" mask="url(#mask-4)"></path>
                    </g>
                </g>
                <g id="Page-1">
                    <g id="Group-3" transform="translate(2.000000, 0.885200)">
                        <mask id="mask-6" fill="white">
                            <use xlink:href="#path-5"></use>
                        </mask>
                        <g id="Clip-2"></g>
                        <path d="M22.7848,26.9376 C20.1058,26.9376 17.9308,24.7626 17.9308,22.0836 C17.9308,19.4096 20.1058,17.2336 22.7848,17.2336 C25.4638,17.2336 27.6338,19.4096 27.6338,22.0836 C27.6338,24.7626 25.4638,26.9376 22.7848,26.9376 M22.7488,0.1146 C10.6128,0.1146 0.7758,9.9526 0.7758,22.0836 C0.7758,34.2196 10.6128,44.0566 22.7488,44.0566 C34.8798,44.0566 44.7168,34.2196 44.7168,22.0836 C44.7168,9.9526 34.8798,0.1146 22.7488,0.1146" id="Fill-1" fill="#FEFEFE" mask="url(#mask-6)"></path>
                    </g>
                    <g id="Group-6" transform="translate(0.000000, 41.885200)" fill="#FEFEFE">
                        <path d="M40.3077,46.6555 L41.1817,46.2285 C42.0557,45.7765 46.3907,43.3745 45.5327,40.3355 C44.8737,38.0065 41.9277,37.0645 41.9277,37.0645 C41.9277,37.0645 23.6207,31.5785 12.2557,27.8755 C0.5007,24.0545 0.1457,15.6515 0.0427,14.1245 C-0.6103,4.8585 6.4297,1.0015 7.3857,0.5175 L7.9367,0.2505 L8.1417,0.5845 L7.7507,0.7905 C7.1547,1.0935 3.6627,3.0375 4.1417,5.5835 C4.6087,8.0465 7.6737,8.8795 7.6737,8.8795 C7.6737,8.8795 25.9807,14.3615 37.3407,18.0635 C49.0957,21.8895 49.4507,30.2875 49.5587,31.8145 C50.2737,42.0375 42.6837,45.9925 41.4387,46.5685 L40.5497,47.0005 L40.3077,46.6555 Z" id="Fill-4"></path>
                    </g>
                    <path d="M90.8504,42.1883 C90.8504,64.8933 109.7344,83.3683 132.9444,83.3683 C143.9984,83.3683 152.7094,79.2953 158.8254,74.6283 L149.9474,64.9273 C145.0634,68.3633 139.3554,70.3093 132.9444,70.3093 C117.0934,70.3093 104.1964,57.6923 104.1964,42.1883 C104.1964,26.6833 117.0934,14.0583 132.9444,14.0583 C137.0484,14.0583 140.9414,14.9193 144.4744,16.4423 L149.7614,4.4443 C144.6064,2.2463 138.9234,1.0003 132.9444,1.0003 C109.7344,1.0003 90.8504,19.4853 90.8504,42.1883" id="Fill-7" fill="#FEFEFE"></path>
                    <path d="M110.5065,42.1883 C110.5065,54.2883 120.5695,64.1333 132.9455,64.1333 C137.6865,64.1333 142.4795,62.4813 145.5555,60.2263 C145.5555,60.2263 137.2185,51.1263 136.4865,50.3523 C135.7385,50.7023 134.2305,51.0673 132.9455,51.0673 C127.9375,51.0673 123.8565,47.0873 123.8565,42.1883 C123.8565,37.2853 127.9685,33.1713 132.9765,33.1713 C134.2675,33.1713 135.5505,33.4683 136.6725,33.9493 L141.9465,22.1293 C139.2655,21.0173 136.2915,20.2323 132.9455,20.2323 C120.5695,20.2323 110.5065,30.0873 110.5065,42.1883" id="Fill-9" fill="#FEFEFE"></path>
                    <path d="M149.6787,33.6503 C150.8307,35.8763 151.8417,38.9303 151.8417,42.1883 C151.8417,46.2963 150.0667,50.7583 147.7017,53.7253 L156.7097,63.4303 C161.7297,58.1843 165.1817,50.5563 165.1817,42.1883 C165.1817,37.2293 163.9227,32.2443 161.7927,28.1223 L149.6787,33.6503 Z" id="Fill-11" fill="#FEFEFE"></path>
                    <g id="Group-15" transform="translate(145.000000, 5.885200)">
                        <mask id="mask-8" fill="white">
                            <use xlink:href="#path-7"></use>
                        </mask>
                        <g id="Clip-14"></g>
                        <path d="M0.9422,22.8973 L23.8032,12.4143 C20.4242,7.5583 15.8172,3.1293 11.1102,0.3423 L0.8712,22.8273 L0.9422,22.8973 Z" id="Fill-13" fill="#FEFEFE" mask="url(#mask-8)"></path>
                    </g>
                </g>
            </g>
        </g>
    </g>
</svg>