<?xml version="1.0" encoding="UTF-8" standalone="no"?>
<svg width="190px" height="183px" viewBox="0 0 190 183" version="1.1" xmlns="http://www.w3.org/2000/svg" xmlns:xlink="http://www.w3.org/1999/xlink">
    <!-- Generator: Sketch 3.8.3 (29802) - http://www.bohemiancoding.com/sketch -->
    <title>Logo</title>
    <desc>Created with Sketch.</desc>
    <defs>
        <polygon id="path-1" points="18 16.0492788 18 0.994146658 0.809631412 0.994146658 0.809631412 16.0492788 18 16.0492788"></polygon>
    </defs>
    <g id="Page-1" stroke="none" stroke-width="1" fill="none" fill-rule="evenodd">
        <g id="Desktop-HD-Copy-8" transform="translate(-545.000000, -217.000000)">
            <g id="Logo" transform="translate(545.000000, 216.000000)">
                <g id="Group-9" transform="translate(54.000000, 43.140000)">
                    <path d="M28.8408,31.6074 L71.3218,76.2574 C84.2028,64.0024 84.1388,45.0214 72.4058,32.6914 C60.6758,20.3614 41.7208,19.3544 28.8408,31.6074" id="Fill-1" fill="#FFE1D1"></path>
                    <path d="M9.2832,55.7554 C21.0122,68.0834 40.8262,68.2754 52.8462,56.8394 L10.3662,12.1894 C-1.6548,23.6284 -2.4488,43.4254 9.2832,55.7554" id="Fill-3" fill="#FF9C8F"></path>
                    <path d="M40.5264,43.8901 L41.5004,44.9131 L40.5264,43.8901 Z M40.6294,0.0491 C29.7744,0.0491 18.9384,4.0331 10.3664,12.1901 L28.8404,31.6071 C35.0074,25.7401 42.5664,22.9141 50.0584,22.9141 C54.1404,22.9141 58.2054,23.7541 62.0104,25.3981 L73.6084,14.3641 C64.6104,4.9041 52.6074,0.0491 40.6294,0.0491 L40.6294,0.0491 Z" id="Fill-5" fill="#FFFFFF" opacity="0.5"></path>
                    <path d="M50.0586,22.9141 C42.5666,22.9141 35.0076,25.7401 28.8406,31.6071 L40.5266,43.8901 L41.4996,44.9131 L62.0106,25.3981 C58.2046,23.7541 54.1406,22.9141 50.0586,22.9141" id="Fill-7" fill="#FFE8DE"></path>
                </g>
                <polygon id="Fill-10" fill="#FFBAB0" points="64.3662 55.3297 95.5002 88.0537 94.5262 87.0297 82.8412 74.7477"></polygon>
                <g id="Group-18" transform="translate(0.000000, 87.140000)">
                    <path d="M97.4375,2.9502 L106.8465,12.8392 C100.9975,18.4042 93.3055,21.2152 85.5935,21.2152 C82.2845,21.2152 78.9715,20.6972 75.8005,19.6562 L64.5735,30.3392 C73.1805,39.3852 84.6515,43.8342 96.0265,43.8342 C106.6815,43.8342 117.2515,39.9352 125.3225,32.2572 L97.4375,2.9502 Z" id="Fill-11" fill="#FFFFFF" opacity="0.5"></path>
                    <path d="M95.5,0.9136 L95.5,0.9136 L75.801,19.6566 C78.972,20.6976 82.284,21.2156 85.594,21.2156 C93.306,21.2156 100.997,18.4046 106.847,12.8396 L97.437,2.9506 L95.5,0.9136 Z" id="Fill-13" fill="#FFBAB0"></path>
                    <g id="Group-17" transform="translate(0.000000, 25.000000)" fill="#FFFFFF">
                        <path d="M14.5742,12.3269 L13.8662,10.7969 C15.5172,9.6059 16.0902,7.7479 14.9242,5.2349 C13.8812,2.9829 12.0992,2.0029 10.3722,2.8029 C9.0172,3.4309 8.6922,4.9089 9.2552,7.0399 L9.8622,9.4929 C10.5732,12.3489 10.0272,14.4349 7.9072,15.4179 C5.1972,16.6739 2.3822,15.2969 0.8412,11.9749 C-0.8108,8.4119 -0.0058,5.2769 3.0452,3.4379 L3.7552,4.9679 C1.6092,6.4129 1.0042,8.6589 2.2702,11.3919 C3.3652,13.7519 5.2212,14.7229 6.9922,13.9029 C8.2392,13.3249 8.7832,12.0379 8.2312,9.9289 L7.5382,7.1169 C6.7742,4.1519 7.5142,2.1369 9.5252,1.2049 C12.0832,0.0199 14.7702,1.3489 16.2382,4.5179 C17.6282,7.5129 17.3322,10.5979 14.5742,12.3269" id="Fill-15"></path>
                    </g>
                </g>
                <polygon id="Fill-19" fill="#FFFFFF" points="22.6494 145.7914 18.2834 149.6904 17.1434 148.4144 21.5104 144.5154 24.8384 132.4364 26.1054 133.8564 23.2574 144.0854 33.7424 142.4094 35.0114 143.8284"></polygon>
                <polygon id="Fill-20" fill="#FFFFFF" points="50.6484 173.944 49.1584 173.102 55.4144 162.085 45.8604 167.532 44.8534 166.962 44.5634 155.924 38.3594 166.999 36.8704 166.158 44.9284 151.899 46.0834 152.55 46.3764 165.444 57.5734 159.045 58.7064 159.685"></polygon>
                <path d="M83.3906,178.4603 C82.9226,181.0923 80.2866,182.4333 76.7036,181.7963 L69.7316,180.5543 L72.6026,164.4273 L79.4106,165.6393 C82.6356,166.2143 84.3446,168.1583 83.9056,170.6253 C83.5846,172.4263 82.3386,173.6493 80.4206,173.8443 C82.7906,174.6833 83.7546,176.4203 83.3906,178.4603 L83.3906,178.4603 Z M76.8996,180.2893 C79.5796,180.7673 81.4186,179.7733 81.7416,177.9703 C82.0666,176.1453 80.6826,174.8453 78.0026,174.3693 L72.7376,173.4313 L71.6816,179.3603 L76.8996,180.2893 Z M73.0026,171.9363 L77.7006,172.7733 C80.2846,173.2333 81.9296,172.3753 82.2586,170.5263 C82.5586,168.8423 81.3256,167.5223 78.9786,167.1043 L74.0206,166.2213 L73.0026,171.9363 Z" id="Fill-21" fill="#FFFFFF"></path>
                <polygon id="Fill-23" fill="#FFFFFF" points="99.7182 166.8014 100.8872 183.1404 102.5932 183.0164 101.4242 166.6794"></polygon>
                <g id="Group-28" transform="translate(117.000000, 146.140000)" fill="#FFFFFF">
                    <path d="M17.3984,20.5171 C19.0024,24.9571 16.7144,29.8281 12.2754,31.4311 C7.8354,33.0351 2.9644,30.7481 1.3614,26.3091 C-0.2426,21.8691 2.0444,16.9971 6.4834,15.3941 C10.9244,13.7911 15.7954,16.0771 17.3984,20.5171 M15.7674,21.1061 C14.4754,17.5281 10.6034,15.5971 7.0244,16.8901 C3.4224,18.1901 1.6764,22.1481 2.9694,25.7271 C4.2614,29.3071 8.1344,31.2371 11.7354,29.9371 C15.3144,28.6451 17.0594,24.6851 15.7674,21.1061" id="Fill-24"></path>
                    <path d="M38.6279,1.7449 L37.3039,2.7889 C35.7639,1.4569 33.8239,1.3309 31.6489,3.0459 C29.7009,4.5829 29.1599,6.5419 30.3399,8.0359 C31.2649,9.2079 32.7759,9.1809 34.7159,8.1419 L36.9619,6.9839 C39.5749,5.6289 41.7299,5.6779 43.1759,7.5119 C45.0249,9.8569 44.3369,12.9139 41.4639,15.1799 C38.3819,17.6109 35.1479,17.5539 32.6519,15.0139 L33.9769,13.9699 C35.8789,15.7199 38.2029,15.7899 40.5649,13.9249 C42.6079,12.3139 43.1229,10.2829 41.9149,8.7509 C41.0649,7.6739 39.6859,7.4419 37.7649,8.4669 L35.1899,9.7909 C32.4829,11.2219 30.3529,10.9689 28.9809,9.2299 C27.2359,7.0169 27.9069,4.0959 30.6489,1.9329 C33.2389,-0.1091 36.3079,-0.5351 38.6279,1.7449" id="Fill-26"></path>
                </g>
                <polygon id="Fill-29" fill="#FFFFFF" points="176.4531 142.3868 175.4121 143.7418 162.4181 133.7668 163.4601 132.4088"></polygon>
                <g id="Group-38" transform="translate(3.000000, 0.140000)">
                    <g id="Group-32" transform="translate(169.000000, 109.000000)">
                        <mask id="mask-2" fill="white">
                            <use xlink:href="#path-1"></use>
                        </mask>
                        <g id="Clip-31"></g>
                        <path d="M8.3789,1.2175 L7.7179,2.7695 C5.7269,2.3405 3.9639,3.1605 2.8789,5.7085 C1.9059,7.9925 2.3719,9.9715 4.1239,10.7175 C5.4979,11.3015 6.8119,10.5525 8.0159,8.7075 L9.4309,6.6145 C11.0739,4.1725 12.9879,3.1805 15.1389,4.0965 C17.8869,5.2665 18.7499,8.2785 17.3159,11.6475 C15.7779,15.2605 12.9119,16.7635 9.5039,15.7295 L10.1629,14.1785 C12.6739,14.8025 14.7459,13.7475 15.9269,10.9775 C16.9459,8.5835 16.4219,6.5545 14.6259,5.7885 C13.3629,5.2515 12.0419,5.7095 10.8469,7.5315 L9.2239,9.9295 C7.5349,12.4825 5.5429,13.2855 3.5039,12.4165 C0.9119,11.3125 0.0979,8.4265 1.4659,5.2125 C2.7599,2.1765 5.2479,0.3295 8.3789,1.2175" id="Fill-30" fill="#FFFFFF" mask="url(#mask-2)"></path>
                    </g>
                    <g id="Group-35" fill="#FFFFFF">
                        <path d="M148.5615,21.5344 C132.9235,8.6334 112.9075,0.8594 91.0945,0.8594 C42.2445,0.8594 2.3345,39.7724 0.6735,88.2264 L2.2415,88.2264 C3.9015,40.6374 43.1095,2.4274 91.0945,2.4274 C112.5405,2.4274 132.2185,10.0744 147.5905,22.7644 C147.8455,22.3004 148.1705,21.8854 148.5615,21.5344" id="Fill-33"></path>
                    </g>
                    <path d="M151.6787,20.324 C150.4767,20.324 149.3917,20.79 148.5617,21.534 C148.1707,21.886 147.8457,22.3 147.5907,22.764 C147.2217,23.434 146.9927,24.191 146.9927,25.01 C146.9927,27.598 149.0907,29.696 151.6787,29.696 C152.6467,29.696 153.5457,29.402 154.2917,28.899 C154.7287,28.605 155.1007,28.229 155.4157,27.809 C156.0037,27.026 156.3657,26.064 156.3657,25.01 C156.3657,22.422 154.2667,20.324 151.6787,20.324" id="Fill-36" fill="#FFFFFF"></path>
                </g>
            </g>
        </g>
    </g>
</svg>