<?xml version="1.0" encoding="UTF-8" standalone="no"?>
<svg width="117px" height="117px" viewBox="0 0 117 117" version="1.1" xmlns="http://www.w3.org/2000/svg" xmlns:xlink="http://www.w3.org/1999/xlink">
    <!-- Generator: Sketch 3.8.3 (29802) - http://www.bohemiancoding.com/sketch -->
    <title>Page 1</title>
    <desc>Created with Sketch.</desc>
    <defs>
        <polygon id="path-1" points="0.3105 11 2.8355 11 2.8355 0.9794 0.3105 0.9794"></polygon>
        <polygon id="path-3" points="11.101 9.66097939 11.101 0.339786444 0.692840287 0.339786444 0.692840287 9.66097939 11.101 9.66097939"></polygon>
    </defs>
    <g id="Page-1" stroke="none" stroke-width="1" fill="none" fill-rule="evenodd">
        <g id="Desktop-HD-Copy-4" transform="translate(-30.000000, -29.000000)">
            <g id="Page-1" transform="translate(30.000000, 30.000000)">
                <path d="M94.6205,13.4415 C84.6425,5.2095 71.8705,0.2495 57.9535,0.2495 C26.7835,0.2495 1.3185,25.0785 0.2585,55.9955 L1.2585,55.9955 C2.3175,25.6305 27.3345,1.2495 57.9535,1.2495 C71.6365,1.2495 84.1925,6.1295 94.0005,14.2265 C94.1635,13.9305 94.3705,13.6655 94.6205,13.4415" id="Fill-1" fill="#FFFFFF"></path>
                <path d="M94.6205,13.4415 C84.6425,5.2095 71.8705,0.2495 57.9535,0.2495 C26.7835,0.2495 1.3185,25.0785 0.2585,55.9955 L1.2585,55.9955 C2.3175,25.6305 27.3345,1.2495 57.9535,1.2495 C71.6365,1.2495 84.1925,6.1295 94.0005,14.2265 C94.1635,13.9305 94.3705,13.6655 94.6205,13.4415 L94.6205,13.4415 Z" id="Stroke-3" stroke="#FFFFFF" stroke-width="0.5"></path>
                <path d="M96.6093,12.669 C95.8423,12.669 95.1503,12.966 94.6203,13.441 C94.3713,13.665 94.1633,13.93 94.0013,14.226 C93.7653,14.653 93.6193,15.137 93.6193,15.659 C93.6193,17.31 94.9583,18.649 96.6093,18.649 C97.2273,18.649 97.8003,18.461 98.2763,18.14 C98.5553,17.953 98.7933,17.713 98.9943,17.445 C99.3693,16.945 99.5993,16.331 99.5993,15.659 C99.5993,14.008 98.2603,12.669 96.6093,12.669" id="Fill-5" fill="#FFFFFF"></path>
                <path d="M50.8059,47.3056 L77.9119,75.7946 C86.1299,67.9756 86.0889,55.8636 78.6029,47.9966 C71.1179,40.1296 59.0239,39.4866 50.8059,47.3056 L50.8059,47.3056 Z" id="Stroke-7" stroke="#FFFFFF" stroke-width="2" stroke-linecap="round" stroke-linejoin="round"></path>
                <path d="M38.326,62.7131 C45.811,70.5801 58.453,70.7021 66.123,63.4041 L39.017,34.9161 C31.347,42.2131 30.841,54.8461 38.326,62.7131 L38.326,62.7131 Z" id="Stroke-9" stroke="#FFFFFF" stroke-width="2" stroke-linecap="round" stroke-linejoin="round"></path>
                <path d="M79.371,36.3023 C68.424,24.7973 50.523,23.9693 39.017,34.9153 L58.883,55.7953 L79.371,36.3023 L79.371,36.3023 Z" id="Stroke-11" stroke="#FFFFFF" stroke-width="2" stroke-linecap="round" stroke-linejoin="round"></path>
                <path d="M39.1496,74.5712 C49.7856,85.7502 67.2656,85.9242 77.9116,75.7942 L58.8836,55.7952 L39.1496,74.5712 L39.1496,74.5712 Z" id="Stroke-13" stroke="#FFFFFF" stroke-width="2" stroke-linecap="round" stroke-linejoin="round"></path>
                <path d="M9.6385,80.0554 L8.9065,78.4814 C9.7385,77.9184 10.0565,77.0474 9.4845,75.8174 C8.9795,74.7344 8.1645,74.2604 7.3455,74.6414 C6.6585,74.9614 6.5675,75.6314 6.8195,76.6564 L7.1235,77.8964 C7.5785,79.7754 7.3465,81.0734 5.9055,81.7434 C4.2275,82.5244 2.4575,81.6594 1.4865,79.5704 C0.4595,77.3634 0.9545,75.3154 2.8105,74.2594 L3.5425,75.8334 C2.5585,76.4834 2.3035,77.6634 2.9305,79.0114 C3.4405,80.1094 4.2115,80.5544 4.9645,80.2034 C5.4405,79.9824 5.7615,79.4624 5.4595,78.3654 L5.0615,76.7494 C4.5805,74.8514 5.0975,73.6464 6.4325,73.0244 C8.1115,72.2434 9.8555,73.0564 10.7965,75.0784 C11.5345,76.6654 11.7085,78.8354 9.6385,80.0554" id="Fill-15" fill="#FFFFFF"></path>
                <polygon id="Fill-17" fill="#FFFFFF" points="14.8384 93.1742 12.3524 95.4032 11.1654 94.0782 13.6514 91.8492 15.8914 84.4982 17.1854 85.9422 15.5164 91.3532 21.0874 90.2952 22.3814 91.7392"></polygon>
                <polygon id="Fill-19" fill="#FFFFFF" points="32.1564 109.9763 30.6154 109.1173 33.5544 103.8443 28.9694 106.3813 28.0394 105.8623 27.7744 100.5573 24.8324 105.8953 23.2924 105.0363 28.1184 96.3753 29.2144 96.9853 29.5484 104.2333 35.8884 100.7053 36.9834 101.3153"></polygon>
                <path d="M45.8845,108.3708 L48.4825,108.8338 C49.6885,109.0478 50.4435,108.6338 50.5915,107.8018 C50.7295,107.0268 50.1795,106.4548 48.9885,106.2428 L46.3475,105.7728 L45.8845,108.3708 Z M48.0935,113.0138 C49.3715,113.2418 50.1125,112.7378 50.2435,112.0048 C50.3885,111.1868 49.7425,110.6568 48.6235,110.4578 L45.6085,109.9208 L45.1505,112.4898 L48.0935,113.0138 Z M51.9005,112.5078 C51.6175,114.1008 50.0625,114.9348 47.8945,114.5488 L43.1575,113.7048 L44.8945,103.9438 L49.4605,104.7568 C51.4985,105.1198 52.5305,106.3108 52.2515,107.8748 C52.0755,108.8658 51.3595,109.6408 50.4165,109.7848 C51.6765,110.2758 52.1025,111.3738 51.9005,112.5078 L51.9005,112.5078 Z" id="Fill-21" fill="#FFFFFF"></path>
                <g id="Group-25" transform="translate(61.000000, 104.265000)">
                    <mask id="mask-2" fill="white">
                        <use xlink:href="#path-1"></use>
                    </mask>
                    <g id="Clip-24"></g>
                    <polygon id="Fill-23" fill="#FFFFFF" mask="url(#mask-2)" points="2.8355 10.8624 1.0915 11.0004 0.3105 1.1174 2.0545 0.9794"></polygon>
                </g>
                <path d="M80.9427,105.7568 C80.2737,103.9368 78.3567,102.9488 76.5377,103.6188 C74.7317,104.2828 73.9117,106.2768 74.5817,108.0968 C75.2497,109.9158 77.1667,110.9038 78.9727,110.2398 C80.7927,109.5698 81.6117,107.5758 80.9427,105.7568 M82.5977,105.1478 C83.5847,107.8288 82.2177,110.7858 79.5367,111.7718 C76.8547,112.7578 73.8987,111.3918 72.9127,108.7098 C71.9257,106.0288 73.2927,103.0718 75.9737,102.0868 C78.6547,101.0998 81.6117,102.4658 82.5977,105.1478" id="Fill-26" fill="#FFFFFF"></path>
                <path d="M95.5233,93.9226 L94.1643,95.0016 C93.4223,94.3246 92.5003,94.2186 91.4383,95.0616 C90.5023,95.8036 90.2313,96.7066 90.7933,97.4146 C91.2653,98.0086 91.9373,97.9406 92.8743,97.4576 L94.0113,96.8726 C95.7313,95.9916 97.0473,95.9146 98.0353,97.1596 C99.1863,98.6106 98.7563,100.5316 96.9523,101.9636 C95.0453,103.4776 92.9383,103.4726 91.4793,101.9136 L92.8383,100.8356 C93.7003,101.6416 94.9073,101.6146 96.0723,100.6896 C97.0203,99.9376 97.2733,99.0846 96.7573,98.4336 C96.4313,98.0226 95.8513,97.8316 94.8543,98.3806 L93.3753,99.1446 C91.6413,100.0546 90.3493,99.8326 89.4343,98.6796 C88.2833,97.2286 88.6663,95.3426 90.4143,93.9566 C91.7843,92.8696 93.8543,92.1956 95.5233,93.9226" id="Fill-28" fill="#FFFFFF"></path>
                <polygon id="Fill-30" fill="#FFFFFF" points="108.1424 90.0733 107.0844 91.4663 99.1904 85.4693 100.2494 84.0763"></polygon>
                <g id="Group-34" transform="translate(105.000000, 70.265000)">
                    <mask id="mask-4" fill="white">
                        <use xlink:href="#path-3"></use>
                    </mask>
                    <g id="Clip-33"></g>
                    <path d="M5.5428,0.5114 L4.8748,2.1124 C3.8978,1.8784 3.0398,2.2314 2.5178,3.4834 C2.0568,4.5874 2.2578,5.5074 3.0918,5.8554 C3.7918,6.1484 4.3468,5.7634 4.9338,4.8864 L5.6458,3.8254 C6.7258,2.2214 7.8398,1.5184 9.3068,2.1294 C11.0158,2.8424 11.5698,4.7324 10.6838,6.8584 C9.7458,9.1064 7.9008,10.1214 5.8688,9.4634 L6.5358,7.8614 C7.6798,8.1494 8.7238,7.5424 9.2958,6.1694 C9.7618,5.0524 9.5718,4.1834 8.8048,3.8634 C8.3208,3.6614 7.7198,3.7744 7.1128,4.7374 L6.1878,6.1214 C5.1108,7.7564 3.8718,8.1884 2.5128,7.6214 C0.8048,6.9074 0.2278,5.0724 1.0868,3.0134 C1.7608,1.3984 3.2458,-0.1936 5.5428,0.5114" id="Fill-32" fill="#FFFFFF" mask="url(#mask-4)"></path>
                </g>
            </g>
        </g>
    </g>
</svg>