<?xml version="1.0" encoding="UTF-8" standalone="no"?>
<svg width="426px" height="504px" viewBox="0 0 426 504" version="1.1" xmlns="http://www.w3.org/2000/svg" xmlns:xlink="http://www.w3.org/1999/xlink">
    <!-- Generator: Sketch 3.8.3 (29802) - http://www.bohemiancoding.com/sketch -->
    <title>Page 1</title>
    <desc>Created with Sketch.</desc>
    <defs>
        <polygon id="path-1" points="289.278053 503.75 0 503.75 0 0.68625 289.278053 0.68625 289.278053 503.75"></polygon>
        <path d="M0.854498534,51.9520266 C5.69066298,68.5214882 20.9875399,80.62625 39.1095484,80.62625 C57.2331176,80.62625 72.5310686,68.5194032 77.3658475,51.9477455 L77.3658475,29.5622545 C72.5310686,12.9905968 57.2331176,0.88375 39.1095484,0.88375 C20.9875399,0.88375 5.69066298,12.9885118 0.854498534,29.5579734 L0.854498534,51.9520266 L0.854498534,51.9520266 Z" id="path-3"></path>
        <path d="M0.027483871,40.755 C0.027483871,62.775 17.8670147,80.62625 39.875349,80.62625 L39.875349,80.62625 C61.882434,80.62625 79.7232141,62.775 79.7232141,40.755 L79.7232141,40.755 C79.7232141,18.735 61.882434,0.88375 39.875349,0.88375 L39.875349,0.88375 C17.8670147,0.88375 0.027483871,18.735 0.027483871,40.755 L0.027483871,40.755 Z" id="path-5"></path>
    </defs>
    <g id="Page-1" stroke="none" stroke-width="1" fill="none" fill-rule="evenodd">
        <g id="Desktop-HD-Copy-5" transform="translate(-175.000000, -149.000000)">
            <g id="Page-1" transform="translate(175.000000, 148.000000)">
                <g id="Group-34" transform="translate(0.000000, 0.563750)">
                    <path d="M287.128997,329.175375 C285.285079,361.470375 278.883836,408.116625 308.110434,428.186625 C323.358985,438.656625 345.207413,446.547875 371.651894,439.692875 C388.215924,435.397875 405.523267,421.106625 415.458686,407.166625 C428.316141,389.127875 427.419167,364.356625 420.357062,343.356625 C413.294956,322.357875 400.879742,303.626625 391.61268,283.502875 C383.121413,265.061625 376.931296,243.785375 381.57732,223.459125 C386.408235,202.331625 392.5159,181.495375 394.913243,159.872875 C397.545449,136.136625 395.61783,111.572875 386.619361,89.454125 C377.620891,67.335375 361.144311,47.836625 339.544487,37.676625 C317.944663,27.516625 291.201607,27.592875 270.892276,40.135375 C266.552323,49.497875 261.487795,59.302875 268.152633,63.854125 C281.60349,73.037875 310.306645,69.882875 329.199308,102.190375 C340.635097,121.749125 338.542575,125.266625 340.531408,147.160375 C341.449619,157.271625 340.265314,167.496625 340.998633,177.734125 C341.879367,190.029125 343.929413,202.200375 345.547214,214.409125 C348.429273,236.145375 349.785977,259.080375 341.104821,279.212875 C330.259935,304.361625 310.197959,314.429125 287.128997,329.175375" id="Fill-1" fill="#225CBD"></path>
                    <path d="M181.215278,317.903 C203.804521,334.8555 241.708527,344.1955 274.866568,333.913 C309.878521,323.05675 342.012164,290.5305 347.668844,254.29425 C353.239325,218.60425 339.920891,182.40175 342.420674,146.3655 C344.845501,111.413 317.620228,82.0805 285.272961,68.6605" id="Stroke-3" stroke="#FFFFFF" stroke-width="4.521" stroke-linecap="round" stroke-linejoin="round"></path>
                    <path d="M292.767688,268.28275 C288.938685,268.0215 281.369377,267.41525 274.435946,269.47525" id="Stroke-5" stroke="#FF6A4D" stroke-width="9.421" stroke-linecap="round" stroke-linejoin="round"></path>
                    <path d="M255.166504,212.452125 C247.132469,212.225875 239.098434,211.998375 231.064399,211.772125 C228.783238,211.708375 226.425871,211.625875 224.362082,210.652125 C222.165871,209.617125 220.516839,207.650875 219.411238,205.488375 C218.306886,203.324625 217.690997,200.950875 217.082604,198.599625" id="Stroke-7" stroke="#4273C4" stroke-width="3.14" stroke-linecap="round" stroke-linejoin="round"></path>
                    <path d="M231.605082,211.401875 C228.052167,207.794375 225.62734,203.090625 224.750354,198.101875" id="Stroke-9" stroke="#4273C4" stroke-width="3.14" stroke-linecap="round" stroke-linejoin="round"></path>
                    <path d="M321.227861,212.2255 C329.261896,211.99925 329.261896,211.99925 337.295931,211.77175 C339.577093,211.708 341.934459,211.62675 343.998248,210.653 C346.194459,209.61675 347.844741,207.65175 348.949093,205.488 C350.053445,203.3255 350.669333,200.95175 351.277726,198.59925" id="Stroke-11" stroke="#4273C4" stroke-width="3.14" stroke-linecap="round" stroke-linejoin="round"></path>
                    <path d="M336.755499,211.401875 C340.308413,207.794375 342.73324,203.090625 343.610226,198.101875" id="Stroke-13" stroke="#4273C4" stroke-width="3.14" stroke-linecap="round" stroke-linejoin="round"></path>
                    <path d="M230.574311,218.735875 C230.574311,220.180875 229.403748,221.352125 227.959596,221.352125 C226.514194,221.352125 225.343631,220.180875 225.343631,218.735875 C225.343631,217.290875 226.514194,216.119625 227.959596,216.119625 C229.403748,216.119625 230.574311,217.290875 230.574311,218.735875" id="Fill-15" fill="#4273C4"></path>
                    <path d="M215.6838,172.287625 L237.259888,172.287625 C241.592345,172.287625 245.105284,168.772625 245.105284,164.437625 C245.105284,160.101375 241.592345,156.586375 237.259888,156.586375 L215.6838,156.586375 C211.350093,156.586375 207.838404,160.101375 207.838404,164.437625 C207.838404,168.772625 211.350093,172.287625 215.6838,172.287625 L215.6838,172.287625 Z" id="Stroke-17" stroke="#FFFFFF" stroke-width="4.71" stroke-linecap="round" stroke-linejoin="round"></path>
                    <path d="M342.197555,156.58675 L325.361185,156.58675 C321.118675,156.58675 317.679443,160.3555 317.679443,164.6005 L317.679443,164.6005 C317.679443,168.8455 321.118675,172.288 325.361185,172.288 L342.197555,172.288" id="Stroke-19" stroke="#FFFFFF" stroke-width="4.71" stroke-linecap="round" stroke-linejoin="round"></path>
                    <g id="Group-23">
                        <mask id="mask-2" fill="white">
                            <use xlink:href="#path-1"></use>
                        </mask>
                        <g id="Clip-22"></g>
                        <path d="M240.511979,3.47625 C208.566977,-4.1675 134.310554,0.49375 97.916912,61.395 C61.5232698,122.29625 75.7161906,198.54 70.465522,237.38125 C63.5245953,288.71875 34.3704545,312.77125 15.9799971,334.16125 C2.78149267,349.51375 -6.177,374.82375 5.20756891,395.88125 C15.5602434,415.03 26.4963255,416.065 36.6840968,419.44125 C52.0800616,424.545 66.6602551,419.74125 79.8774985,443.32875 C101.83961,482.52375 136.977739,517.68375 190.94107,498.22 C244.904402,478.75625 254.92727,440.4575 252.424988,411.5775 C249.923956,382.69625 244.904402,354.12875 199.098783,326.50375 C153.291915,298.87875 152.037651,233.89625 152.037651,233.89625 C152.037651,233.89625 115.963821,240.27 116.898273,206.5925 C117.526654,183.9825 139.487516,187.435 139.487516,187.435 C139.487516,187.435 135.723475,211.75875 150.782138,212.46875 C165.84205,213.1775 160.822496,193.80375 175.881158,173.35375 C190.94107,152.90375 214.795821,132.8125 236.124554,125.90625 C257.454537,119 281.198103,101.72125 286.059,85.72375 C290.919897,69.7275 298.240601,17.28875 240.511979,3.47625" id="Fill-21" fill="#225CBD" mask="url(#mask-2)"></path>
                    </g>
                    <path d="M217.082729,20.81275 C180.114424,20.81275 130.692178,34.549 109.903128,84.39275" id="Stroke-24" stroke="#033A96" stroke-width="9.419" stroke-linecap="round" stroke-linejoin="round"></path>
                    <path d="M98.0382158,103.967875 C98.0382158,107.246625 100.694157,109.904125 103.970984,109.904125 C107.247811,109.904125 109.903752,107.246625 109.903752,103.967875 C109.903752,100.689125 107.247811,98.031625 103.970984,98.031625 C100.694157,98.031625 98.0382158,100.689125 98.0382158,103.967875" id="Fill-26" fill="#033A96"></path>
                    <path d="M270.95299,206.013625 C273.681389,199.148625 278.713436,194.916125 284.119013,194.957375 C292.289219,195.019875 296.621676,204.808625 296.886521,205.431125" id="Stroke-28" stroke="#FFCE26" stroke-width="6.169"></path>
                    <path d="M296.984175,209.28 C296.984175,185.531555 316.23573,166.28 339.984175,166.28 C363.732621,166.28 382.984175,185.531555 382.984175,209.28 C382.984175,233.028445 363.732621,252.28 339.984175,252.28 C316.23573,252.28 296.984175,233.028445 296.984175,209.28 L296.984175,209.28 Z" id="Stroke-30" stroke="#FFCE26" stroke-width="7.448"></path>
                    <path d="M300.335122,209.505 C300.335122,187.485 318.175902,169.63375 340.182987,169.63375 C362.190072,169.63375 380.030852,187.485 380.030852,209.505 C380.030852,231.525 362.190072,249.37625 340.182987,249.37625 C318.175902,249.37625 300.335122,231.525 300.335122,209.505" id="Fill-32" fill="#F6F6F6"></path>
                </g>
                <g id="Group-90" transform="translate(301.073314, 169.313750)">
                    <mask id="mask-4" fill="white">
                        <use xlink:href="#path-3"></use>
                    </mask>
                    <g id="Clip-36"></g>
                    <polygon id="Fill-35" fill="#BBB3B3" mask="url(#mask-4)" points="10.3589208 27.14875 11.4907566 27.14875 11.4907566 25.3 10.3589208 25.3"></polygon>
                    <polygon id="Fill-37" fill="#999595" mask="url(#mask-4)" points="7.61303226 28.48375 14.2353959 28.48375 14.2353959 26.635 7.61303226 26.635"></polygon>
                    <path d="M10.9245889,25.8635 L10.9245889,25.8635 C10.2774686,25.8635 9.75277654,25.3385 9.75277654,24.691 L9.75277654,20.486 C9.75277654,19.8385 10.2774686,19.3135 10.9245889,19.3135 L10.9245889,19.3135 C11.5717091,19.3135 12.0964012,19.8385 12.0964012,20.486 L12.0964012,24.691 C12.0964012,25.3385 11.5717091,25.8635 10.9245889,25.8635" id="Fill-38" fill="#E2E2E2" mask="url(#mask-4)"></path>
                    <path d="M37.6159249,34.459875 L37.6159249,34.459875 C37.6159249,33.812375 38.140617,33.287375 38.7877372,33.287375 L42.990271,33.287375 C43.6373912,33.287375 44.1620833,33.812375 44.1620833,34.459875 L44.1620833,34.459875 C44.1620833,35.107375 43.6373912,35.632375 42.990271,35.632375 L38.7877372,35.632375 C38.140617,35.632375 37.6159249,35.107375 37.6159249,34.459875" id="Fill-39" fill="#E2E2E2" mask="url(#mask-4)"></path>
                    <polygon id="Fill-40" fill="#E2E2E2" mask="url(#mask-4)" points="38.7872375 37.17 39.5005689 37.17 39.5005689 35.6325 38.7872375 35.6325"></polygon>
                    <polygon id="Fill-41" fill="#E2E2E2" mask="url(#mask-4)" points="42.3176657 37.17 43.0309971 37.17 43.0309971 35.6325 42.3176657 35.6325"></polygon>
                    <polygon id="Fill-42" fill="#BBB3B3" mask="url(#mask-4)" points="35.5366452 83.16125 52.786522 83.16125 52.786522 36.465 35.5366452 36.465"></polygon>
                    <polygon id="Fill-43" fill="#BBB3B3" mask="url(#mask-4)" points="0.854498534 83.15375 20.9951789 83.15375 20.9951789 26.9875 0.854498534 26.9875"></polygon>
                    <path d="M62.6499836,23.834125 C62.6499836,26.785375 60.2588868,29.176625 57.310617,29.176625 C54.3610979,29.176625 51.9700012,26.785375 51.9700012,23.834125 C51.9700012,20.882875 54.3610979,18.491625 57.310617,18.491625 C60.2588868,18.491625 62.6499836,20.882875 62.6499836,23.834125" id="Fill-44" fill="#E2E2E2" mask="url(#mask-4)"></path>
                    <path d="M47.0623812,23.834125 C47.0623812,26.352875 45.0223284,28.394125 42.5050557,28.394125 C39.987783,28.394125 37.9464809,26.352875 37.9464809,23.834125 C37.9464809,21.315375 39.987783,19.274125 42.5050557,19.274125 C45.0223284,19.274125 47.0623812,21.315375 47.0623812,23.834125" id="Fill-45" fill="#E2E2E2" mask="url(#mask-4)"></path>
                    <path d="M58.0657988,20.37875 C58.0657988,22.6925 56.1906493,24.56875 53.8782563,24.56875 C51.5658633,24.56875 49.6907138,22.6925 49.6907138,20.37875 C49.6907138,18.065 51.5658633,16.18875 53.8782563,16.18875 C56.1906493,16.18875 58.0657988,18.065 58.0657988,20.37875" id="Fill-46" fill="#E2E2E2" mask="url(#mask-4)"></path>
                    <path d="M56.1576686,24.568375 C56.1576686,28.204625 53.2118974,31.152125 49.5777801,31.152125 C45.944912,31.152125 42.9991408,28.204625 42.9991408,24.568375 C42.9991408,20.932125 45.944912,17.984625 49.5777801,17.984625 C53.2118974,17.984625 56.1576686,20.932125 56.1576686,24.568375" id="Fill-47" fill="#E2E2E2" mask="url(#mask-4)"></path>
                    <polygon id="Fill-48" fill="#E2E2E2" mask="url(#mask-4)" points="42.5038065 28.395 51.6197067 28.395 51.6197067 19.27375 42.5038065 19.27375"></polygon>
                    <polygon id="Fill-49" fill="#FFFFFF" mask="url(#mask-4)" points="52.7765279 83.155 77.3658475 83.155 77.3658475 23.67 52.7765279 23.67"></polygon>
                    <polygon id="Fill-50" fill="#E2E2E2" mask="url(#mask-4)" points="20.9089795 83.155 35.5503871 83.155 35.5503871 49.40125 20.9089795 49.40125"></polygon>
                    <polygon id="Fill-51" fill="#BBB3B3" mask="url(#mask-4)" points="22.5142874 80.70875 24.0159062 80.70875 24.0159062 51.85625 22.5142874 51.85625"></polygon>
                    <polygon id="Fill-52" fill="#BBB3B3" mask="url(#mask-4)" points="25.0552962 80.70875 26.556915 80.70875 26.556915 51.85625 25.0552962 51.85625"></polygon>
                    <polygon id="Fill-53" fill="#BBB3B3" mask="url(#mask-4)" points="27.596305 80.70875 29.0979238 80.70875 29.0979238 51.85625 27.596305 51.85625"></polygon>
                    <polygon id="Fill-54" fill="#BBB3B3" mask="url(#mask-4)" points="30.1373138 80.70875 31.6389326 80.70875 31.6389326 51.85625 30.1373138 51.85625"></polygon>
                    <polygon id="Fill-55" fill="#BBB3B3" mask="url(#mask-4)" points="32.6795718 80.70875 34.1811906 80.70875 34.1811906 51.85625 32.6795718 51.85625"></polygon>
                    <polygon id="Fill-56" fill="#E2E2E2" mask="url(#mask-4)" points="3.66285044 37.775 17.9257302 37.775 17.9257302 32.27 3.66285044 32.27"></polygon>
                    <polygon id="Fill-57" fill="#E2E2E2" mask="url(#mask-4)" points="3.66285044 47.9225 17.9257302 47.9225 17.9257302 42.4175 3.66285044 42.4175"></polygon>
                    <polygon id="Fill-58" fill="#E2E2E2" mask="url(#mask-4)" points="3.66285044 58.07 17.9257302 58.07 17.9257302 52.565 3.66285044 52.565"></polygon>
                    <polygon id="Fill-59" fill="#E2E2E2" mask="url(#mask-4)" points="3.66285044 68.2175 17.9257302 68.2175 17.9257302 62.7125 3.66285044 62.7125"></polygon>
                    <polygon id="Fill-60" fill="#E2E2E2" mask="url(#mask-4)" points="3.66285044 78.365 17.9257302 78.365 17.9257302 72.86 3.66285044 72.86"></polygon>
                    <polygon id="Fill-61" fill="#F6F6F6" mask="url(#mask-4)" points="38.1476129 44.35875 42.674956 44.35875 42.674956 39.82875 38.1476129 39.82875"></polygon>
                    <polygon id="Fill-62" fill="#F6F6F6" mask="url(#mask-4)" points="45.7706393 44.35875 50.2979824 44.35875 50.2979824 39.82875 45.7706393 39.82875"></polygon>
                    <polygon id="Fill-63" fill="#F6F6F6" mask="url(#mask-4)" points="38.1476129 51.66625 42.674956 51.66625 42.674956 47.13625 38.1476129 47.13625"></polygon>
                    <polygon id="Fill-64" fill="#F6F6F6" mask="url(#mask-4)" points="45.7706393 51.66625 50.2979824 51.66625 50.2979824 47.13625 45.7706393 47.13625"></polygon>
                    <polygon id="Fill-65" fill="#F6F6F6" mask="url(#mask-4)" points="38.1476129 58.97375 42.674956 58.97375 42.674956 54.44375 38.1476129 54.44375"></polygon>
                    <polygon id="Fill-66" fill="#F6F6F6" mask="url(#mask-4)" points="45.7706393 58.97375 50.2979824 58.97375 50.2979824 54.44375 45.7706393 54.44375"></polygon>
                    <polygon id="Fill-67" fill="#F6F6F6" mask="url(#mask-4)" points="38.1476129 66.28125 42.674956 66.28125 42.674956 61.75125 38.1476129 61.75125"></polygon>
                    <polygon id="Fill-68" fill="#F6F6F6" mask="url(#mask-4)" points="45.7706393 66.28125 50.2979824 66.28125 50.2979824 61.75125 45.7706393 61.75125"></polygon>
                    <polygon id="Fill-69" fill="#F6F6F6" mask="url(#mask-4)" points="38.1476129 73.58875 42.674956 73.58875 42.674956 69.05875 38.1476129 69.05875"></polygon>
                    <polygon id="Fill-70" fill="#F6F6F6" mask="url(#mask-4)" points="45.7706393 73.58875 50.2979824 73.58875 50.2979824 69.05875 45.7706393 69.05875"></polygon>
                    <polygon id="Fill-71" fill="#F6F6F6" mask="url(#mask-4)" points="38.1476129 80.89625 42.674956 80.89625 42.674956 76.36625 38.1476129 76.36625"></polygon>
                    <polygon id="Fill-72" fill="#F6F6F6" mask="url(#mask-4)" points="45.7706393 80.89625 50.2979824 80.89625 50.2979824 76.36625 45.7706393 76.36625"></polygon>
                    <path d="M19.4582059,8.528875 C19.4582059,11.480125 21.8493026,13.871375 24.7975724,13.871375 C27.7470915,13.871375 30.1381883,11.480125 30.1381883,8.528875 C30.1381883,5.577625 27.7470915,3.186375 24.7975724,3.186375 C21.8493026,3.186375 19.4582059,5.577625 19.4582059,8.528875" id="Fill-73" fill="#BBB3B3" mask="url(#mask-4)"></path>
                    <path d="M35.0460581,8.528875 C35.0460581,11.047625 37.0861109,13.088875 39.6033836,13.088875 C42.1206563,13.088875 44.1619584,11.047625 44.1619584,8.528875 C44.1619584,6.010125 42.1206563,3.968875 39.6033836,3.968875 C37.0861109,3.968875 35.0460581,6.010125 35.0460581,8.528875" id="Fill-74" fill="#BBB3B3" mask="url(#mask-4)"></path>
                    <path d="M24.0425155,5.0735 C24.0425155,7.38725 25.9176651,9.2635 28.2300581,9.2635 C30.542451,9.2635 32.4176006,7.38725 32.4176006,5.0735 C32.4176006,2.75975 30.542451,0.8835 28.2300581,0.8835 C25.9176651,0.8835 24.0425155,2.75975 24.0425155,5.0735" id="Fill-75" fill="#BBB3B3" mask="url(#mask-4)"></path>
                    <path d="M25.9506457,9.26325 C25.9506457,12.8995 28.896417,15.847 32.5305343,15.847 C36.1634023,15.847 39.1091736,12.8995 39.1091736,9.26325 C39.1091736,5.627 36.1634023,2.6795 32.5305343,2.6795 C28.896417,2.6795 25.9506457,5.627 25.9506457,9.26325" id="Fill-76" fill="#BBB3B3" mask="url(#mask-4)"></path>
                    <polygon id="Fill-77" fill="#BBB3B3" mask="url(#mask-4)" points="30.4883578 13.08875 39.6042581 13.08875 39.6042581 3.9675 30.4883578 3.9675"></polygon>
                    <polygon id="Fill-78" fill="#E2E2E2" mask="url(#mask-4)" points="56.1595425 34.5925 63.4440176 34.5925 63.4440176 27.30375 56.1595425 27.30375"></polygon>
                    <polygon id="Fill-79" fill="#E2E2E2" mask="url(#mask-4)" points="66.6971085 34.5925 73.9815836 34.5925 73.9815836 27.30375 66.6971085 27.30375"></polygon>
                    <polygon id="Fill-80" fill="#E2E2E2" mask="url(#mask-4)" points="56.1595425 49.69375 63.4440176 49.69375 63.4440176 42.405 56.1595425 42.405"></polygon>
                    <polygon id="Fill-81" fill="#E2E2E2" mask="url(#mask-4)" points="66.6971085 49.69375 73.9815836 49.69375 73.9815836 42.405 66.6971085 42.405"></polygon>
                    <polygon id="Fill-82" fill="#E2E2E2" mask="url(#mask-4)" points="56.1595425 64.7475 63.4440176 64.7475 63.4440176 57.45875 56.1595425 57.45875"></polygon>
                    <polygon id="Fill-83" fill="#E2E2E2" mask="url(#mask-4)" points="66.6971085 64.7475 73.9815836 64.7475 73.9815836 57.45875 66.6971085 57.45875"></polygon>
                    <polygon id="Fill-84" fill="#E2E2E2" mask="url(#mask-4)" points="56.1595425 74.63 63.4440176 74.63 63.4440176 67.34125 56.1595425 67.34125"></polygon>
                    <polygon id="Fill-85" fill="#E2E2E2" mask="url(#mask-4)" points="66.6971085 74.63 73.9815836 74.63 73.9815836 67.34125 66.6971085 67.34125"></polygon>
                    <polygon id="Fill-86" fill="#E2E2E2" mask="url(#mask-4)" points="56.1595425 54.95375 63.4440176 54.95375 63.4440176 52.5425 56.1595425 52.5425"></polygon>
                    <polygon id="Fill-87" fill="#E2E2E2" mask="url(#mask-4)" points="66.6971085 54.95375 73.9815836 54.95375 73.9815836 52.5425 66.6971085 52.5425"></polygon>
                    <polygon id="Fill-88" fill="#E2E2E2" mask="url(#mask-4)" points="56.1595425 39.55 73.9815836 39.55 73.9815836 37.26125 56.1595425 37.26125"></polygon>
                    <polygon id="Fill-89" fill="#E2E2E2" mask="url(#mask-4)" points="56.1595425 79.5225 73.9815836 79.5225 73.9815836 77.23375 56.1595425 77.23375"></polygon>
                </g>
                <path d="M188.666405,210.06875 C188.666405,188.04875 206.507185,170.1975 228.51427,170.1975 C250.521355,170.1975 268.362135,188.04875 268.362135,210.06875 C268.362135,232.08875 250.521355,249.94 228.51427,249.94 C206.507185,249.94 188.666405,232.08875 188.666405,210.06875" id="Fill-91" fill="#F6F6F6"></path>
                <g id="Group-162" transform="translate(188.639296, 169.313750)">
                    <path d="M48.3926006,34.459875 C48.3926006,33.812375 48.9172927,33.287375 49.5644129,33.287375 L53.7669466,33.287375 C54.4140669,33.287375 54.9387589,33.812375 54.9387589,34.459875 C54.9387589,35.107375 54.4140669,35.632375 53.7669466,35.632375 L49.5644129,35.632375 C48.9172927,35.632375 48.3926006,35.107375 48.3926006,34.459875 L48.3926006,34.459875 Z" id="Fill-93" fill="#E2E2E2"></path>
                    <mask id="mask-6" fill="white">
                        <use xlink:href="#path-5"></use>
                    </mask>
                    <g id="Clip-96"></g>
                    <polygon id="Fill-95" fill="#E2E2E2" mask="url(#mask-6)" points="49.5646628 37.17 50.2779941 37.17 50.2779941 35.6325 49.5646628 35.6325"></polygon>
                    <polygon id="Fill-97" fill="#E2E2E2" mask="url(#mask-6)" points="53.0938416 37.17 53.807173 37.17 53.807173 35.6325 53.0938416 35.6325"></polygon>
                    <path d="M63.4152845,23.834125 C63.4152845,26.785375 61.0241877,29.176625 58.0759179,29.176625 C55.1263988,29.176625 52.7353021,26.785375 52.7353021,23.834125 C52.7353021,20.882875 55.1263988,18.491625 58.0759179,18.491625 C61.0241877,18.491625 63.4152845,20.882875 63.4152845,23.834125" id="Fill-98" fill="#E2E2E2" mask="url(#mask-6)"></path>
                    <path d="M47.8275572,23.834125 C47.8275572,26.352875 45.7875044,28.394125 43.2702317,28.394125 C40.7529589,28.394125 38.7116569,26.352875 38.7116569,23.834125 C38.7116569,21.315375 40.7529589,19.274125 43.2702317,19.274125 C45.7875044,19.274125 47.8275572,21.315375 47.8275572,23.834125" id="Fill-99" fill="#E2E2E2" mask="url(#mask-6)"></path>
                    <path d="M58.8310997,20.37875 C58.8310997,22.6925 56.9559501,24.56875 54.6435572,24.56875 C52.3311642,24.56875 50.4560147,22.6925 50.4560147,20.37875 C50.4560147,18.065 52.3311642,16.18875 54.6435572,16.18875 C56.9559501,16.18875 58.8310997,18.065 58.8310997,20.37875" id="Fill-100" fill="#E2E2E2" mask="url(#mask-6)"></path>
                    <path d="M56.9229695,24.568375 C56.9229695,28.204625 53.9771982,31.152125 50.3430809,31.152125 C46.7102129,31.152125 43.7644416,28.204625 43.7644416,24.568375 C43.7644416,20.932125 46.7102129,17.984625 50.3430809,17.984625 C53.9771982,17.984625 56.9229695,20.932125 56.9229695,24.568375" id="Fill-101" fill="#E2E2E2" mask="url(#mask-6)"></path>
                    <polygon id="Fill-102" fill="#E2E2E2" mask="url(#mask-6)" points="43.269607 28.395 52.3855073 28.395 52.3855073 19.27375 43.269607 19.27375"></polygon>
                    <polygon id="Fill-103" fill="#E2E2E2" mask="url(#mask-6)" points="31.6864047 83.155 46.3278123 83.155 46.3278123 49.40125 31.6864047 49.40125"></polygon>
                    <polygon id="Fill-104" fill="#BBB3B3" mask="url(#mask-6)" points="33.2904633 80.70875 34.7920821 80.70875 34.7920821 51.85625 33.2904633 51.85625"></polygon>
                    <polygon id="Fill-105" fill="#BBB3B3" mask="url(#mask-6)" points="35.8327214 80.70875 37.3343402 80.70875 37.3343402 51.85625 35.8327214 51.85625"></polygon>
                    <polygon id="Fill-106" fill="#BBB3B3" mask="url(#mask-6)" points="38.3737302 80.70875 39.875349 80.70875 39.875349 51.85625 38.3737302 51.85625"></polygon>
                    <polygon id="Fill-107" fill="#BBB3B3" mask="url(#mask-6)" points="40.914739 80.70875 42.4163578 80.70875 42.4163578 51.85625 40.914739 51.85625"></polygon>
                    <polygon id="Fill-108" fill="#BBB3B3" mask="url(#mask-6)" points="43.4557478 80.70875 44.9573666 80.70875 44.9573666 51.85625 43.4557478 51.85625"></polygon>
                    <polygon id="Fill-109" fill="#BBB3B3" mask="url(#mask-6)" points="21.1350968 27.14875 22.2669326 27.14875 22.2669326 25.3 21.1350968 25.3"></polygon>
                    <polygon id="Fill-110" fill="#999595" mask="url(#mask-6)" points="18.3904575 28.28875 25.0128211 28.28875 25.0128211 26.44 18.3904575 26.44"></polygon>
                    <path d="M21.7013894,25.8635 L21.7013894,25.8635 C21.0542692,25.8635 20.5295771,25.3385 20.5295771,24.691 L20.5295771,20.486 C20.5295771,19.8385 21.0542692,19.3135 21.7013894,19.3135 L21.7013894,19.3135 C22.3485097,19.3135 22.8732018,19.8385 22.8732018,20.486 L22.8732018,24.691 C22.8732018,25.3385 22.3485097,25.8635 21.7013894,25.8635" id="Fill-111" fill="#E2E2E2" mask="url(#mask-6)"></path>
                    <polygon id="Fill-112" fill="#BBB3B3" mask="url(#mask-6)" points="11.6306745 83.15375 31.7713548 83.15375 31.7713548 26.9875 11.6306745 26.9875"></polygon>
                    <polygon id="Fill-113" fill="#E2E2E2" mask="url(#mask-6)" points="14.4402757 37.775 28.7031554 37.775 28.7031554 32.27 14.4402757 32.27"></polygon>
                    <polygon id="Fill-114" fill="#E2E2E2" mask="url(#mask-6)" points="14.4402757 47.9225 28.7031554 47.9225 28.7031554 42.4175 14.4402757 42.4175"></polygon>
                    <polygon id="Fill-115" fill="#E2E2E2" mask="url(#mask-6)" points="14.4402757 58.07 28.7031554 58.07 28.7031554 52.565 14.4402757 52.565"></polygon>
                    <polygon id="Fill-116" fill="#E2E2E2" mask="url(#mask-6)" points="14.4402757 68.2175 28.7031554 68.2175 28.7031554 62.7125 14.4402757 62.7125"></polygon>
                    <polygon id="Fill-117" fill="#E2E2E2" mask="url(#mask-6)" points="14.4402757 78.365 28.7031554 78.365 28.7031554 72.86 14.4402757 72.86"></polygon>
                    <polygon id="Fill-118" fill="#BBB3B3" mask="url(#mask-6)" points="46.3140704 83.16125 63.5639472 83.16125 63.5639472 36.465 46.3140704 36.465"></polygon>
                    <polygon id="Fill-119" fill="#F6F6F6" mask="url(#mask-6)" points="48.9237889 44.35875 53.451132 44.35875 53.451132 39.82875 48.9237889 39.82875"></polygon>
                    <polygon id="Fill-120" fill="#F6F6F6" mask="url(#mask-6)" points="56.5480645 44.35875 61.0754076 44.35875 61.0754076 39.82875 56.5480645 39.82875"></polygon>
                    <polygon id="Fill-121" fill="#F6F6F6" mask="url(#mask-6)" points="48.9237889 51.66625 53.451132 51.66625 53.451132 47.13625 48.9237889 47.13625"></polygon>
                    <polygon id="Fill-122" fill="#F6F6F6" mask="url(#mask-6)" points="56.5480645 51.66625 61.0754076 51.66625 61.0754076 47.13625 56.5480645 47.13625"></polygon>
                    <polygon id="Fill-123" fill="#F6F6F6" mask="url(#mask-6)" points="48.9237889 58.97375 53.451132 58.97375 53.451132 54.44375 48.9237889 54.44375"></polygon>
                    <polygon id="Fill-124" fill="#F6F6F6" mask="url(#mask-6)" points="56.5480645 58.97375 61.0754076 58.97375 61.0754076 54.44375 56.5480645 54.44375"></polygon>
                    <polygon id="Fill-125" fill="#F6F6F6" mask="url(#mask-6)" points="48.9237889 66.28125 53.451132 66.28125 53.451132 61.75125 48.9237889 61.75125"></polygon>
                    <polygon id="Fill-126" fill="#F6F6F6" mask="url(#mask-6)" points="56.5480645 66.28125 61.0754076 66.28125 61.0754076 61.75125 56.5480645 61.75125"></polygon>
                    <polygon id="Fill-127" fill="#F6F6F6" mask="url(#mask-6)" points="48.9237889 73.58875 53.451132 73.58875 53.451132 69.05875 48.9237889 69.05875"></polygon>
                    <polygon id="Fill-128" fill="#F6F6F6" mask="url(#mask-6)" points="56.5480645 73.58875 61.0754076 73.58875 61.0754076 69.05875 56.5480645 69.05875"></polygon>
                    <polygon id="Fill-129" fill="#F6F6F6" mask="url(#mask-6)" points="48.9237889 80.89625 53.451132 80.89625 53.451132 76.36625 48.9237889 76.36625"></polygon>
                    <polygon id="Fill-130" fill="#F6F6F6" mask="url(#mask-6)" points="56.5480645 80.89625 61.0754076 80.89625 61.0754076 76.36625 56.5480645 76.36625"></polygon>
                    <path d="M15.2264393,11.028875 C15.2264393,13.980125 17.6175361,16.371375 20.5658059,16.371375 C23.5153249,16.371375 25.9064217,13.980125 25.9064217,11.028875 C25.9064217,8.077625 23.5153249,5.686375 20.5658059,5.686375 C17.6175361,5.686375 15.2264393,8.077625 15.2264393,11.028875" id="Fill-131" fill="#BBB3B3" mask="url(#mask-6)"></path>
                    <path d="M30.8141666,11.028875 C30.8141666,13.547625 32.8542194,15.588875 35.3714921,15.588875 C37.8887648,15.588875 39.9300669,13.547625 39.9300669,11.028875 C39.9300669,8.510125 37.8887648,6.468875 35.3714921,6.468875 C32.8542194,6.468875 30.8141666,8.510125 30.8141666,11.028875" id="Fill-132" fill="#BBB3B3" mask="url(#mask-6)"></path>
                    <path d="M19.810749,7.5735 C19.810749,9.88725 21.6858985,11.7635 23.9982915,11.7635 C26.3106845,11.7635 28.185834,9.88725 28.185834,7.5735 C28.185834,5.25975 26.3106845,3.3835 23.9982915,3.3835 C21.6858985,3.3835 19.810749,5.25975 19.810749,7.5735" id="Fill-133" fill="#BBB3B3" mask="url(#mask-6)"></path>
                    <path d="M21.7188792,11.76325 C21.7188792,15.3995 24.6646504,18.347 28.2987677,18.347 C31.9316358,18.347 34.877407,15.3995 34.877407,11.76325 C34.877407,8.127 31.9316358,5.1795 28.2987677,5.1795 C24.6646504,5.1795 21.7188792,8.127 21.7188792,11.76325" id="Fill-134" fill="#BBB3B3" mask="url(#mask-6)"></path>
                    <polygon id="Fill-135" fill="#BBB3B3" mask="url(#mask-6)" points="26.2558416 15.58875 35.3717419 15.58875 35.3717419 6.4675 26.2558416 6.4675"></polygon>
                    <polygon id="Fill-136" fill="#FFFFFF" mask="url(#mask-6)" points="63.5527038 83.155 88.1420235 83.155 88.1420235 23.67 63.5527038 23.67"></polygon>
                    <polygon id="Fill-137" fill="#E2E2E2" mask="url(#mask-6)" points="66.9369677 34.5925 74.2214428 34.5925 74.2214428 27.30375 66.9369677 27.30375"></polygon>
                    <polygon id="Fill-138" fill="#E2E2E2" mask="url(#mask-6)" points="77.4732845 34.5925 84.7577595 34.5925 84.7577595 27.30375 77.4732845 27.30375"></polygon>
                    <polygon id="Fill-139" fill="#E2E2E2" mask="url(#mask-6)" points="66.9369677 49.69375 74.2214428 49.69375 74.2214428 42.405 66.9369677 42.405"></polygon>
                    <polygon id="Fill-140" fill="#E2E2E2" mask="url(#mask-6)" points="77.4732845 49.69375 84.7577595 49.69375 84.7577595 42.405 77.4732845 42.405"></polygon>
                    <polygon id="Fill-141" fill="#E2E2E2" mask="url(#mask-6)" points="66.9369677 64.7475 74.2214428 64.7475 74.2214428 57.45875 66.9369677 57.45875"></polygon>
                    <polygon id="Fill-142" fill="#E2E2E2" mask="url(#mask-6)" points="77.4732845 64.7475 84.7577595 64.7475 84.7577595 57.45875 77.4732845 57.45875"></polygon>
                    <polygon id="Fill-143" fill="#E2E2E2" mask="url(#mask-6)" points="66.9369677 74.63 74.2214428 74.63 74.2214428 67.34125 66.9369677 67.34125"></polygon>
                    <polygon id="Fill-144" fill="#E2E2E2" mask="url(#mask-6)" points="77.4732845 74.63 84.7577595 74.63 84.7577595 67.34125 77.4732845 67.34125"></polygon>
                    <polygon id="Fill-145" fill="#E2E2E2" mask="url(#mask-6)" points="66.9369677 54.95375 74.2214428 54.95375 74.2214428 52.5425 66.9369677 52.5425"></polygon>
                    <polygon id="Fill-146" fill="#E2E2E2" mask="url(#mask-6)" points="77.4732845 54.95375 84.7577595 54.95375 84.7577595 52.5425 77.4732845 52.5425"></polygon>
                    <polygon id="Fill-147" fill="#E2E2E2" mask="url(#mask-6)" points="66.9357185 39.55 84.7577595 39.55 84.7577595 37.26125 66.9357185 37.26125"></polygon>
                    <polygon id="Fill-148" fill="#E2E2E2" mask="url(#mask-6)" points="66.9357185 79.5225 84.7577595 79.5225 84.7577595 77.23375 66.9357185 77.23375"></polygon>
                    <polygon id="Fill-149" fill="#FFFFFF" mask="url(#mask-6)" points="-12.8724457 83.13375 11.7168739 83.13375 11.7168739 34.27375 -12.8724457 34.27375"></polygon>
                    <polygon id="Fill-150" fill="#E2E2E2" mask="url(#mask-6)" points="-9.48943109 43.245 -2.20495601 43.245 -2.20495601 37.25875 -9.48943109 37.25875"></polygon>
                    <polygon id="Fill-151" fill="#E2E2E2" mask="url(#mask-6)" points="1.0481349 43.245 8.33260997 43.245 8.33260997 37.25875 1.0481349 37.25875"></polygon>
                    <polygon id="Fill-152" fill="#E2E2E2" mask="url(#mask-6)" points="-9.48943109 55.64875 -2.20495601 55.64875 -2.20495601 49.6625 -9.48943109 49.6625"></polygon>
                    <polygon id="Fill-153" fill="#E2E2E2" mask="url(#mask-6)" points="1.0481349 55.64875 8.33260997 55.64875 8.33260997 49.6625 1.0481349 49.6625"></polygon>
                    <polygon id="Fill-154" fill="#E2E2E2" mask="url(#mask-6)" points="-9.48943109 68.015 -2.20495601 68.015 -2.20495601 62.02875 -9.48943109 62.02875"></polygon>
                    <polygon id="Fill-155" fill="#E2E2E2" mask="url(#mask-6)" points="1.0481349 68.015 8.33260997 68.015 8.33260997 62.02875 1.0481349 62.02875"></polygon>
                    <polygon id="Fill-156" fill="#E2E2E2" mask="url(#mask-6)" points="-9.48943109 76.13125 -2.20495601 76.13125 -2.20495601 70.145 -9.48943109 70.145"></polygon>
                    <polygon id="Fill-157" fill="#E2E2E2" mask="url(#mask-6)" points="1.0481349 76.13125 8.33260997 76.13125 8.33260997 70.145 1.0481349 70.145"></polygon>
                    <polygon id="Fill-158" fill="#E2E2E2" mask="url(#mask-6)" points="-9.48943109 59.97 -2.20495601 59.97 -2.20495601 57.98875 -9.48943109 57.98875"></polygon>
                    <polygon id="Fill-159" fill="#E2E2E2" mask="url(#mask-6)" points="1.0481349 59.97 8.33260997 59.97 8.33260997 57.98875 1.0481349 57.98875"></polygon>
                    <polygon id="Fill-160" fill="#E2E2E2" mask="url(#mask-6)" points="-9.48943109 47.3175 8.33260997 47.3175 8.33260997 45.4375 -9.48943109 45.4375"></polygon>
                    <polygon id="Fill-161" fill="#E2E2E2" mask="url(#mask-6)" points="-9.48943109 80.15 8.33260997 80.15 8.33260997 78.27 -9.48943109 78.27"></polygon>
                </g>
                <path d="M271.314959,209.868985 C271.314959,186.106602 252.063404,166.84375 228.314959,166.84375 C204.566513,166.84375 185.314959,186.106602 185.314959,209.868985 C185.314959,233.631367 204.566513,252.894219 228.314959,252.894219 C252.063404,252.894219 271.314959,233.631367 271.314959,209.868985 L271.314959,209.868985 Z" id="Stroke-163" stroke="#FFCE26" stroke-width="7.448"></path>
            </g>
        </g>
    </g>
</svg>