<?xml version="1.0" encoding="UTF-8" standalone="no"?>
<svg width="426px" height="504px" viewBox="0 0 426 504" version="1.1" xmlns="http://www.w3.org/2000/svg" xmlns:xlink="http://www.w3.org/1999/xlink">
    <!-- Generator: Sketch 3.8.3 (29802) - http://www.bohemiancoding.com/sketch -->
    <title>Page 1</title>
    <desc>Created with Sketch.</desc>
    <defs>
        <polygon id="path-1" points="289.278053 503.75 0 503.75 0 0.68625 289.278053 0.68625 289.278053 503.75"></polygon>
        <path d="M19.7943204,0.345372639 C11.8065607,2.9551826 4.92927009,8.02208934 0.0540906072,14.6536831 L19.7943204,14.6536831 L19.7943204,0.345372639 L19.7943204,0.345372639 Z" id="path-3"></path>
        <path d="M0.371166766,37.6886149 C18.7758347,34.9437803 33.0708026,19.6056994 34.2202337,0.715511613 L0.371166766,0.715511613 L0.371166766,37.6886149 L0.371166766,37.6886149 Z" id="path-5"></path>
        <path d="M30.2023971,41.8240318 C32.0365597,37.242826 33.045607,32.241802 33.045607,27.005 C33.045607,16.6786976 29.1221502,7.26916635 22.685477,0.187474383 L0.243388483,0.187474383 L0.243388483,41.8240318 L30.2023971,41.8240318 L30.2023971,41.8240318 Z" id="path-7"></path>
        <path d="M0.162102326,0.987720836 C2.54004109,19.1388035 17.119275,33.4477458 35.3917463,35.3991632 L35.3917463,0.987720836 L0.162102326,0.987720836 L0.162102326,0.987720836 Z" id="path-9"></path>
        <path d="M0.177770674,25.6196268 C6.37153918,25.5077186 12.2202713,23.9817498 17.4151548,21.3507137 L17.4151548,0.887375 L0.177770674,0.887375 L0.177770674,25.6196268 L0.177770674,25.6196268 Z" id="path-11"></path>
        <path d="M0.831540085,0.385415776 C0.882235352,2.72686063 1.13465074,5.01859111 1.57209285,7.24389945 L10.107843,7.24389945 L10.107843,0.385415776 L0.831540085,0.385415776 L0.831540085,0.385415776 Z" id="path-13"></path>
        <path d="M0.815780235,0.674803598 C1.221238,2.25930334 1.72156358,3.80578774 2.31034393,5.30783824 L6.67135765,5.30783824 L6.67135765,0.674803598 L0.815780235,0.674803598 L0.815780235,0.674803598 Z" id="path-15"></path>
        <path d="M22.7356575,16.577391 C17.5685736,8.74056226 9.71129758,2.83616803 0.479782311,0.180933564 L0.479782311,17.3812836 L22.7356575,17.3812836 L22.7356575,16.577391 L22.7356575,16.577391 Z" id="path-17"></path>
        <path d="M0.371166766,37.6886149 C18.7758347,34.9437803 33.0708026,19.6056994 34.2202337,0.715511613 L0.371166766,0.715511613 L0.371166766,37.6886149 L0.371166766,37.6886149 Z" id="path-19"></path>
        <path d="M0.162102326,0.987720836 C2.54004109,19.1388035 17.119275,33.4477458 35.3917463,35.3991632 L35.3917463,0.987720836 L0.162102326,0.987720836 L0.162102326,0.987720836 Z" id="path-21"></path>
        <path d="M0.238773021,25.3802506 C1.70024892,25.5427922 3.18558479,25.62625 4.69041056,25.62625 C6.94908119,25.62625 9.16386524,25.4382104 11.319979,25.0769234 L11.319979,0.28175 L0.238773021,0.28175 L0.238773021,25.3802506 L0.238773021,25.3802506 Z" id="path-23"></path>
        <path d="M3.95130157,44.0197837 C1.93624254,39.2509448 0.822017595,34.0081587 0.822017595,28.505 C0.822017595,17.4462548 5.32147874,7.43894572 12.5887625,0.216202626 L45.355879,0.216202626 L45.355879,44.0197837 L3.95130157,44.0197837 L3.95130157,44.0197837 Z" id="path-25"></path>
        <path d="M29.849947,34.1755183 C31.9068858,29.3651793 33.045607,24.0681288 33.045607,18.505 C33.045607,11.8655165 31.4236184,5.60503352 28.5544947,0.0986245922 L0.421503023,0.0986245922 L0.421503023,34.1755173 L29.8499528,34.1755173 L29.849947,34.1755183 Z" id="path-27"></path>
    </defs>
    <g id="Page-1" stroke="none" stroke-width="1" fill="none" fill-rule="evenodd">
        <g id="Desktop-HD-Copy-12" transform="translate(-175.000000, -149.000000)">
            <g id="Page-1" transform="translate(175.000000, 148.000000)">
                <g id="Group-40" transform="translate(0.000000, 0.563750)">
                    <path d="M287.128997,329.175375 C285.285079,361.470375 278.883836,408.116625 308.110434,428.186625 C323.358985,438.656625 345.207413,446.547875 371.651894,439.692875 C388.215924,435.397875 405.523267,421.106625 415.458686,407.166625 C428.316141,389.127875 427.419167,364.356625 420.357062,343.356625 C413.294956,322.357875 400.879742,303.626625 391.61268,283.502875 C383.121413,265.061625 376.931296,243.785375 381.57732,223.459125 C386.408235,202.331625 392.5159,181.495375 394.913243,159.872875 C397.545449,136.136625 395.61783,111.572875 386.619361,89.454125 C377.620891,67.335375 361.144311,47.836625 339.544487,37.676625 C317.944663,27.516625 291.201607,27.592875 270.892276,40.135375 C266.552323,49.497875 261.487795,59.302875 268.152633,63.854125 C281.60349,73.037875 310.306645,69.882875 329.199308,102.190375 C340.635097,121.749125 338.542575,125.266625 340.531408,147.160375 C341.449619,157.271625 340.265314,167.496625 340.998633,177.734125 C341.879367,190.029125 343.929413,202.200375 345.547214,214.409125 C348.429273,236.145375 349.785977,259.080375 341.104821,279.212875 C330.259935,304.361625 310.197959,314.429125 287.128997,329.175375" id="Fill-1" fill="#225CBD"></path>
                    <path d="M181.215278,317.903 C203.804521,334.8555 241.708527,344.1955 274.866568,333.913 C309.878521,323.05675 342.012164,290.5305 347.668844,254.29425 C353.239325,218.60425 339.920891,182.40175 342.420674,146.3655 C344.845501,111.413 317.620228,82.0805 285.272961,68.6605" id="Stroke-3" stroke="#FFFFFF" stroke-width="4.521" stroke-linecap="round" stroke-linejoin="round"></path>
                    <path d="M292.767688,269.186625 C288.938685,269.447875 281.369377,270.054125 274.435946,267.994125" id="Stroke-5" stroke="#FF6A4D" stroke-width="9.421" stroke-linecap="round" stroke-linejoin="round"></path>
                    <path d="M255.166504,212.452125 C247.132469,212.225875 239.098434,211.998375 231.064399,211.772125 C228.783238,211.708375 226.425871,211.625875 224.362082,210.652125 C222.165871,209.617125 220.516839,207.650875 219.411238,205.488375 C218.306886,203.324625 217.690997,200.950875 217.082604,198.599625" id="Stroke-7" stroke="#4273C4" stroke-width="3.14" stroke-linecap="round" stroke-linejoin="round"></path>
                    <path d="M231.605082,211.401875 C228.052167,207.794375 225.62734,203.090625 224.750354,198.101875" id="Stroke-9" stroke="#4273C4" stroke-width="3.14" stroke-linecap="round" stroke-linejoin="round"></path>
                    <path d="M321.227861,212.2255 C329.261896,211.99925 329.261896,211.99925 337.295931,211.77175 C339.577093,211.708 341.934459,211.62675 343.998248,210.653 C346.194459,209.61675 347.844741,207.65175 348.949093,205.488 C350.053445,203.3255 350.669333,200.95175 351.277726,198.59925" id="Stroke-11" stroke="#4273C4" stroke-width="3.14" stroke-linecap="round" stroke-linejoin="round"></path>
                    <path d="M336.755499,211.401875 C340.308413,207.794375 342.73324,203.090625 343.610226,198.101875" id="Stroke-13" stroke="#4273C4" stroke-width="3.14" stroke-linecap="round" stroke-linejoin="round"></path>
                    <path d="M230.574311,218.735875 C230.574311,220.180875 229.403748,221.352125 227.959596,221.352125 C226.514194,221.352125 225.343631,220.180875 225.343631,218.735875 C225.343631,217.290875 226.514194,216.119625 227.959596,216.119625 C229.403748,216.119625 230.574311,217.290875 230.574311,218.735875" id="Fill-15" fill="#4273C4"></path>
                    <path d="M215.6838,172.287625 L237.259888,172.287625 C241.592345,172.287625 245.105284,168.772625 245.105284,164.437625 C245.105284,160.101375 241.592345,156.586375 237.259888,156.586375 L215.6838,156.586375 C211.350093,156.586375 207.838404,160.101375 207.838404,164.437625 C207.838404,168.772625 211.350093,172.287625 215.6838,172.287625 L215.6838,172.287625 Z" id="Stroke-17" stroke="#FFFFFF" stroke-width="4.71" stroke-linecap="round" stroke-linejoin="round"></path>
                    <path d="M342.197555,156.58675 L325.361185,156.58675 C321.118675,156.58675 317.679443,160.3555 317.679443,164.6005 L317.679443,164.6005 C317.679443,168.8455 321.118675,172.288 325.361185,172.288 L342.197555,172.288" id="Stroke-19" stroke="#FFFFFF" stroke-width="4.71" stroke-linecap="round" stroke-linejoin="round"></path>
                    <g id="Group-23">
                        <mask id="mask-2" fill="white">
                            <use xlink:href="#path-1"></use>
                        </mask>
                        <g id="Clip-22"></g>
                        <path d="M240.511979,3.47625 C208.566977,-4.1675 134.310554,0.49375 97.916912,61.395 C61.5232698,122.29625 75.7161906,198.54 70.465522,237.38125 C63.5245953,288.71875 34.3704545,312.77125 15.9799971,334.16125 C2.78149267,349.51375 -6.177,374.82375 5.20756891,395.88125 C15.5602434,415.03 26.4963255,416.065 36.6840968,419.44125 C52.0800616,424.545 66.6602551,419.74125 79.8774985,443.32875 C101.83961,482.52375 136.977739,517.68375 190.94107,498.22 C244.904402,478.75625 254.92727,440.4575 252.424988,411.5775 C249.923956,382.69625 244.904402,354.12875 199.098783,326.50375 C153.291915,298.87875 152.037651,233.89625 152.037651,233.89625 C152.037651,233.89625 115.963821,240.27 116.898273,206.5925 C117.526654,183.9825 139.487516,187.435 139.487516,187.435 C139.487516,187.435 135.723475,211.75875 150.782138,212.46875 C165.84205,213.1775 160.822496,193.80375 175.881158,173.35375 C190.94107,152.90375 214.795821,132.8125 236.124554,125.90625 C257.454537,119 281.198103,101.72125 286.059,85.72375 C290.919897,69.7275 298.240601,17.28875 240.511979,3.47625" id="Fill-21" fill="#225CBD" mask="url(#mask-2)"></path>
                    </g>
                    <path d="M217.082729,20.81275 C180.114424,20.81275 130.692178,34.549 109.903128,84.39275" id="Stroke-24" stroke="#033A96" stroke-width="9.419" stroke-linecap="round" stroke-linejoin="round"></path>
                    <path d="M98.0382158,103.967875 C98.0382158,107.246625 100.694157,109.904125 103.970984,109.904125 C107.247811,109.904125 109.903752,107.246625 109.903752,103.967875 C109.903752,100.689125 107.247811,98.031625 103.970984,98.031625 C100.694157,98.031625 98.0382158,100.689125 98.0382158,103.967875" id="Fill-26" fill="#033A96"></path>
                    <path d="M271.95299,206.013625 C274.681389,199.148625 279.713436,194.916125 285.119013,194.957375 C293.289219,195.019875 297.621676,204.808625 297.886521,205.431125" id="Stroke-28" stroke="#FFCE26" stroke-width="6.169"></path>
                    <path d="M295.984175,209.505 C295.984175,185.08 315.772562,165.28 340.183237,165.28 C364.593911,165.28 384.382299,185.08 384.382299,209.505 C384.382299,233.93 364.593911,253.73 340.183237,253.73 C315.772562,253.73 295.984175,233.93 295.984175,209.505" id="Fill-30" fill="#F6F6F6"></path>
                    <path d="M296.984175,209.305235 C296.984175,185.542852 316.23573,166.28 339.984175,166.28 C363.732621,166.28 382.984175,185.542852 382.984175,209.305235 C382.984175,233.067617 363.732621,252.330469 339.984175,252.330469 C316.23573,252.330469 296.984175,233.067617 296.984175,209.305235 L296.984175,209.305235 Z" id="Stroke-32" stroke="#FFCE26" stroke-width="7.448"></path>
                    <path d="M272.713082,209.505 C272.713082,185.08 252.924695,165.28 228.514021,165.28 C204.103346,165.28 184.314959,185.08 184.314959,209.505 C184.314959,233.93 204.103346,253.73 228.514021,253.73 C252.924695,253.73 272.713082,233.93 272.713082,209.505" id="Fill-34" fill="#F6F6F6"></path>
                    <path d="M272.314959,209 C272.314959,185.251555 253.063404,166 229.314959,166 C205.566513,166 186.314959,185.251555 186.314959,209 C186.314959,232.748445 205.566513,252 229.314959,252 C253.063404,252 272.314959,232.748445 272.314959,209 L272.314959,209 Z" id="Stroke-36" stroke="#FFCE26" stroke-width="7.448"></path>
                    <path d="M300.64594,209.505 C300.64594,187.485 318.48672,169.63375 340.493805,169.63375 C362.50089,169.63375 380.34167,187.485 380.34167,209.505 C380.34167,231.525 362.50089,249.37625 340.493805,249.37625 C318.48672,249.37625 300.64594,231.525 300.64594,209.505" id="Fill-38" fill="#C6F2EB"></path>
                </g>
                <g id="Group-98" transform="translate(299.824047, 171.813750)">
                    <g id="Group-43" transform="translate(8.495601, 0.000000)">
                        <mask id="mask-4" fill="white">
                            <use xlink:href="#path-3"></use>
                        </mask>
                        <g id="Clip-42"></g>
                        <path d="M-3.83108856,7.305125 C-1.0702088,13.540125 6.21926334,16.355125 12.4506065,13.591375 C18.6819496,10.828875 21.4940493,3.535125 18.7331695,-2.698625" id="Fill-41" fill="#93E4C8" mask="url(#mask-4)"></path>
                    </g>
                    <g id="Group-46" transform="translate(46.222874, 40.000000)">
                        <mask id="mask-6" fill="white">
                            <use xlink:href="#path-5"></use>
                        </mask>
                        <g id="Clip-45"></g>
                        <path d="M49.824885,11.509125 C45.3462633,6.684125 37.6920053,5.970375 31.8229496,8.630375 C30.9896886,5.110375 28.0838938,2.286625 24.2886211,1.745375 C21.6651607,1.371625 19.1428909,2.162875 17.2477531,3.726625 C16.4569672,2.184125 14.9553484,1.035375 13.108932,0.771625 C10.0882047,0.340375 7.28984692,2.441625 6.86009912,5.465375 C6.57401701,7.470375 7.40228094,9.376625 8.8739173,10.559125 C4.5839349,11.577875 1.14220469,15.125375 0.482591789,19.757875 C-0.10706217,23.899125 1.68813431,27.841625 4.81255073,30.184125 C-1.33759003,40.434125 5.59334252,53.760375 15.2189437,52.787875 L52.9305625,17.879125 C52.6444804,15.575375 51.4551783,13.265375 49.824885,11.509125" id="Fill-44" fill="#93E4C8" mask="url(#mask-6)"></path>
                    </g>
                    <g id="Group-49" transform="translate(47.472141, 11.250000)">
                        <mask id="mask-8" fill="white">
                            <use xlink:href="#path-7"></use>
                        </mask>
                        <g id="Clip-48"></g>
                        <path d="M20.4021519,4.172875 C19.480193,3.536625 18.5282516,2.942875 17.5500757,2.395375 C14.8716475,0.896625 12.7941167,0.167875 9.77713724,0.187875 C6.69394663,0.207875 3.62199941,1.171625 1.70812258,3.745375 C-0.0358539589,6.089125 -0.309443402,9.549125 1.35957713,11.946625 C2.96113724,14.249125 5.87942463,15.201625 8.63530733,15.716625 C10.651624,16.095375 13.0989378,15.936625 14.8104334,17.246625 C17.7262223,19.479125 16.2358469,22.469125 17.0678587,25.464125 C17.8711372,28.350375 20.0061343,30.922875 22.8594598,31.947875 C24.2249085,32.439125 25.7227795,32.620375 26.9483103,33.397875 C28.8322047,34.591625 29.7529144,36.845375 30.3463161,38.871625 C30.6061636,39.755375 30.9921871,40.656625 31.7305038,41.206625 C35.5157824,44.024125 35.7194129,36.386625 35.7743806,34.599125 C35.9717648,28.055375 34.3652076,21.454125 31.1096182,15.769125 C28.4724158,11.162875 24.7683396,7.185375 20.4021519,4.172875" id="Fill-47" fill="#225CBD" mask="url(#mask-8)"></path>
                    </g>
                    <path d="M59.6748545,31.742 C58.8465906,31.502 58.0083326,31.302 57.1625789,31.14075 C54.8426903,30.6995 53.151183,30.6745 50.9537226,31.4245 C48.7100393,32.19075 46.7037167,33.64325 45.9341683,35.987 C45.2320804,38.122 45.8754528,40.712 47.6768956,42.0545 C49.4058809,43.34325 51.765746,43.32575 53.9019924,43.03075 C55.4648252,42.81575 57.2113003,42.10325 58.7791302,42.642 C61.4488135,43.5595 61.0902739,46.10325 62.4257402,48.08575 C63.7149836,49.99575 65.8987021,51.352 68.2285848,51.4045 C69.3441801,51.4295 70.4810129,51.197 71.5641273,51.4645 C73.2306493,51.877 74.4499337,53.29575 75.3756405,54.6295 C75.7804029,55.212 76.2813589,55.7745 76.9547138,55.99575 C80.4014411,57.12825 78.6911947,51.507 78.2951771,50.19075 C76.8472768,45.36825 74.0664088,40.9445 70.3086141,37.592 C67.2629015,34.8745 63.5925554,32.87575 59.6748545,31.742" id="Fill-50" fill="#4986EC"></path>
                    <g id="Group-54" transform="translate(1.000000, 42.500000)">
                        <mask id="mask-10" fill="white">
                            <use xlink:href="#path-9"></use>
                        </mask>
                        <g id="Clip-53"></g>
                        <path d="M32.176905,46.86725 C35.7460604,41.336 34.550512,33.736 30.5278727,28.701 C33.7322422,27.026 35.7498082,23.511 35.3387994,19.69725 C35.0552158,17.061 33.6660311,14.811 31.6846938,13.3585 C32.9839314,12.211 33.7272452,10.47225 33.5261132,8.61725 C33.1988053,5.581 30.4741543,3.386 27.439685,3.7135 C25.4271161,3.931 23.7855795,5.20475 23.0022891,6.9235 C20.9584886,3.0135 16.6735032,0.551 12.023732,1.05225 C7.86742111,1.501 4.49315132,4.21475 2.99278182,7.82225 C-8.45050264,4.3835 -19.6489308,14.391 -16.3346258,23.48475 L26.7725765,51.44975 C28.9338082,50.60475 30.8776674,48.881 32.176905,46.86725" id="Fill-52" fill="#93E4C8" mask="url(#mask-10)"></path>
                    </g>
                    <g id="Group-57" transform="translate(41.225806, 52.500000)">
                        <mask id="mask-12" fill="white">
                            <use xlink:href="#path-11"></use>
                        </mask>
                        <g id="Clip-56"></g>
                        <path d="M0.177770674,0.887375 C8.77647449,6.562375 15.0790258,15.618625 17.4151548,25.656125" id="Stroke-55" stroke="#225CBD" stroke-width="0.62" stroke-linecap="round" stroke-linejoin="round" mask="url(#mask-12)"></path>
                    </g>
                    <path d="M39.3417871,51.144125 C39.81401,51.770375 39.6890833,52.660375 39.0632006,53.132875 C38.4373179,53.604125 37.5465906,53.479125 37.075617,52.852875 C36.6033941,52.226625 36.7283208,51.336625 37.3542035,50.865375 C37.9800862,50.392875 38.8695642,50.517875 39.3417871,51.144125" id="Fill-58" fill="#FF6A4D"></path>
                    <path d="M48.5866117,49.263 C49.0588346,49.88925 48.9339079,50.77925 48.3080252,51.25175 C47.6821425,51.723 46.7926645,51.598 46.3204416,50.97175 C45.8482188,50.3455 45.9731455,49.4555 46.5990282,48.98425 C47.2249109,48.51175 48.1143889,48.63675 48.5866117,49.263" id="Fill-60" fill="#FF6A4D"></path>
                    <path d="M41.7729853,64.342875 C42.2452082,64.969125 42.1202815,65.859125 41.4943988,66.331625 C40.8685161,66.802875 39.9790381,66.677875 39.5068152,66.051625 C39.0345924,65.425375 39.1595191,64.535375 39.7854018,64.064125 C40.4112845,63.591625 41.3007625,63.716625 41.7729853,64.342875" id="Fill-62" fill="#FF6A4D"></path>
                    <path d="M55.6979384,69.832875 C54.4611642,67.464125 53.2868534,66.605375 50.9844545,65.387875 C48.6808065,64.170375 45.9311701,63.822875 43.3989062,64.430375" id="Stroke-64" stroke="#225CBD" stroke-width="0.62" stroke-linecap="round" stroke-linejoin="round"></path>
                    <path d="M47.2756311,52.680625 C47.6604053,55.219375 48.4574375,58.058125 49.6617308,60.654375" id="Stroke-66" stroke="#225CBD" stroke-width="0.62" stroke-linecap="round" stroke-linejoin="round"></path>
                    <path d="M23.3706598,27.840875 C24.1352111,24.878375 25.3619912,20.608375 20.979563,15.812125 C20.787176,15.600875 20.4348827,15.698375 20.3736686,15.977125 C19.2480792,21.092125 19.953915,23.487125 22.7260381,27.938375 C22.8909413,28.203375 23.2932053,28.143375 23.3706598,27.840875" id="Fill-68" fill="#4986EC"></path>
                    <path d="M25.3158933,30.642875 C27.5870604,32.691625 30.8039226,35.754125 37.0802393,34.085375 C37.3563273,34.011625 37.4337818,33.655375 37.2151601,33.471625 C33.202515,30.106625 30.7539519,29.625375 25.5270194,30.025375 C25.2172012,30.049125 25.0847789,30.434125 25.3158933,30.642875" id="Fill-70" fill="#4986EC"></path>
                    <path d="M29.7601601,23.661375 C31.1156147,20.918875 33.1906469,16.990125 29.8838375,11.397625 C29.7389226,11.151375 29.3741367,11.173875 29.2567056,11.433875 C27.1067173,16.211375 27.3078493,18.698875 29.1092921,23.625125 C29.216729,23.917625 29.6214915,23.941375 29.7601601,23.661375" id="Fill-72" fill="#4986EC"></path>
                    <path d="M33.3992745,22.827375 C36.145163,21.789875 39.7205648,21.183625 40.901122,14.653625 C40.9435971,14.422375 40.7074856,14.237375 40.4926117,14.331125 C35.6379607,16.459875 34.9146352,17.498625 33.0219959,22.444875 C32.9307994,22.682375 33.1619138,22.917375 33.3992745,22.827375" id="Fill-74" fill="#4986EC"></path>
                    <path d="M31.1284821,25.940625 C33.8306463,27.371875 37.6971273,29.556875 43.3762944,26.405625 C43.6261478,26.266875 43.6149044,25.901875 43.3575554,25.776875 C38.6453208,23.494375 36.1542827,23.625625 31.1834499,25.290625 C30.8873736,25.389375 30.8536434,25.794375 31.1284821,25.940625" id="Fill-76" fill="#4986EC"></path>
                    <path d="M30.1481824,24.751125 C16.5723994,33.544875 7.63264575,49.119875 6.88308563,65.284875" id="Stroke-78" stroke="#FF9C8F" stroke-width="0.578" stroke-linecap="round" stroke-linejoin="round"></path>
                    <path d="M18.3516053,33.318875 C17.8693883,30.128875 17.1623032,24.745125 11.239529,21.972625 C10.9796815,21.851375 10.6911009,22.078875 10.7435701,22.361375 C11.716749,27.590125 13.4894587,30.543875 17.7919337,33.658875 C18.0467842,33.843875 18.3990774,33.630125 18.3516053,33.318875" id="Fill-80" fill="#4986EC"></path>
                    <path d="M20.3183261,35.69325 C22.5944903,37.97825 26.3510358,41.897 32.7647718,40.622 C33.0458569,40.56575 33.1432997,40.21075 32.9346721,40.0145 C29.0556985,36.377 25.8788129,35.04825 20.5681795,35.08825 C20.2533642,35.0895 20.0959566,35.47075 20.3183261,35.69325" id="Fill-82" fill="#4986EC"></path>
                    <path d="M15.9873677,41.845375 C18.3509806,44.037875 22.2611859,47.806625 28.618705,46.279125 C28.8972915,46.211625 28.9809924,45.852875 28.7636199,45.665375 C24.7447284,42.184125 21.5191214,40.981625 16.213485,41.230375 C15.8986698,41.245375 15.7562534,41.631625 15.9873677,41.845375" id="Fill-84" fill="#4986EC"></path>
                    <path d="M12.9558968,47.74725 C15.2495507,50.0135 19.0373279,53.9035 25.4410698,52.57725 C25.7209056,52.51975 25.8158499,52.1635 25.605973,51.9685 C21.6982663,48.36225 18.5113865,47.0585 13.2007531,47.13975 C12.8859378,47.14475 12.732278,47.526 12.9558968,47.74725" id="Fill-86" fill="#4986EC"></path>
                    <path d="M10.5020868,53.23475 C12.459688,55.79725 15.6740516,60.17475 22.1977232,59.7485 C22.4838053,59.72975 22.627471,59.38975 22.445078,59.1685 C19.074556,55.05475 16.1000516,53.32225 10.8293947,52.66725 C10.5158287,52.6285 10.310949,52.98475 10.5020868,53.23475" id="Fill-88" fill="#4986EC"></path>
                    <path d="M13.7992768,39.414125 C12.4887959,36.466625 10.3787842,31.462875 3.93381642,30.361625 C3.65148211,30.314125 3.43286041,30.610375 3.55903636,30.869125 C5.88267273,35.652875 8.37496012,38.029125 13.3495408,39.890375 C13.6443677,40.000375 13.9267021,39.701625 13.7992768,39.414125" id="Fill-90" fill="#4986EC"></path>
                    <g id="Group-94" transform="translate(0.000000, 38.750000)">
                        <mask id="mask-14" fill="white">
                            <use xlink:href="#path-13"></use>
                        </mask>
                        <g id="Clip-93"></g>
                        <path d="M10.0287396,6.667 C8.00867507,4.15325 4.69062229,-0.1455 -1.82180587,0.4395 C-2.10788798,0.46575 -2.2428088,0.80825 -2.05541877,1.02575 C1.41379531,5.05575 4.43077478,6.71575 9.71642287,7.242 C10.0287396,7.27325 10.2261238,6.912 10.0287396,6.667" id="Fill-92" fill="#4986EC" mask="url(#mask-14)"></path>
                    </g>
                    <g id="Group-97" transform="translate(1.249267, 47.500000)">
                        <mask id="mask-16" fill="white">
                            <use xlink:href="#path-15"></use>
                        </mask>
                        <g id="Clip-96"></g>
                        <path d="M6.52442111,4.32675 C3.91220411,2.43675 -0.42525044,-0.8295 -6.55040587,1.458 C-6.81899824,1.558 -6.85897478,1.92425 -6.62036481,2.0855 C-2.20920352,5.053 1.13883167,5.8555 6.37450909,4.96425 C6.68557654,4.91175 6.77927155,4.51175 6.52442111,4.32675" id="Fill-95" fill="#4986EC" mask="url(#mask-16)"></path>
                    </g>
                </g>
                <path d="M189.461189,210.06875 C189.461189,188.04875 207.301969,170.1975 229.309054,170.1975 C251.316139,170.1975 269.156919,188.04875 269.156919,210.06875 C269.156919,232.08875 251.316139,249.94 229.309054,249.94 C207.301969,249.94 189.461189,232.08875 189.461189,210.06875" id="Fill-99" fill="#C6F2EB"></path>
                <g id="Group-149" transform="translate(188.639296, 171.563750)">
                    <g id="Group-103" transform="translate(51.219941, 0.000000)">
                        <mask id="mask-18" fill="white">
                            <use xlink:href="#path-17"></use>
                        </mask>
                        <g id="Clip-102"></g>
                        <path d="M2.90604457,-2.318 C-1.15157419,3.16075 -0.00224868035,10.8945 5.47453724,14.9545 C10.9500739,19.01325 18.6780387,17.86325 22.7356575,12.3845" id="Fill-101" fill="#93E4C8" mask="url(#mask-18)"></path>
                    </g>
                    <g id="Group-106" transform="translate(46.222874, 40.250000)">
                        <mask id="mask-20" fill="white">
                            <use xlink:href="#path-19"></use>
                        </mask>
                        <g id="Clip-105"></g>
                        <path d="M49.824885,11.509125 C45.3462633,6.684125 37.6920053,5.970375 31.8229496,8.630375 C30.9896886,5.110375 28.0838938,2.286625 24.2886211,1.745375 C21.6651607,1.371625 19.1428909,2.162875 17.2477531,3.726625 C16.4569672,2.184125 14.9553484,1.035375 13.108932,0.771625 C10.0882047,0.340375 7.28984692,2.441625 6.86009912,5.465375 C6.57401701,7.470375 7.40228094,9.376625 8.8739173,10.559125 C4.5839349,11.577875 1.14220469,15.125375 0.482591789,19.757875 C-0.10706217,23.899125 1.68813431,27.841625 4.81255073,30.184125 C-1.33759003,40.434125 5.59334252,53.760375 15.2189437,52.787875 L52.9305625,17.879125 C52.6444804,15.575375 51.4551783,13.265375 49.824885,11.509125" id="Fill-104" fill="#93E4C8" mask="url(#mask-20)"></path>
                    </g>
                    <g id="Group-109" transform="translate(1.000000, 42.750000)">
                        <mask id="mask-22" fill="white">
                            <use xlink:href="#path-21"></use>
                        </mask>
                        <g id="Clip-108"></g>
                        <path d="M32.176905,46.86725 C35.7460604,41.336 34.550512,33.736 30.5278727,28.701 C33.7322422,27.026 35.7498082,23.511 35.3387994,19.69725 C35.0552158,17.061 33.6660311,14.811 31.6846938,13.3585 C32.9839314,12.211 33.7272452,10.47225 33.5261132,8.61725 C33.1988053,5.581 30.4741543,3.386 27.439685,3.7135 C25.4271161,3.931 23.7855795,5.20475 23.0022891,6.9235 C20.9584886,3.0135 16.6735032,0.551 12.023732,1.05225 C7.86742111,1.501 4.49315132,4.21475 2.99278182,7.82225 C-8.45050264,4.3835 -19.6489308,14.391 -16.3346258,23.48475 L26.7725765,51.44975 C28.9338082,50.60475 30.8776674,48.881 32.176905,46.86725" id="Fill-107" fill="#93E4C8" mask="url(#mask-22)"></path>
                    </g>
                    <g id="Group-112" transform="translate(35.979472, 52.750000)">
                        <mask id="mask-24" fill="white">
                            <use xlink:href="#path-23"></use>
                        </mask>
                        <g id="Clip-111"></g>
                        <path d="M0.238773021,0.28175 C7.30212786,7.783 11.3535003,18.048 11.3197701,28.35425" id="Stroke-110" stroke="#225CBD" stroke-width="0.62" stroke-linecap="round" stroke-linejoin="round" mask="url(#mask-24)"></path>
                    </g>
                    <path d="M34.7273701,50.374125 C35.0421853,51.091625 34.7161267,51.929125 33.9990475,52.245375 C33.2807191,52.560375 32.4437103,52.234125 32.128895,51.515375 C31.8140798,50.797875 32.1401384,49.960375 32.8572176,49.645375 C33.575546,49.329125 34.4125548,49.656625 34.7273701,50.374125" id="Fill-113" fill="#FF6A4D"></path>
                    <path d="M44.1567114,50.671375 C44.4715267,51.388875 44.145468,52.226375 43.4283889,52.542625 C42.7100604,52.857625 41.8730516,52.531375 41.5582364,51.812625 C41.2434211,51.095125 41.5694798,50.257625 42.2865589,49.942625 C43.0048874,49.626375 43.8418962,49.953875 44.1567114,50.671375" id="Fill-115" fill="#FF6A4D"></path>
                    <path d="M34.0591372,63.7785 C34.3739525,64.496 34.0478938,65.3335 33.3308147,65.64975 C32.6124862,65.96475 31.7754774,65.6385 31.4606622,64.91975 C31.1458469,64.20225 31.4719056,63.36475 32.1889848,63.04975 C32.9073132,62.7335 33.744322,63.061 34.0591372,63.7785" id="Fill-117" fill="#FF6A4D"></path>
                    <path d="M46.3484252,72.326375 C45.6888123,69.736375 44.7443666,68.630125 42.7830176,66.915125 C40.8216686,65.201375 38.2256921,64.230125 35.6209707,64.237625" id="Stroke-119" stroke="#225CBD" stroke-width="0.62" stroke-linecap="round" stroke-linejoin="round"></path>
                    <path d="M42.0952962,53.6955 C41.8854194,56.2555 42.0090968,59.2005 42.5850088,62.00425" id="Stroke-121" stroke="#225CBD" stroke-width="0.62" stroke-linecap="round" stroke-linejoin="round"></path>
                    <g id="Group-125" transform="translate(0.000000, 10.000000)">
                        <mask id="mask-26" fill="white">
                            <use xlink:href="#path-25"></use>
                        </mask>
                        <g id="Clip-124"></g>
                        <path d="M10.9795566,23.54125 C11.5817032,22.61875 12.8159789,22.35875 13.7379378,22.96125 C14.6598968,23.56375 14.9197443,24.79875 14.3175977,25.72125 C13.715451,26.64375 12.4811754,26.90375 11.5592164,26.30125 C10.6372575,25.69875 10.37741,24.46375 10.9795566,23.54125 M25.0912751,21.755 C25.6934217,20.83375 26.9276974,20.57375 27.8496563,21.17625 C28.7716152,21.7775 29.0314628,23.01375 28.4293161,23.93625 C27.8271695,24.8575 26.5928938,25.1175 25.6709349,24.515 C24.748976,23.91375 24.4891284,22.6775 25.0912751,21.755 M1.30648328,18.65625 C0.0559671554,25.34625 1.10660059,34.9175 5.8638088,40.23 C7.62402581,42.195 10.6609935,44.12875 13.4168762,44.015 C15.9328997,43.91125 17.6606358,41.29875 19.1097853,39.2325 C20.3078323,37.52375 21.514624,35.72375 23.3098205,34.66125 C24.9888352,33.6675 26.9939085,33.43375 28.9277736,33.18 C30.8616387,32.925 32.8717091,32.5975 34.458278,31.46125 C36.0448469,30.32625 37.0530053,28.13625 36.2334862,26.365 C35.4726827,24.71875 33.3988997,23.85125 32.9728997,22.08875 C32.5356563,20.27875 34.1334686,18.56375 35.8549584,17.8575 C37.5764481,17.15125 39.5078147,17.0525 41.199322,16.27875 C44.8334393,14.62 46.4724774,9.63 44.532366,6.13625 C42.5910053,2.6425 37.4902487,1.4025 34.163451,3.615 C32.8379789,4.49625 31.8335683,5.79 30.5355801,6.71 C29.2388411,7.63125 27.3949232,8.12 26.08819,7.2125 C24.4516504,6.07625 24.6252985,3.57375 23.5009584,1.9275 C22.272929,0.12875 19.5695155,-0.2475 17.6468938,0.7775 C15.7242721,1.80125 14.5637032,3.915 14.2051636,6.06375 C13.8453748,8.21375 14.1839261,10.415 14.6261666,12.54875 C14.8522839,13.64125 15.1071343,14.76625 14.8960082,15.8625 C14.6861314,16.9575 13.8666123,18.025 12.7572633,18.13375 C11.5054979,18.255 10.4736035,17.1775 9.82273548,16.10125 C9.17311672,15.025 8.62094076,13.785 7.52033666,13.1775 C6.1011695,12.39625 4.22726921,13.0225 3.14290557,14.225 C2.05854194,15.4275 1.6038088,17.06375 1.30648328,18.65625" id="Fill-123" fill="#4986EC" mask="url(#mask-26)"></path>
                    </g>
                    <path d="M45.0203296,16.298375 C16.5258018,20.500875 6.56289853,58.327125 6.99264633,66.793375" id="Stroke-126" stroke="#77B4F8" stroke-width="0.66" stroke-linecap="round" stroke-linejoin="round"></path>
                    <path d="M38.5711144,17.837375 C39.2169853,16.132375 39.8628563,14.427375 40.5087273,12.721125" id="Stroke-128" stroke="#77B4F8" stroke-width="0.66" stroke-linecap="round" stroke-linejoin="round"></path>
                    <path d="M43.774061,24.91475 C41.8989114,24.53475 40.0087707,24.14975 38.2510522,23.39225 C36.494583,22.63475 34.8580434,21.46725 33.8698733,19.82725" id="Stroke-130" stroke="#77B4F8" stroke-width="0.66" stroke-linecap="round" stroke-linejoin="round"></path>
                    <path d="M22.225332,29.10575 C19.8892029,25.012 19.0247103,16.922 21.6044463,10.692" id="Stroke-132" stroke="#77B4F8" stroke-width="0.66" stroke-linecap="round" stroke-linejoin="round"></path>
                    <path d="M13.0500915,43.445375 C7.60828504,38.351625 4.45638475,30.896625 4.59255484,23.441625" id="Stroke-134" stroke="#77B4F8" stroke-width="0.66" stroke-linecap="round" stroke-linejoin="round"></path>
                    <path d="M35.0466827,40.643 C28.8003484,41.70675 22.2142135,40.66675 16.6000082,37.728" id="Stroke-136" stroke="#77B4F8" stroke-width="0.66" stroke-linecap="round" stroke-linejoin="round"></path>
                    <path d="M18.7549935,50.022125 C16.3576504,50.118375 13.935322,49.480875 11.8965185,48.215875" id="Stroke-138" stroke="#77B4F8" stroke-width="0.66" stroke-linecap="round" stroke-linejoin="round"></path>
                    <g id="Group-142" transform="translate(47.472141, 20.000000)">
                        <mask id="mask-28" fill="white">
                            <use xlink:href="#path-27"></use>
                        </mask>
                        <g id="Clip-141"></g>
                        <path d="M34.3580868,18.681875 C33.1425501,12.744375 29.8120047,7.168125 24.8411718,3.704375 C19.870339,0.239375 13.2479754,-0.934375 7.53882581,1.091875 C3.58864399,2.494375 -0.129174194,6.149375 0.489212903,10.298125 C0.881482698,12.931875 2.92903109,15.039375 5.19395191,16.438125 C7.45887273,17.836875 10.0098757,18.713125 12.3110252,20.051875 C15.8826792,22.130625 18.128861,25.089375 20.2301279,28.546875 C21.480644,30.604375 22.5425208,33.293125 25.1222569,33.936875 C33.4111425,36.003125 35.4724328,24.123125 34.3580868,18.681875" id="Fill-140" fill="#4986EC" mask="url(#mask-28)"></path>
                    </g>
                    <path d="M75.0994276,44.428375 C74.1612282,36.883375 68.2671871,30.202125 60.9027589,28.333375" id="Stroke-143" stroke="#225CBD" stroke-width="0.714" stroke-linecap="round" stroke-linejoin="round"></path>
                    <path d="M72.6621079,57.874625 C70.4796387,58.240875 68.2696856,57.338375 66.4195214,56.122125 C64.5706065,54.904625 62.9465595,53.363375 61.0589173,52.208375 C59.1275507,51.028375 56.9638205,50.279625 54.994976,49.164625 C53.0261314,48.048375 51.1784657,46.440875 50.5363425,44.269625 C49.6581079,41.303375 51.3933396,37.983375 54.0530287,36.407125 C56.7127179,34.829625 60.0482604,34.762125 63.0477501,35.512125 C68.0348235,36.759625 72.2898264,40.335875 74.708407,44.835875 C76.7109818,48.563375 78.9659085,56.817125 72.6621079,57.874625" id="Fill-145" fill="#77B4F8"></path>
                    <path d="M71.4526927,53.006375 C69.7824229,49.161375 66.2757308,46.016375 62.419244,45.315125" id="Stroke-147" stroke="#4986EC" stroke-width="0.431" stroke-linecap="round" stroke-linejoin="round"></path>
                </g>
            </g>
        </g>
    </g>
</svg>