<?xml version="1.0" encoding="UTF-8" standalone="no"?>
<svg width="401px" height="444px" viewBox="0 0 401 444" version="1.1" xmlns="http://www.w3.org/2000/svg" xmlns:xlink="http://www.w3.org/1999/xlink">
    <!-- Generator: Sketch 3.8.3 (29802) - http://www.bohemiancoding.com/sketch -->
    <title>Page 1</title>
    <desc>Created with Sketch.</desc>
    <defs>
        <path d="M0.269587952,15.1593277 C36.9502613,62.0196369 94.0171921,92.1334472 158.112367,92.1334472 C207.249817,92.1334472 252.25644,74.4351789 287.113826,45.0613483 L287.113826,0.296487263 L0.269587952,0.296487263 L0.269587952,15.1593277 L0.269587952,15.1593277 Z" id="path-1"></path>
    </defs>
    <g id="Page-1" stroke="none" stroke-width="1" fill="none" fill-rule="evenodd">
        <g id="Desktop-HD-Copy-11" transform="translate(-175.000000, -150.000000)">
            <g id="Page-1" transform="translate(175.000000, 149.000000)">
                <g id="Group-13" transform="translate(0.000000, 23.315713)">
                    <path d="M0,220.574855 C0,331.323061 89.716503,421.100806 200.386464,421.100806 C311.057633,421.100806 400.774136,331.323061 400.774136,220.574855 C400.774136,109.826649 311.057633,20.0489035 200.386464,20.0489035 C89.716503,20.0489035 0,109.826649 0,220.574855" id="Fill-1" fill="#FFE0D1"></path>
                    <path d="M245.554041,10.7685984 C268.676764,-5.84943415 302.866845,-2.5171252 324.067908,16.5702244 C345.268972,35.6563653 352.939908,67.9895523 344.957351,95.6222136 C342.344812,104.665498 338.188664,114.006116 340.516155,123.130382 C343.562306,135.070853 356.071815,141.238707 365.014598,149.568875 C382.522113,165.878696 386.629948,195.129769 374.312484,215.773888 C368.101815,226.18539 353.89168,239.457818 356.494556,252.732663 C357.838872,259.590669 361.753454,265.643699 363.71618,272.345785 C368.305939,288.016219 361.023923,305.847758 348.092881,315.559438 C335.160631,325.26991 317.677273,327.412886 302.064845,323.523379 C290.391155,320.616522 278.36961,313.024853 276.139954,301.010653 C272.341324,280.545417 291.23543,268.866018 302.293125,255.587547 C311.901423,244.047146 316.295514,230.537818 317.962321,215.649395 C321.088189,187.733905 316.696514,148.329986 313.023499,115.535086 C310.831285,95.9570157 306.836987,74.5502244 291.856255,62.0573897 C281.915803,53.7683165 270.608086,45.5227556 259.676005,38.6466201 C248.742716,31.7704846 238.162113,22.3380076 245.156664,11.3680997" id="Fill-3" fill="#FF6A4D"></path>
                    <path d="M319.42585,212.125512 C319.42585,220.460514 312.674073,227.216991 304.344868,227.216991 C296.016871,227.216991 289.265094,220.460514 289.265094,212.125512 C289.265094,203.790509 296.016871,197.034032 304.344868,197.034032 C312.674073,197.034032 319.42585,203.790509 319.42585,212.125512" id="Fill-5" fill="#FFCCB8"></path>
                    <path d="M225.73981,212.125512 C225.73981,220.460514 218.988033,227.216991 210.658828,227.216991 C202.330831,227.216991 195.579054,220.460514 195.579054,212.125512 C195.579054,203.790509 202.330831,197.034032 210.658828,197.034032 C218.988033,197.034032 225.73981,203.790509 225.73981,212.125512" id="Fill-7" fill="#FFCCB8"></path>
                    <path d="M157.769585,274.829002 C179.330582,291.011913 215.509961,299.927078 247.159973,290.112661 C280.578251,279.748298 311.249919,248.69872 316.648925,214.107734 C321.967007,180.037685 309.254582,145.479333 311.641257,111.079317 C313.955461,77.7115062 287.967763,49.7114087 257.093178,36.9006932" id="Stroke-9" stroke="#FFFFFF" stroke-width="4.521" stroke-linecap="round" stroke-linejoin="round"></path>
                    <path d="M253.627789,287.440528 C250.239823,300.462762 250.907753,312.713862 255.518045,325.355363" id="Stroke-11" stroke="#FFFFFF" stroke-width="4.521" stroke-linecap="round" stroke-linejoin="round"></path>
                </g>
                <g id="Group-23" transform="translate(42.274096, 348.657176)">
                    <g id="Group-16" transform="translate(0.000000, 3.626016)">
                        <mask id="mask-2" fill="white">
                            <use xlink:href="#path-1"></use>
                        </mask>
                        <g id="Clip-15"></g>
                        <path d="M50.0467325,203.384823 C149.092525,241.520845 209.51791,231.925197 287.113826,199.305555 C277.637181,184.394167 269.943296,152.59884 275.606817,124.857398 C277.174582,117.176287 279.475501,109.503636 279.138516,101.736709 C278.505612,87.138368 272.791362,80.5341837 264.944082,67.1819832 C264.944082,67.1819832 267.482943,61.5084764 282.780127,53.1335875 C275.533139,21.2161837 210.846525,0.296487263 210.846525,0.296487263 L127.66922,1.78194526 C127.66922,1.78194526 46.1671783,2.66427588 0.269587952,76.5322705 C0.269587952,76.5322705 88.5850066,82.597387 89.1164524,91.4351973 C90.7458169,118.543295 73.7190187,159.912514 50.0467325,203.384823" id="Fill-14" fill="#4986EC" mask="url(#mask-2)"></path>
                    </g>
                    <path d="M212.054598,0.0141414634 C202.681827,4.60951274 178.760727,14.0190249 114.07532,1.83440163" id="Stroke-17" stroke="#225CBD" stroke-width="18.611" stroke-linecap="round" stroke-linejoin="round"></path>
                    <path d="M175.283502,40.9151214 C175.283502,43.585078 177.446727,45.7498098 180.114827,45.7498098 C182.782926,45.7498098 184.946152,43.585078 184.946152,40.9151214 C184.946152,38.2451648 182.782926,36.0804331 180.114827,36.0804331 C177.446727,36.0804331 175.283502,38.2451648 175.283502,40.9151214" id="Fill-19" fill="#FFFFFF"></path>
                    <path d="M177.574999,63.0867604 C177.574999,65.7567171 179.738225,67.9214488 182.406324,67.9214488 C185.074424,67.9214488 187.23765,65.7567171 187.23765,63.0867604 C187.23765,60.4168038 185.074424,58.2520721 182.406324,58.2520721 C179.738225,58.2520721 177.574999,60.4168038 177.574999,63.0867604" id="Fill-21" fill="#FFFFFF"></path>
                </g>
                <g id="Group-48" transform="translate(15.701807, 0.559615)">
                    <path d="M212.654407,196.921087 C204.985886,196.704734 197.317364,196.488382 189.648843,196.27203 C187.471123,196.210388 185.222142,196.133033 183.250961,195.203564 C181.155373,194.21487 179.580361,192.337802 178.525925,190.27339 C177.471488,188.20777 176.883274,185.942718 176.303515,183.697005" id="Stroke-24" stroke="#033A96" stroke-width="3.1" stroke-linecap="round" stroke-linejoin="round"></path>
                    <path d="M190.16495,195.918493 C186.774567,192.474986 184.460362,187.983561 183.622127,183.222602" id="Stroke-26" stroke="#033A96" stroke-width="3.1" stroke-linecap="round" stroke-linejoin="round"></path>
                    <path d="M275.709966,196.704734 C283.378487,196.488382 283.378487,196.488382 291.047008,196.27203 C293.224728,196.210388 295.47371,196.133033 297.44489,195.203564 C299.540478,194.21487 301.11549,192.337802 302.169927,190.27339 C303.224363,188.20777 303.812577,185.942718 304.392336,183.697005" id="Stroke-28" stroke="#033A96" stroke-width="3.1" stroke-linecap="round" stroke-linejoin="round"></path>
                    <path d="M290.531143,195.918493 C293.921526,192.474986 296.23573,187.983561 297.073965,183.222602" id="Stroke-30" stroke="#033A96" stroke-width="3.1" stroke-linecap="round" stroke-linejoin="round"></path>
                    <path d="M189.181171,202.919605 C189.181171,204.2987 188.063927,205.417931 186.684584,205.417931 C185.306448,205.417931 184.189204,204.2987 184.189204,202.919605 C184.189204,201.540511 185.306448,200.42128 186.684584,200.42128 C188.063927,200.42128 189.181171,201.540511 189.181171,202.919605" id="Fill-32" fill="#033A96"></path>
                    <path d="M183.730228,158.579833 L205.22721,158.579833 C209.114011,158.579833 212.265243,155.426407 212.265243,151.538109 L212.265243,150.634022 C212.265243,146.744515 209.114011,143.592299 205.22721,143.592299 L183.730228,143.592299 C179.843427,143.592299 176.693403,146.744515 176.693403,150.634022 L176.693403,151.538109 C176.693403,155.426407 179.843427,158.579833 183.730228,158.579833 L183.730228,158.579833 Z" id="Stroke-34" stroke="#FFFFFF" stroke-width="4.521" stroke-linecap="round" stroke-linejoin="round"></path>
                    <path d="M295.725542,143.591694 L279.655347,143.591694 C275.605488,143.591694 272.322603,147.188702 272.322603,151.24138 L272.322603,151.24138 C272.322603,155.294057 275.605488,158.579228 272.113648,158.579228 L288.183844,158.579228" id="Stroke-36" stroke="#FFFFFF" stroke-width="4.521" stroke-linecap="round" stroke-linejoin="round"></path>
                    <path d="M208.299571,5.3287935 C190.693014,0.656067209 171.64189,-0.244393496 158.603351,1.42599133 C127.155047,5.45449539 97.3892515,24.5865659 83.0390075,52.8779534 C78.1364202,62.5412867 74.8209232,73.3746146 67.1753509,81.0484737 C59.9235316,88.327097 49.7584232,91.7560997 41.1502093,97.3619209 C27.5367425,106.226322 20.887631,125.707699 23.4639352,141.472409 C27.5282877,166.34688 50.3285196,189.879726 41.4739081,216.545449 C38.1861913,226.4481 29.5997184,233.435433 22.1292816,240.715265 C12.4159021,250.182793 3.77628464,261.524972 1.06832681,274.820365 C-1.63963102,288.115758 2.93684187,303.574674 14.6093238,310.478609 C24.9930497,316.618663 38.4374202,315.013547 49.2040286,320.45378 C64.6171642,328.242463 70.1768117,347.828994 83.837384,358.396414 C92.7016581,365.253211 104.620538,367.710441 115.648038,365.720967 C126.67433,363.732701 136.745227,357.506831 144.119038,349.065466 C150.909465,341.291287 155.594643,331.250848 155.196059,320.933623 C154.667029,307.222447 145.626411,295.54184 137.270634,284.662582 C130.482622,275.824772 123.123306,265.808506 121.64492,254.432485 C120.578405,246.21714 123.315351,232.0092 116.341333,225.708392 C112.105468,221.880528 101.395628,223.755178 95.8758389,219.916436 C88.3450105,214.678051 85.7445497,206.067471 85.9909473,197.180105 C86.6117726,174.814837 108.333411,178.230544 108.333411,178.230544 C108.333411,178.230544 104.609667,202.291579 119.504643,202.992609 C134.399619,203.694848 129.435432,184.530143 144.330408,164.301807 C159.222968,144.075888 182.810706,124.205319 203.904273,117.370279 C234.091601,107.588495 259.33286,74.6836065 252.71636,41.2348152 C248.96242,22.2574547 229.696303,11.007135 208.299571,5.3287935" id="Fill-38" fill="#FF6A4D"></path>
                    <path d="M142.56625,184.345458 L142.56625,184.345458 C140.730346,186.146379 137.783238,186.116163 135.983569,184.278981 L116.572512,164.454341 C114.772843,162.61716 114.803039,159.668 116.64015,157.867079 L116.64015,157.867079 C118.476054,156.066157 121.423162,156.096374 123.221623,157.933556 L142.63268,177.758195 C144.432349,179.595377 144.402153,182.544537 142.56625,184.345458" id="Fill-40" fill="#77B4F8"></path>
                    <path d="M107.703889,54.5516016 C107.703889,54.5516016 126.368507,15.0739539 180.226914,17.473168" id="Stroke-42" stroke="#FF9C8F" stroke-width="9.249" stroke-linecap="round" stroke-linejoin="round"></path>
                    <path d="M93.5412217,70.5333892 C93.3576313,73.7194488 95.7914114,76.4510477 98.9752548,76.6347659 C102.160306,76.818484 104.890005,74.3830098 105.072387,71.1969501 C105.255978,68.0096818 102.822198,65.2780829 99.6383542,65.0955734 C96.4545108,64.9118553 93.724812,67.3473295 93.5412217,70.5333892" id="Fill-44" fill="#FF9C8F"></path>
                    <path d="M253.77901,259.893265 C251.415284,260.855368 244.917152,262.693758 236.055293,258.740192" id="Stroke-46" stroke="#FF6A4D" stroke-width="9.421" stroke-linecap="round" stroke-linejoin="round"></path>
                </g>
            </g>
        </g>
    </g>
</svg>