<?xml version="1.0" encoding="UTF-8" standalone="no"?>
<svg width="775px" height="86px" viewBox="0 0 775 86" version="1.1" xmlns="http://www.w3.org/2000/svg" xmlns:xlink="http://www.w3.org/1999/xlink">
    <!-- Generator: Sketch 3.8.3 (29802) - http://www.bohemiancoding.com/sketch -->
    <title>graph</title>
    <desc>Created with Sketch.</desc>
    <defs></defs>
    <g id="Page-1" stroke="none" stroke-width="1" fill="none" fill-rule="evenodd">
        <g id="Artboard-1" transform="translate(-294.000000, -195.000000)">
            <g id="graph" transform="translate(292.000000, 197.000000)">
                <g id="Page-1">
                    <g id="Desktop-HD-Copy-7">
                        <path d="M60.405268,6.881295 L726.299438,6.881295" id="Stroke-450" stroke="#FFFFFF" stroke-width="3"></path>
                        <rect id="Rectangle-4" fill="#77B4F7" x="63" y="4" width="134" height="6"></rect>
                        <rect id="Rectangle-4-Copy" fill="#77B4F7" x="194" y="4" width="134" height="6"></rect>
                        <path d="M62.5,15 C66.642136,15 70,11.642136 70,7.5 C70,3.357864 66.642136,0 62.5,0 C58.357864,0 55,3.357864 55,7.5 C55,11.642136 58.357864,15 62.5,15 L62.5,15 Z" id="Oval-1-Copy" stroke="#A8CDF7" stroke-width="4" fill="#4596F0"></path>
                        <path d="M196.5,15 C200.642136,15 204,11.642136 204,7.5 C204,3.357864 200.642136,0 196.5,0 C192.357864,0 189,3.357864 189,7.5 C189,11.642136 192.357864,15 196.5,15 L196.5,15 Z" id="Oval-1-Copy-2" stroke="#A8CDF7" stroke-width="4" fill="#4596F0"></path>
                        <path d="M731.5,15 C735.642136,15 739,11.642136 739,7.5 C739,3.357864 735.642136,0 731.5,0 C727.357864,0 724,3.357864 724,7.5 C724,11.642136 727.357864,15 731.5,15 L731.5,15 Z" id="Oval-1-Copy-9" stroke="#A8CDF7" stroke-width="4" fill="#FFFFFF"></path>
                        <path d="M601.5,15 C605.642136,15 609,11.642136 609,7.5 C609,3.357864 605.642136,0 601.5,0 C597.357864,0 594,3.357864 594,7.5 C594,11.642136 597.357864,15 601.5,15 L601.5,15 Z" id="Oval-1-Copy-9" stroke="#A8CDF7" stroke-width="4" fill="#FFFFFF"></path>
                        <path d="M466.5,15 C470.642136,15 474,11.642136 474,7.5 C474,3.357864 470.642136,0 466.5,0 C462.357864,0 459,3.357864 459,7.5 C459,11.642136 462.357864,15 466.5,15 L466.5,15 Z" id="Oval-1-Copy-8" stroke="#A8CDF7" stroke-width="4" fill="#FFFFFF"></path>
                        <path d="M331.5,15 C335.642136,15 339,11.642136 339,7.5 C339,3.357864 335.642136,0 331.5,0 C327.357864,0 324,3.357864 324,7.5 C324,11.642136 327.357864,15 331.5,15 L331.5,15 Z" id="Oval-1-Copy-7" stroke="#A8CDF7" stroke-width="4" fill="#FFFFFF"></path>
                        <text id="RÉCOLTE" fill="#77B4F7" font-family="Campton-Book, Campton" font-size="25" font-weight="300">
                            <tspan x="0.2375" y="83">RÉCOLTE</tspan>
                        </text>
                        <text id="POUSSE" fill="#77B4F7" font-family="Campton-Book, Campton" font-size="25" font-weight="300">
                            <tspan x="150.45" y="83">POUSSE</tspan>
                        </text>
                        <text id="FLEUR" fill="#FFFFFF" font-family="Campton-Book, Campton" font-size="25" font-weight="300">
                            <tspan x="289.1125" y="83">FLEUR</tspan>
                        </text>
                        <text id="POLLEN" fill="#FFFFFF" font-family="Campton-Book, Campton" font-size="25" font-weight="300">
                            <tspan x="414.3" y="83">POLLEN</tspan>
                        </text>
                        <text id="FRUIT" fill="#FFFFFF" font-family="Campton-Book, Campton" font-size="25" font-weight="300">
                            <tspan x="563.375" y="83">FRUIT</tspan>
                        </text>
                        <text id="GRAINE" fill="#FFFFFF" font-family="Campton-Book, Campton" font-size="25" font-weight="300">
                            <tspan x="679.4875" y="83">GRAINE</tspan>
                        </text>
                    </g>
                </g>
            </g>
        </g>
    </g>
</svg>