<?xml version="1.0" encoding="UTF-8" standalone="no"?>
<svg width="401px" height="402px" viewBox="0 0 401 402" version="1.1" xmlns="http://www.w3.org/2000/svg" xmlns:xlink="http://www.w3.org/1999/xlink">
    <!-- Generator: Sketch 3.8.3 (29802) - http://www.bohemiancoding.com/sketch -->
    <title>Group 4</title>
    <desc>Created with Sketch.</desc>
    <defs>
        <polygon id="path-1" points="213.433276 199 0 199 0 0.550982222 213.433276 0.550982222 213.433276 199"></polygon>
    </defs>
    <g id="Page-1" stroke="none" stroke-width="1" fill="none" fill-rule="evenodd">
        <g id="Desktop-HD-Copy-7" transform="translate(-175.000000, -192.000000)">
            <g id="Group-4" transform="translate(175.000000, 192.000000)">
                <g id="Group-2">
                    <path d="M0,200.525951 C0,311.274157 89.716503,401.051902 200.386464,401.051902 C311.057633,401.051902 400.774136,311.274157 400.774136,200.525951 C400.774136,89.7777453 311.057633,0 200.386464,0 C89.716503,0 0,89.7777453 0,200.525951" id="Fill-1" fill="#FFFFFF"></path>
                    <g id="Page-1" transform="translate(76.000000, 95.000000)">
                        <g id="Group-3" transform="translate(38.000000, 0.431000)" fill="#BBB3B3">
                            <path d="M195.3708,179.4134 L192.4428,190.3414 C192.1518,191.4284 191.3028,192.2764 190.2168,192.5674 L179.2888,195.4954 C178.2028,195.7864 177.0438,195.4764 176.2478,194.6804 L168.2488,186.6814 C167.4538,185.8854 167.1428,184.7264 167.4338,183.6404 L170.3618,172.7124 C170.6528,171.6264 171.5008,170.7774 172.5878,170.4864 L183.5158,167.5584 C184.6018,167.2674 185.7608,167.5784 186.5558,168.3734 L194.5558,176.3734 C195.3508,177.1684 195.6618,178.3274 195.3708,179.4134 M202.0008,160.9284 C195.7088,154.6374 187.2608,151.8434 179.0388,152.5194 C174.1848,152.9184 169.4078,151.1344 165.9638,147.6904 L71.7448,53.4714 C66.9448,48.6714 64.3938,42.0854 64.6508,35.3024 C65.0498,24.7644 60.5198,14.1754 51.5808,7.3814 C43.8138,1.4774 34.3318,-0.4936 25.4718,1.0984 C22.1068,1.7024 21.1308,6.0814 23.8918,8.0994 L38.0358,18.4414 C40.4388,20.1974 41.4538,23.3064 40.5138,26.1304 C40.4718,26.2544 40.4298,26.3784 40.3878,26.5034 C38.2698,32.7094 34.3128,38.1254 29.0258,42.0054 L28.8188,42.1574 C26.4018,43.9324 23.1128,43.9354 20.6918,42.1654 L6.5468,31.8234 C3.7868,29.8054 -0.0902,32.0634 0.3548,35.4534 C1.5258,44.3784 6.2798,52.8154 14.2618,58.4264 C20.4118,62.7484 27.5828,64.6734 34.6288,64.4004 C41.4708,64.1354 48.1258,66.6474 52.9668,71.4894 L147.5658,166.0884 C151.0118,169.5344 152.7918,174.3154 152.3938,179.1724 C151.6368,188.4194 155.2688,197.9514 163.3278,204.3794 C173.8128,212.7404 189.0448,212.7294 199.5158,204.3494 C213.3238,193.2974 214.1518,173.0804 202.0008,160.9284" id="Fill-1"></path>
                        </g>
                        <path d="M189.1673,143.1526 L189.1673,143.1526 C188.1933,144.1266 186.6143,144.1266 185.6393,143.1526 L104.0093,61.5216 C103.0353,60.5476 103.0353,58.9686 104.0093,57.9946 C104.9833,57.0206 106.5623,57.0206 107.5363,57.9946 L189.1673,139.6246 C190.1413,140.5996 190.1413,142.1786 189.1673,143.1526" id="Fill-4" fill="#D3CFCF"></path>
                        <path d="M193.1673,162.1526 L193.1673,162.1526 C192.1933,163.1266 190.6143,163.1266 189.6393,162.1526 L108.0093,80.5216 C107.0353,79.5476 107.0353,77.9686 108.0093,76.9946 C108.9833,76.0206 110.5623,76.0206 111.5363,76.9946 L193.1673,158.6246 C194.1413,159.5996 194.1413,161.1786 193.1673,162.1526" id="Fill-6" fill="#D3CFCF"></path>
                        <g id="Group-10" transform="translate(0.000000, 12.431000)">
                            <mask id="mask-2" fill="white">
                                <use xlink:href="#path-1"></use>
                            </mask>
                            <g id="Clip-9"></g>
                            <path d="M36.465,193.2814 L107.599,125.1784 L107.753,125.3464 C110.337,128.1674 114.767,128.2864 117.5,125.5514 C120.104,122.9444 119.887,118.6274 117.398,115.9104 L111.054,108.9894 C109.6,107.4034 109.708,104.9384 111.294,103.4844 L176.281,43.9244 C179.238,41.2144 182.635,39.0284 186.326,37.4614 L186.402,37.4284 C191.321,35.3394 195.701,32.1574 199.207,28.1244 L212.645,12.6644 C213.717,11.4314 213.693,9.5894 212.589,8.3844 L206.365,1.5934 C205.261,0.3884 203.428,0.2044 202.106,1.1654 L185.558,13.1934 C181.228,16.3404 177.67,20.4304 175.154,25.1554 L175.106,25.2444 C173.222,28.7814 170.751,31.9714 167.797,34.6784 L102.815,94.2344 C101.229,95.6874 98.765,95.5804 97.311,93.9944 L90.928,87.0294 C88.461,84.3384 84.234,83.7724 81.417,86.0954 C78.412,88.5724 78.131,93.0264 80.728,95.8604 L81.089,96.2544 L7.058,161.1964 C-1.802,169.3164 -2.402,183.0814 5.719,191.9424 C13.839,200.8024 27.605,201.4014 36.465,193.2814" id="Fill-8" fill="#BBB3B3" mask="url(#mask-2)"></path>
                        </g>
                        <path d="M7.9538,187.4408 L7.9538,187.4408 C6.6078,185.9398 6.7328,183.6318 8.2338,182.2848 L86.0048,112.6798 C87.5058,111.3338 89.8138,111.4588 91.1608,112.9608 L91.1608,112.9608 C92.5068,114.4618 92.3818,116.7698 90.8808,118.1158 L13.1098,187.7208 C11.6088,189.0668 9.2998,188.9418 7.9538,187.4408" id="Fill-11" fill="#D3CFCF"></path>
                        <path d="M22.8836,202.6824 L22.8836,202.6824 C21.4956,201.2194 21.5566,198.9084 23.0196,197.5214 L98.8156,125.7704 C100.2776,124.3824 102.5886,124.4434 103.9766,125.9064 L103.9766,125.9064 C105.3646,127.3684 105.3036,129.6794 103.8406,131.0674 L28.0446,202.8184 C26.5826,204.2064 24.2716,204.1454 22.8836,202.6824" id="Fill-13" fill="#D3CFCF"></path>
                    </g>
                </g>
            </g>
        </g>
    </g>
</svg>